California_Gothic_Normal.ufo
<glyph name=".notdef" format="1">
  <advance width="1064"/>
  <unicode hex="0000"/>
  <outline>
    <contour>
      <point x="100" y="1400" type="curve"/>
      <point x="100" y="1400"/>
      <point x="964" y="1400"/>
      <point x="964" y="1400" type="curve"/>
      <point x="964" y="1400"/>
      <point x="964" y="0"/>
      <point x="964" y="0" type="curve"/>
      <point x="964" y="0"/>
      <point x="100" y="0"/>
      <point x="100" y="0" type="curve"/>
      <point x="100" y="0"/>
      <point x="100" y="1400"/>
    </contour>
    <contour>
      <point x="250" y="150" type="curve"/>
      <point x="250" y="150"/>
      <point x="814" y="150"/>
      <point x="814" y="150" type="curve"/>
      <point x="814" y="150"/>
      <point x="814" y="1250"/>
      <point x="814" y="1250" type="curve"/>
      <point x="814" y="1250"/>
      <point x="250" y="1250"/>
      <point x="250" y="1250" type="curve"/>
      <point x="250" y="1250"/>
      <point x="250" y="150"/>
    </contour>
  </outline>
</glyph>
<glyph name="exclam" format="1">
  <advance width="450"/>
  <unicode hex="0021"/>
  <outline>
    <contour>
      <point x="110" y="230" type="curve"/>
      <point x="110" y="230"/>
      <point x="340" y="230"/>
      <point x="340" y="230" type="curve"/>
      <point x="340" y="230"/>
      <point x="340" y="0"/>
      <point x="340" y="0" type="curve"/>
      <point x="340" y="0"/>
      <point x="110" y="0"/>
      <point x="110" y="0" type="curve"/>
      <point x="110" y="0"/>
      <point x="110" y="230"/>
    </contour>
    <contour>
      <point x="330" y="390" type="curve"/>
      <point x="330" y="390"/>
      <point x="120" y="390"/>
      <point x="120" y="390" type="curve"/>
      <point x="120" y="390"/>
      <point x="100" y="880"/>
      <point x="100" y="880" type="curve"/>
      <point x="100" y="880"/>
      <point x="100" y="1400"/>
      <point x="100" y="1400" type="curve"/>
      <point x="100" y="1400"/>
      <point x="350" y="1400"/>
      <point x="350" y="1400" type="curve"/>
      <point x="350" y="1400"/>
      <point x="350" y="880"/>
      <point x="350" y="880" type="curve"/>
      <point x="350" y="880"/>
      <point x="330" y="390"/>
    </contour>
  </outline>
</glyph>
<glyph name="quotedbl" format="1">
  <advance width="720"/>
  <unicode hex="0022"/>
  <outline>
    <contour>
      <point x="270" y="990" type="curve"/>
      <point x="270" y="990"/>
      <point x="160" y="990"/>
      <point x="160" y="990" type="curve"/>
      <point x="160" y="990"/>
      <point x="100" y="1220"/>
      <point x="100" y="1220" type="curve"/>
      <point x="100" y="1220"/>
      <point x="100" y="1450"/>
      <point x="100" y="1450" type="curve"/>
      <point x="100" y="1450"/>
      <point x="330" y="1450"/>
      <point x="330" y="1450" type="curve"/>
      <point x="330" y="1450"/>
      <point x="330" y="1220"/>
      <point x="330" y="1220" type="curve"/>
      <point x="330" y="1220"/>
      <point x="270" y="990"/>
    </contour>
    <contour>
      <point x="560" y="990" type="curve"/>
      <point x="560" y="990"/>
      <point x="450" y="990"/>
      <point x="450" y="990" type="curve"/>
      <point x="450" y="990"/>
      <point x="390" y="1220"/>
      <point x="390" y="1220" type="curve"/>
      <point x="390" y="1220"/>
      <point x="390" y="1450"/>
      <point x="390" y="1450" type="curve"/>
      <point x="390" y="1450"/>
      <point x="620" y="1450"/>
      <point x="620" y="1450" type="curve"/>
      <point x="620" y="1450"/>
      <point x="620" y="1220"/>
      <point x="620" y="1220" type="curve"/>
      <point x="620" y="1220"/>
      <point x="560" y="990"/>
    </contour>
  </outline>
</glyph>
<glyph name="numbersign" format="1">
  <advance width="1232"/>
  <unicode hex="0023"/>
  <outline>
    <contour>
      <point x="290" y="410" type="curve"/>
      <point x="290" y="410"/>
      <point x="100" y="410"/>
      <point x="100" y="410" type="curve"/>
      <point x="100" y="410"/>
      <point x="100" y="580"/>
      <point x="100" y="580" type="curve"/>
      <point x="100" y="580"/>
      <point x="324" y="580"/>
      <point x="324" y="580" type="curve"/>
      <point x="324" y="580"/>
      <point x="372" y="820"/>
      <point x="372" y="820" type="curve"/>
      <point x="372" y="820"/>
      <point x="182" y="820"/>
      <point x="182" y="820" type="curve"/>
      <point x="182" y="820"/>
      <point x="182" y="990"/>
      <point x="182" y="990" type="curve"/>
      <point x="182" y="990"/>
      <point x="406" y="990"/>
      <point x="406" y="990" type="curve"/>
      <point x="406" y="990"/>
      <point x="448" y="1200"/>
      <point x="448" y="1200" type="curve"/>
      <point x="448" y="1200"/>
      <point x="638" y="1200"/>
      <point x="638" y="1200" type="curve"/>
      <point x="638" y="1200"/>
      <point x="596" y="990"/>
      <point x="596" y="990" type="curve"/>
      <point x="596" y="990"/>
      <point x="786" y="990"/>
      <point x="786" y="990" type="curve"/>
      <point x="786" y="990"/>
      <point x="828" y="1200"/>
      <point x="828" y="1200" type="curve"/>
      <point x="828" y="1200"/>
      <point x="1018" y="1200"/>
      <point x="1018" y="1200" type="curve"/>
      <point x="1018" y="1200"/>
      <point x="976" y="990"/>
      <point x="976" y="990" type="curve"/>
      <point x="976" y="990"/>
      <point x="1132" y="990"/>
      <point x="1132" y="990" type="curve"/>
      <point x="1132" y="990"/>
      <point x="1132" y="820"/>
      <point x="1132" y="820" type="curve"/>
      <point x="1132" y="820"/>
      <point x="942" y="820"/>
      <point x="942" y="820" type="curve"/>
      <point x="942" y="820"/>
      <point x="894" y="580"/>
      <point x="894" y="580" type="curve"/>
      <point x="894" y="580"/>
      <point x="1050" y="580"/>
      <point x="1050" y="580" type="curve"/>
      <point x="1050" y="580"/>
      <point x="1050" y="410"/>
      <point x="1050" y="410" type="curve"/>
      <point x="1050" y="410"/>
      <point x="860" y="410"/>
      <point x="860" y="410" type="curve"/>
      <point x="860" y="410"/>
      <point x="818" y="200"/>
      <point x="818" y="200" type="curve"/>
      <point x="818" y="200"/>
      <point x="628" y="200"/>
      <point x="628" y="200" type="curve"/>
      <point x="628" y="200"/>
      <point x="670" y="410"/>
      <point x="670" y="410" type="curve"/>
      <point x="670" y="410"/>
      <point x="480" y="410"/>
      <point x="480" y="410" type="curve"/>
      <point x="480" y="410"/>
      <point x="438" y="200"/>
      <point x="438" y="200" type="curve"/>
      <point x="438" y="200"/>
      <point x="248" y="200"/>
      <point x="248" y="200" type="curve"/>
      <point x="248" y="200"/>
      <point x="290" y="410"/>
    </contour>
    <contour>
      <point x="514" y="580" type="curve"/>
      <point x="514" y="580"/>
      <point x="704" y="580"/>
      <point x="704" y="580" type="curve"/>
      <point x="704" y="580"/>
      <point x="752" y="820"/>
      <point x="752" y="820" type="curve"/>
      <point x="752" y="820"/>
      <point x="562" y="820"/>
      <point x="562" y="820" type="curve"/>
      <point x="562" y="820"/>
      <point x="514" y="580"/>
    </contour>
  </outline>
</glyph>
<glyph name="dollar" format="1">
  <advance width="900"/>
  <unicode hex="0024"/>
  <outline>
    <contour>
      <point x="100" y="235" type="curve" smooth="yes"/>
      <point x="100" y="235"/>
      <point x="100" y="445"/>
      <point x="100" y="445" type="curve"/>
      <point x="100" y="445"/>
      <point x="330" y="445"/>
      <point x="330" y="445" type="curve"/>
      <point x="330" y="445"/>
      <point x="330" y="351"/>
      <point x="330" y="351" type="curve" smooth="yes"/>
      <point x="330" y="339"/>
      <point x="339" y="330"/>
      <point x="351" y="330" type="curve" smooth="yes"/>
      <point x="351" y="330"/>
      <point x="549" y="330"/>
      <point x="549" y="330" type="curve" smooth="yes"/>
      <point x="561" y="330"/>
      <point x="570" y="339"/>
      <point x="570" y="351" type="curve" smooth="yes"/>
      <point x="570" y="351"/>
      <point x="570" y="579"/>
      <point x="570" y="579" type="curve" smooth="yes"/>
      <point x="570" y="591"/>
      <point x="561" y="600"/>
      <point x="549" y="600" type="curve" smooth="yes"/>
      <point x="549" y="600"/>
      <point x="235" y="600"/>
      <point x="235" y="600" type="curve" smooth="yes"/>
      <point x="160" y="600"/>
      <point x="100" y="660"/>
      <point x="100" y="735" type="curve" smooth="yes"/>
      <point x="100" y="735"/>
      <point x="100" y="1165"/>
      <point x="100" y="1165" type="curve" smooth="yes"/>
      <point x="100" y="1240"/>
      <point x="160" y="1300"/>
      <point x="235" y="1300" type="curve" smooth="yes"/>
      <point x="235" y="1300"/>
      <point x="350" y="1300"/>
      <point x="350" y="1300" type="curve"/>
      <point x="350" y="1300"/>
      <point x="350" y="1500"/>
      <point x="350" y="1500" type="curve"/>
      <point x="350" y="1500"/>
      <point x="550" y="1500"/>
      <point x="550" y="1500" type="curve"/>
      <point x="550" y="1500"/>
      <point x="550" y="1300"/>
      <point x="550" y="1300" type="curve"/>
      <point x="550" y="1300"/>
      <point x="665" y="1300"/>
      <point x="665" y="1300" type="curve" smooth="yes"/>
      <point x="740" y="1300"/>
      <point x="800" y="1240"/>
      <point x="800" y="1165" type="curve" smooth="yes"/>
      <point x="800" y="1165"/>
      <point x="800" y="955"/>
      <point x="800" y="955" type="curve"/>
      <point x="800" y="955"/>
      <point x="570" y="955"/>
      <point x="570" y="955" type="curve"/>
      <point x="570" y="955"/>
      <point x="570" y="1049"/>
      <point x="570" y="1049" type="curve" smooth="yes"/>
      <point x="570" y="1061"/>
      <point x="561" y="1070"/>
      <point x="549" y="1070" type="curve" smooth="yes"/>
      <point x="549" y="1070"/>
      <point x="351" y="1070"/>
      <point x="351" y="1070" type="curve" smooth="yes"/>
      <point x="339" y="1070"/>
      <point x="330" y="1061"/>
      <point x="330" y="1049" type="curve" smooth="yes"/>
      <point x="330" y="1049"/>
      <point x="330" y="851"/>
      <point x="330" y="851" type="curve" smooth="yes"/>
      <point x="330" y="839"/>
      <point x="339" y="830"/>
      <point x="351" y="830" type="curve" smooth="yes"/>
      <point x="351" y="830"/>
      <point x="665" y="830"/>
      <point x="665" y="830" type="curve" smooth="yes"/>
      <point x="740" y="830"/>
      <point x="800" y="770"/>
      <point x="800" y="695" type="curve" smooth="yes"/>
      <point x="800" y="695"/>
      <point x="800" y="235"/>
      <point x="800" y="235" type="curve" smooth="yes"/>
      <point x="800" y="160"/>
      <point x="740" y="100"/>
      <point x="665" y="100" type="curve" smooth="yes"/>
      <point x="665" y="100"/>
      <point x="550" y="100"/>
      <point x="550" y="100" type="curve"/>
      <point x="550" y="100"/>
      <point x="550" y="-100"/>
      <point x="550" y="-100" type="curve"/>
      <point x="550" y="-100"/>
      <point x="350" y="-100"/>
      <point x="350" y="-100" type="curve"/>
      <point x="350" y="-100"/>
      <point x="350" y="100"/>
      <point x="350" y="100" type="curve"/>
      <point x="350" y="100"/>
      <point x="235" y="100"/>
      <point x="235" y="100" type="curve" smooth="yes"/>
      <point x="160" y="100"/>
      <point x="100" y="160"/>
    </contour>
  </outline>
</glyph>
<glyph name="quotesingle" format="1">
  <advance width="430"/>
  <unicode hex="0027"/>
  <outline>
    <contour>
      <point x="270" y="990" type="curve"/>
      <point x="270" y="990"/>
      <point x="160" y="990"/>
      <point x="160" y="990" type="curve"/>
      <point x="160" y="990"/>
      <point x="100" y="1220"/>
      <point x="100" y="1220" type="curve"/>
      <point x="100" y="1220"/>
      <point x="100" y="1450"/>
      <point x="100" y="1450" type="curve"/>
      <point x="100" y="1450"/>
      <point x="330" y="1450"/>
      <point x="330" y="1450" type="curve"/>
      <point x="330" y="1450"/>
      <point x="330" y="1220"/>
      <point x="330" y="1220" type="curve"/>
      <point x="330" y="1220"/>
      <point x="270" y="990"/>
    </contour>
  </outline>
</glyph>
<glyph name="parenleft" format="1">
  <advance width="640"/>
  <unicode hex="0028"/>
  <outline>
    <contour>
      <point x="100" y="270" type="curve" smooth="yes"/>
      <point x="100" y="270"/>
      <point x="100" y="1130"/>
      <point x="100" y="1130" type="curve" smooth="yes"/>
      <point x="100" y="1377"/>
      <point x="303" y="1580"/>
      <point x="550" y="1580" type="curve" smooth="yes"/>
      <point x="550" y="1580"/>
      <point x="630" y="1580"/>
      <point x="630" y="1580" type="curve"/>
      <point x="630" y="1580"/>
      <point x="630" y="1400"/>
      <point x="630" y="1400" type="curve"/>
      <point x="630" y="1400"/>
      <point x="550" y="1400"/>
      <point x="550" y="1400" type="curve" smooth="yes"/>
      <point x="469" y="1400"/>
      <point x="330" y="1344"/>
      <point x="330" y="1190" type="curve" smooth="yes"/>
      <point x="330" y="1190"/>
      <point x="330" y="210"/>
      <point x="330" y="210" type="curve" smooth="yes"/>
      <point x="330" y="56"/>
      <point x="469" y="0"/>
      <point x="550" y="0" type="curve" smooth="yes"/>
      <point x="550" y="0"/>
      <point x="630" y="0"/>
      <point x="630" y="0" type="curve"/>
      <point x="630" y="0"/>
      <point x="630" y="-180"/>
      <point x="630" y="-180" type="curve"/>
      <point x="630" y="-180"/>
      <point x="550" y="-180"/>
      <point x="550" y="-180" type="curve" smooth="yes"/>
      <point x="303" y="-180"/>
      <point x="100" y="23"/>
    </contour>
  </outline>
</glyph>
<glyph name="parenright" format="1">
  <advance width="640"/>
  <unicode hex="0029"/>
  <outline>
    <contour>
      <point x="90" y="-180" type="curve" smooth="yes"/>
      <point x="90" y="-180"/>
      <point x="10" y="-180"/>
      <point x="10" y="-180" type="curve"/>
      <point x="10" y="-180"/>
      <point x="10" y="0"/>
      <point x="10" y="0" type="curve"/>
      <point x="10" y="0"/>
      <point x="90" y="0"/>
      <point x="90" y="0" type="curve" smooth="yes"/>
      <point x="171" y="0"/>
      <point x="310" y="56"/>
      <point x="310" y="210" type="curve" smooth="yes"/>
      <point x="310" y="210"/>
      <point x="310" y="1190"/>
      <point x="310" y="1190" type="curve" smooth="yes"/>
      <point x="310" y="1344"/>
      <point x="171" y="1400"/>
      <point x="90" y="1400" type="curve" smooth="yes"/>
      <point x="90" y="1400"/>
      <point x="10" y="1400"/>
      <point x="10" y="1400" type="curve"/>
      <point x="10" y="1400"/>
      <point x="10" y="1580"/>
      <point x="10" y="1580" type="curve"/>
      <point x="10" y="1580"/>
      <point x="90" y="1580"/>
      <point x="90" y="1580" type="curve" smooth="yes"/>
      <point x="337" y="1580"/>
      <point x="540" y="1377"/>
      <point x="540" y="1130" type="curve" smooth="yes"/>
      <point x="540" y="1130"/>
      <point x="540" y="270"/>
      <point x="540" y="270" type="curve" smooth="yes"/>
      <point x="540" y="23"/>
      <point x="337" y="-180"/>
    </contour>
  </outline>
</glyph>
<glyph name="plus" format="1">
  <advance width="1000"/>
  <unicode hex="002B"/>
  <outline>
    <contour>
      <point x="390" y="290" type="curve"/>
      <point x="390" y="290"/>
      <point x="390" y="580"/>
      <point x="390" y="580" type="curve"/>
      <point x="390" y="580"/>
      <point x="100" y="580"/>
      <point x="100" y="580" type="curve"/>
      <point x="100" y="580"/>
      <point x="100" y="800"/>
      <point x="100" y="800" type="curve"/>
      <point x="100" y="800"/>
      <point x="390" y="800"/>
      <point x="390" y="800" type="curve"/>
      <point x="390" y="800"/>
      <point x="390" y="1090"/>
      <point x="390" y="1090" type="curve"/>
      <point x="390" y="1090"/>
      <point x="610" y="1090"/>
      <point x="610" y="1090" type="curve"/>
      <point x="610" y="1090"/>
      <point x="610" y="800"/>
      <point x="610" y="800" type="curve"/>
      <point x="610" y="800"/>
      <point x="900" y="800"/>
      <point x="900" y="800" type="curve"/>
      <point x="900" y="800"/>
      <point x="900" y="580"/>
      <point x="900" y="580" type="curve"/>
      <point x="900" y="580"/>
      <point x="610" y="580"/>
      <point x="610" y="580" type="curve"/>
      <point x="610" y="580"/>
      <point x="610" y="290"/>
      <point x="610" y="290" type="curve"/>
      <point x="610" y="290"/>
      <point x="390" y="290"/>
    </contour>
  </outline>
</glyph>
<glyph name="comma" format="1">
  <advance width="430"/>
  <unicode hex="002C"/>
  <outline>
    <contour>
      <point x="120" y="-200" type="curve"/>
      <point x="120" y="-200"/>
      <point x="200" y="0"/>
      <point x="200" y="0" type="curve"/>
      <point x="200" y="0"/>
      <point x="100" y="0"/>
      <point x="100" y="0" type="curve"/>
      <point x="100" y="0"/>
      <point x="100" y="230"/>
      <point x="100" y="230" type="curve"/>
      <point x="100" y="230"/>
      <point x="330" y="230"/>
      <point x="330" y="230" type="curve"/>
      <point x="330" y="230"/>
      <point x="330" y="0"/>
      <point x="330" y="0" type="curve"/>
      <point x="330" y="0"/>
      <point x="220" y="-200"/>
      <point x="220" y="-200" type="curve"/>
      <point x="220" y="-200"/>
      <point x="120" y="-200"/>
    </contour>
  </outline>
</glyph>
<glyph name="hyphen" format="1">
  <advance width="1000"/>
  <unicode hex="002D"/>
  <outline>
    <contour>
      <point x="100" y="810" type="curve"/>
      <point x="100" y="810"/>
      <point x="900" y="810"/>
      <point x="900" y="810" type="curve"/>
      <point x="900" y="810"/>
      <point x="900" y="590"/>
      <point x="900" y="590" type="curve"/>
      <point x="900" y="590"/>
      <point x="100" y="590"/>
      <point x="100" y="590" type="curve"/>
      <point x="100" y="590"/>
      <point x="100" y="810"/>
    </contour>
  </outline>
</glyph>
<glyph name="period" format="1">
  <advance width="430"/>
  <unicode hex="002E"/>
  <outline>
    <contour>
      <point x="100" y="230" type="curve"/>
      <point x="100" y="230"/>
      <point x="330" y="230"/>
      <point x="330" y="230" type="curve"/>
      <point x="330" y="230"/>
      <point x="330" y="0"/>
      <point x="330" y="0" type="curve"/>
      <point x="330" y="0"/>
      <point x="100" y="0"/>
      <point x="100" y="0" type="curve"/>
      <point x="100" y="0"/>
      <point x="100" y="230"/>
    </contour>
  </outline>
</glyph>
<glyph name="slash" format="1">
  <advance width="800"/>
  <unicode hex="002F"/>
  <outline>
    <contour>
      <point x="700" y="1400" type="curve"/>
      <point x="700" y="1400"/>
      <point x="347" y="0"/>
      <point x="347" y="0" type="curve"/>
      <point x="347" y="0"/>
      <point x="100" y="0"/>
      <point x="100" y="0" type="curve"/>
      <point x="100" y="0"/>
      <point x="460" y="1400"/>
      <point x="460" y="1400" type="curve"/>
      <point x="460" y="1400"/>
      <point x="700" y="1400"/>
    </contour>
  </outline>
</glyph>
<glyph name="one" format="1">
  <advance width="620"/>
  <unicode hex="0031"/>
  <outline>
    <contour>
      <point x="280" y="0" type="curve"/>
      <point x="280" y="0"/>
      <point x="280" y="1060"/>
      <point x="280" y="1060" type="curve"/>
      <point x="280" y="1060"/>
      <point x="216" y="1000"/>
      <point x="100" y="1000" type="curve"/>
      <point x="100" y="1000"/>
      <point x="100" y="1270"/>
      <point x="100" y="1270" type="curve"/>
      <point x="213" y="1270"/>
      <point x="300" y="1400"/>
      <point x="300" y="1400" type="curve"/>
      <point x="300" y="1400"/>
      <point x="520" y="1400"/>
      <point x="520" y="1400" type="curve"/>
      <point x="520" y="1400"/>
      <point x="520" y="0"/>
      <point x="520" y="0" type="curve"/>
      <point x="520" y="0"/>
      <point x="280" y="0"/>
    </contour>
  </outline>
</glyph>
<glyph name="two" format="1">
  <advance width="930"/>
  <unicode hex="0032"/>
  <outline>
    <contour>
      <point x="360" y="990" type="curve"/>
      <point x="360" y="990"/>
      <point x="120" y="990"/>
      <point x="120" y="990" type="curve"/>
      <point x="120" y="990"/>
      <point x="120" y="1240"/>
      <point x="120" y="1240" type="curve" smooth="yes"/>
      <point x="120" y="1328"/>
      <point x="192" y="1400"/>
      <point x="280" y="1400" type="curve" smooth="yes"/>
      <point x="280" y="1400"/>
      <point x="670" y="1400"/>
      <point x="670" y="1400" type="curve" smooth="yes"/>
      <point x="758" y="1400"/>
      <point x="830" y="1328"/>
      <point x="830" y="1240" type="curve" smooth="yes"/>
      <point x="830" y="1240"/>
      <point x="830" y="980"/>
      <point x="830" y="980" type="curve" smooth="yes"/>
      <point x="830" y="760"/>
      <point x="477" y="481"/>
      <point x="390" y="240" type="curve"/>
      <point x="390" y="240"/>
      <point x="830" y="240"/>
      <point x="830" y="240" type="curve"/>
      <point x="830" y="240"/>
      <point x="830" y="0"/>
      <point x="830" y="0" type="curve"/>
      <point x="830" y="0"/>
      <point x="100" y="0"/>
      <point x="100" y="0" type="curve"/>
      <point x="100" y="0"/>
      <point x="100" y="100"/>
      <point x="100" y="100" type="curve" smooth="yes"/>
      <point x="100" y="432"/>
      <point x="606" y="806"/>
      <point x="606" y="998" type="curve" smooth="yes"/>
      <point x="606" y="998"/>
      <point x="606" y="1117"/>
      <point x="606" y="1117" type="curve" smooth="yes"/>
      <point x="606" y="1152"/>
      <point x="579" y="1180"/>
      <point x="544" y="1180" type="curve" smooth="yes"/>
      <point x="544" y="1180"/>
      <point x="423" y="1180"/>
      <point x="423" y="1180" type="curve" smooth="yes"/>
      <point x="388" y="1180"/>
      <point x="360" y="1152"/>
      <point x="360" y="1117" type="curve" smooth="yes"/>
      <point x="360" y="1117"/>
      <point x="360" y="990"/>
    </contour>
  </outline>
</glyph>
<glyph name="three" format="1">
  <advance width="930"/>
  <unicode hex="0033"/>
  <outline>
    <contour>
      <point x="100" y="160" type="curve" smooth="yes"/>
      <point x="100" y="160"/>
      <point x="100" y="410"/>
      <point x="100" y="410" type="curve"/>
      <point x="100" y="410"/>
      <point x="330" y="410"/>
      <point x="330" y="410" type="curve"/>
      <point x="330" y="410"/>
      <point x="330" y="303"/>
      <point x="330" y="303" type="curve" smooth="yes"/>
      <point x="330" y="268"/>
      <point x="358" y="240"/>
      <point x="393" y="240" type="curve" smooth="yes"/>
      <point x="393" y="240"/>
      <point x="538" y="240"/>
      <point x="538" y="240" type="curve" smooth="yes"/>
      <point x="573" y="240"/>
      <point x="600" y="268"/>
      <point x="600" y="303" type="curve" smooth="yes"/>
      <point x="600" y="303"/>
      <point x="600" y="537"/>
      <point x="600" y="537" type="curve" smooth="yes"/>
      <point x="600" y="572"/>
      <point x="573" y="600"/>
      <point x="538" y="600" type="curve" smooth="yes"/>
      <point x="538" y="600"/>
      <point x="380" y="600"/>
      <point x="380" y="600" type="curve"/>
      <point x="380" y="600"/>
      <point x="380" y="820"/>
      <point x="380" y="820" type="curve"/>
      <point x="380" y="820"/>
      <point x="538" y="820"/>
      <point x="538" y="820" type="curve" smooth="yes"/>
      <point x="573" y="820"/>
      <point x="600" y="848"/>
      <point x="600" y="883" type="curve" smooth="yes"/>
      <point x="600" y="883"/>
      <point x="600" y="1107"/>
      <point x="600" y="1107" type="curve" smooth="yes"/>
      <point x="600" y="1142"/>
      <point x="573" y="1170"/>
      <point x="538" y="1170" type="curve" smooth="yes"/>
      <point x="538" y="1170"/>
      <point x="383" y="1170"/>
      <point x="383" y="1170" type="curve" smooth="yes"/>
      <point x="348" y="1170"/>
      <point x="320" y="1142"/>
      <point x="320" y="1107" type="curve" smooth="yes"/>
      <point x="320" y="1107"/>
      <point x="320" y="1020"/>
      <point x="320" y="1020" type="curve"/>
      <point x="320" y="1020"/>
      <point x="100" y="1020"/>
      <point x="100" y="1020" type="curve"/>
      <point x="100" y="1020"/>
      <point x="100" y="1240"/>
      <point x="100" y="1240" type="curve" smooth="yes"/>
      <point x="100" y="1328"/>
      <point x="172" y="1400"/>
      <point x="260" y="1400" type="curve" smooth="yes"/>
      <point x="260" y="1400"/>
      <point x="670" y="1400"/>
      <point x="670" y="1400" type="curve" smooth="yes"/>
      <point x="758" y="1400"/>
      <point x="830" y="1328"/>
      <point x="830" y="1240" type="curve" smooth="yes"/>
      <point x="830" y="1240"/>
      <point x="830" y="860"/>
      <point x="830" y="860" type="curve" smooth="yes"/>
      <point x="830" y="793"/>
      <point x="789" y="733"/>
      <point x="726" y="710" type="curve"/>
      <point x="789" y="686"/>
      <point x="830" y="627"/>
      <point x="830" y="560" type="curve" smooth="yes"/>
      <point x="830" y="560"/>
      <point x="830" y="160"/>
      <point x="830" y="160" type="curve" smooth="yes"/>
      <point x="830" y="72"/>
      <point x="758" y="0"/>
      <point x="670" y="0" type="curve" smooth="yes"/>
      <point x="670" y="0"/>
      <point x="260" y="0"/>
      <point x="260" y="0" type="curve" smooth="yes"/>
      <point x="172" y="0"/>
      <point x="100" y="72"/>
    </contour>
  </outline>
</glyph>
<glyph name="four" format="1">
  <advance width="930"/>
  <unicode hex="0034"/>
  <outline>
    <contour>
      <point x="550" y="260" type="curve"/>
      <point x="550" y="260"/>
      <point x="100" y="260"/>
      <point x="100" y="260" type="curve"/>
      <point x="100" y="260"/>
      <point x="100" y="450"/>
      <point x="100" y="450" type="curve"/>
      <point x="100" y="450"/>
      <point x="510" y="1400"/>
      <point x="510" y="1400" type="curve"/>
      <point x="510" y="1400"/>
      <point x="780" y="1400"/>
      <point x="780" y="1400" type="curve"/>
      <point x="780" y="1400"/>
      <point x="780" y="480"/>
      <point x="780" y="480" type="curve"/>
      <point x="780" y="480"/>
      <point x="830" y="480"/>
      <point x="830" y="480" type="curve"/>
      <point x="830" y="480"/>
      <point x="830" y="260"/>
      <point x="830" y="260" type="curve"/>
      <point x="830" y="260"/>
      <point x="780" y="260"/>
      <point x="780" y="260" type="curve"/>
      <point x="780" y="260"/>
      <point x="780" y="0"/>
      <point x="780" y="0" type="curve"/>
      <point x="780" y="0"/>
      <point x="550" y="0"/>
      <point x="550" y="0" type="curve"/>
      <point x="550" y="0"/>
      <point x="550" y="260"/>
    </contour>
    <contour>
      <point x="550" y="480" type="curve"/>
      <point x="550" y="480"/>
      <point x="550" y="1002"/>
      <point x="550" y="1002" type="curve"/>
      <point x="550" y="1002"/>
      <point x="327" y="480"/>
      <point x="327" y="480" type="curve"/>
      <point x="327" y="480"/>
      <point x="550" y="480"/>
    </contour>
  </outline>
</glyph>
<glyph name="seven" format="1">
  <advance width="930"/>
  <unicode hex="0037"/>
  <outline>
    <contour>
      <point x="830" y="1200" type="curve"/>
      <point x="830" y="1200"/>
      <point x="530" y="0"/>
      <point x="530" y="0" type="curve"/>
      <point x="530" y="0"/>
      <point x="270" y="0"/>
      <point x="270" y="0" type="curve"/>
      <point x="270" y="0"/>
      <point x="571" y="1170"/>
      <point x="571" y="1170" type="curve"/>
      <point x="571" y="1170"/>
      <point x="330" y="1170"/>
      <point x="330" y="1170" type="curve"/>
      <point x="330" y="1170"/>
      <point x="330" y="1080"/>
      <point x="330" y="1080" type="curve"/>
      <point x="330" y="1080"/>
      <point x="100" y="1080"/>
      <point x="100" y="1080" type="curve"/>
      <point x="100" y="1080"/>
      <point x="100" y="1400"/>
      <point x="100" y="1400" type="curve"/>
      <point x="100" y="1400"/>
      <point x="830" y="1400"/>
      <point x="830" y="1400" type="curve"/>
      <point x="830" y="1400"/>
      <point x="830" y="1200"/>
    </contour>
  </outline>
</glyph>
<glyph name="nine" format="1">
  <advance width="930"/>
  <unicode hex="0039"/>
  <outline>
    <contour>
      <point x="830" y="1240" type="curve" smooth="yes"/>
      <point x="830" y="1240"/>
      <point x="830" y="160"/>
      <point x="830" y="160" type="curve" smooth="yes"/>
      <point x="830" y="72"/>
      <point x="758" y="0"/>
      <point x="670" y="0" type="curve" smooth="yes"/>
      <point x="670" y="0"/>
      <point x="260" y="0"/>
      <point x="260" y="0" type="curve" smooth="yes"/>
      <point x="172" y="0"/>
      <point x="100" y="72"/>
      <point x="100" y="160" type="curve" smooth="yes"/>
      <point x="100" y="160"/>
      <point x="100" y="380"/>
      <point x="100" y="380" type="curve"/>
      <point x="100" y="380"/>
      <point x="330" y="380"/>
      <point x="330" y="380" type="curve"/>
      <point x="330" y="380"/>
      <point x="330" y="283"/>
      <point x="330" y="283" type="curve" smooth="yes"/>
      <point x="330" y="248"/>
      <point x="358" y="220"/>
      <point x="393" y="220" type="curve" smooth="yes"/>
      <point x="393" y="220"/>
      <point x="538" y="220"/>
      <point x="538" y="220" type="curve" smooth="yes"/>
      <point x="573" y="220"/>
      <point x="600" y="248"/>
      <point x="600" y="283" type="curve" smooth="yes"/>
      <point x="600" y="283"/>
      <point x="600" y="645"/>
      <point x="600" y="645" type="curve"/>
      <point x="575" y="606"/>
      <point x="530" y="580"/>
      <point x="480" y="580" type="curve" smooth="yes"/>
      <point x="480" y="580"/>
      <point x="260" y="580"/>
      <point x="260" y="580" type="curve" smooth="yes"/>
      <point x="172" y="580"/>
      <point x="100" y="652"/>
      <point x="100" y="740" type="curve" smooth="yes"/>
      <point x="100" y="740"/>
      <point x="100" y="1240"/>
      <point x="100" y="1240" type="curve" smooth="yes"/>
      <point x="100" y="1328"/>
      <point x="172" y="1400"/>
      <point x="260" y="1400" type="curve" smooth="yes"/>
      <point x="260" y="1400"/>
      <point x="670" y="1400"/>
      <point x="670" y="1400" type="curve" smooth="yes"/>
      <point x="758" y="1400"/>
      <point x="830" y="1328"/>
    </contour>
    <contour>
      <point x="538" y="800" type="curve" smooth="yes"/>
      <point x="573" y="800"/>
      <point x="600" y="828"/>
      <point x="600" y="863" type="curve" smooth="yes"/>
      <point x="600" y="863"/>
      <point x="600" y="1117"/>
      <point x="600" y="1117" type="curve" smooth="yes"/>
      <point x="600" y="1152"/>
      <point x="573" y="1180"/>
      <point x="538" y="1180" type="curve" smooth="yes"/>
      <point x="538" y="1180"/>
      <point x="393" y="1180"/>
      <point x="393" y="1180" type="curve" smooth="yes"/>
      <point x="358" y="1180"/>
      <point x="330" y="1152"/>
      <point x="330" y="1117" type="curve" smooth="yes"/>
      <point x="330" y="1117"/>
      <point x="330" y="863"/>
      <point x="330" y="863" type="curve" smooth="yes"/>
      <point x="330" y="828"/>
      <point x="358" y="800"/>
      <point x="393" y="800" type="curve" smooth="yes"/>
      <point x="393" y="800"/>
      <point x="538" y="800"/>
    </contour>
  </outline>
</glyph>
<glyph name="colon" format="1">
  <advance width="430"/>
  <unicode hex="003A"/>
  <outline>
    <contour>
      <point x="100" y="500" type="curve"/>
      <point x="100" y="500"/>
      <point x="330" y="500"/>
      <point x="330" y="500" type="curve"/>
      <point x="330" y="500"/>
      <point x="330" y="270"/>
      <point x="330" y="270" type="curve"/>
      <point x="330" y="270"/>
      <point x="100" y="270"/>
      <point x="100" y="270" type="curve"/>
      <point x="100" y="270"/>
      <point x="100" y="500"/>
    </contour>
    <contour>
      <point x="100" y="1130" type="curve"/>
      <point x="100" y="1130"/>
      <point x="330" y="1130"/>
      <point x="330" y="1130" type="curve"/>
      <point x="330" y="1130"/>
      <point x="330" y="900"/>
      <point x="330" y="900" type="curve"/>
      <point x="330" y="900"/>
      <point x="100" y="900"/>
      <point x="100" y="900" type="curve"/>
      <point x="100" y="900"/>
      <point x="100" y="1130"/>
    </contour>
  </outline>
</glyph>
<glyph name="less" format="1">
  <advance width="900"/>
  <unicode hex="003C"/>
  <outline>
    <contour>
      <point x="800" y="230" type="curve"/>
      <point x="800" y="230"/>
      <point x="100" y="580"/>
      <point x="100" y="580" type="curve"/>
      <point x="100" y="580"/>
      <point x="100" y="820"/>
      <point x="100" y="820" type="curve"/>
      <point x="100" y="820"/>
      <point x="800" y="1170"/>
      <point x="800" y="1170" type="curve"/>
      <point x="800" y="1170"/>
      <point x="800" y="960"/>
      <point x="800" y="960" type="curve"/>
      <point x="800" y="960"/>
      <point x="294" y="700"/>
      <point x="294" y="700" type="curve"/>
      <point x="294" y="700"/>
      <point x="800" y="440"/>
      <point x="800" y="440" type="curve"/>
      <point x="800" y="440"/>
      <point x="800" y="230"/>
    </contour>
  </outline>
</glyph>
<glyph name="equal" format="1">
  <advance width="1000"/>
  <unicode hex="003D"/>
  <outline>
    <contour>
      <point x="100" y="1010" type="curve"/>
      <point x="100" y="1010"/>
      <point x="900" y="1010"/>
      <point x="900" y="1010" type="curve"/>
      <point x="900" y="1010"/>
      <point x="900" y="790"/>
      <point x="900" y="790" type="curve"/>
      <point x="900" y="790"/>
      <point x="100" y="790"/>
      <point x="100" y="790" type="curve"/>
      <point x="100" y="790"/>
      <point x="100" y="1010"/>
    </contour>
    <contour>
      <point x="100" y="610" type="curve"/>
      <point x="100" y="610"/>
      <point x="900" y="610"/>
      <point x="900" y="610" type="curve"/>
      <point x="900" y="610"/>
      <point x="900" y="390"/>
      <point x="900" y="390" type="curve"/>
      <point x="900" y="390"/>
      <point x="100" y="390"/>
      <point x="100" y="390" type="curve"/>
      <point x="100" y="390"/>
      <point x="100" y="610"/>
    </contour>
  </outline>
</glyph>
<glyph name="greater" format="1">
  <advance width="900"/>
  <unicode hex="003E"/>
  <outline>
    <contour>
      <point x="800" y="580" type="curve"/>
      <point x="800" y="580"/>
      <point x="100" y="230"/>
      <point x="100" y="230" type="curve"/>
      <point x="100" y="230"/>
      <point x="100" y="440"/>
      <point x="100" y="440" type="curve"/>
      <point x="100" y="440"/>
      <point x="606" y="700"/>
      <point x="606" y="700" type="curve"/>
      <point x="606" y="700"/>
      <point x="100" y="960"/>
      <point x="100" y="960" type="curve"/>
      <point x="100" y="960"/>
      <point x="100" y="1170"/>
      <point x="100" y="1170" type="curve"/>
      <point x="100" y="1170"/>
      <point x="800" y="820"/>
      <point x="800" y="820" type="curve"/>
      <point x="800" y="820"/>
      <point x="800" y="580"/>
    </contour>
  </outline>
</glyph>
<glyph name="G" format="1">
  <advance width="932"/>
  <unicode hex="0047"/>
  <outline>
    <contour>
      <point x="100" y="145" type="curve" smooth="yes"/>
      <point x="100" y="145"/>
      <point x="100" y="1255"/>
      <point x="100" y="1255" type="curve" smooth="yes"/>
      <point x="100" y="1335"/>
      <point x="165" y="1400"/>
      <point x="245" y="1400" type="curve" smooth="yes"/>
      <point x="245" y="1400"/>
      <point x="685" y="1400"/>
      <point x="685" y="1400" type="curve" smooth="yes"/>
      <point x="765" y="1400"/>
      <point x="830" y="1335"/>
      <point x="830" y="1255" type="curve" smooth="yes"/>
      <point x="830" y="1255"/>
      <point x="830" y="955"/>
      <point x="830" y="955" type="curve"/>
      <point x="830" y="955"/>
      <point x="600" y="955"/>
      <point x="600" y="955" type="curve"/>
      <point x="600" y="955"/>
      <point x="600" y="1152"/>
      <point x="600" y="1152" type="curve"/>
      <point x="600" y="1152"/>
      <point x="350" y="1152"/>
      <point x="350" y="1152" type="curve"/>
      <point x="350" y="1152"/>
      <point x="350" y="248"/>
      <point x="350" y="248" type="curve"/>
      <point x="350" y="248"/>
      <point x="537" y="248"/>
      <point x="537" y="248" type="curve" smooth="yes"/>
      <point x="572" y="248"/>
      <point x="600" y="276"/>
      <point x="600" y="311" type="curve" smooth="yes"/>
      <point x="600" y="311"/>
      <point x="600" y="470"/>
      <point x="600" y="470" type="curve"/>
      <point x="600" y="470"/>
      <point x="480" y="470"/>
      <point x="480" y="470" type="curve"/>
      <point x="480" y="470"/>
      <point x="480" y="700"/>
      <point x="480" y="700" type="curve"/>
      <point x="480" y="700"/>
      <point x="830" y="700"/>
      <point x="830" y="700" type="curve"/>
      <point x="830" y="700"/>
      <point x="830" y="144"/>
      <point x="830" y="144" type="curve" smooth="yes"/>
      <point x="830" y="89"/>
      <point x="859" y="42"/>
      <point x="904" y="18" type="curve" smooth="yes"/>
      <point x="907" y="16"/>
      <point x="912" y="14"/>
      <point x="912" y="8" type="curve" smooth="yes"/>
      <point x="912" y="2"/>
      <point x="909" y="0"/>
      <point x="904" y="0" type="curve" smooth="yes"/>
      <point x="904" y="0"/>
      <point x="826" y="0"/>
      <point x="826" y="0" type="curve" smooth="yes"/>
      <point x="746" y="0"/>
      <point x="681" y="66"/>
      <point x="680" y="148" type="curve"/>
      <point x="680" y="148"/>
      <point x="678" y="148"/>
      <point x="678" y="148" type="curve"/>
      <point x="678" y="148"/>
      <point x="678" y="140"/>
      <point x="678" y="140" type="curve" smooth="yes"/>
      <point x="678" y="62"/>
      <point x="614" y="0"/>
      <point x="536" y="0" type="curve" smooth="yes"/>
      <point x="526" y="0"/>
      <point x="245" y="0"/>
      <point x="245" y="0" type="curve" smooth="yes"/>
      <point x="165" y="0"/>
      <point x="100" y="65"/>
    </contour>
  </outline>
</glyph>
<glyph name="H" format="1">
  <advance width="970"/>
  <unicode hex="0048"/>
  <outline>
    <contour>
      <point x="350" y="0" type="curve"/>
      <point x="350" y="0"/>
      <point x="100" y="0"/>
      <point x="100" y="0" type="curve"/>
      <point x="100" y="0"/>
      <point x="100" y="1400"/>
      <point x="100" y="1400" type="curve"/>
      <point x="100" y="1400"/>
      <point x="350" y="1400"/>
      <point x="350" y="1400" type="curve"/>
      <point x="350" y="1400"/>
      <point x="350" y="810"/>
      <point x="350" y="810" type="curve"/>
      <point x="350" y="810"/>
      <point x="620" y="810"/>
      <point x="620" y="810" type="curve"/>
      <point x="620" y="810"/>
      <point x="620" y="1400"/>
      <point x="620" y="1400" type="curve"/>
      <point x="620" y="1400"/>
      <point x="870" y="1400"/>
      <point x="870" y="1400" type="curve"/>
      <point x="870" y="1400"/>
      <point x="870" y="0"/>
      <point x="870" y="0" type="curve"/>
      <point x="870" y="0"/>
      <point x="620" y="0"/>
      <point x="620" y="0" type="curve"/>
      <point x="620" y="0"/>
      <point x="620" y="570"/>
      <point x="620" y="570" type="curve"/>
      <point x="620" y="570"/>
      <point x="350" y="570"/>
      <point x="350" y="570" type="curve"/>
      <point x="350" y="570"/>
      <point x="350" y="0"/>
    </contour>
  </outline>
</glyph>
<glyph name="K" format="1">
  <advance width="950"/>
  <unicode hex="004B"/>
  <outline>
    <contour>
      <point x="579" y="714" type="curve"/>
      <point x="579" y="714"/>
      <point x="900" y="0"/>
      <point x="900" y="0" type="curve"/>
      <point x="900" y="0"/>
      <point x="640" y="0"/>
      <point x="640" y="0" type="curve"/>
      <point x="640" y="0"/>
      <point x="368" y="603"/>
      <point x="368" y="603" type="curve"/>
      <point x="368" y="603"/>
      <point x="350" y="603"/>
      <point x="350" y="603" type="curve"/>
      <point x="350" y="603"/>
      <point x="350" y="0"/>
      <point x="350" y="0" type="curve"/>
      <point x="350" y="0"/>
      <point x="100" y="0"/>
      <point x="100" y="0" type="curve"/>
      <point x="100" y="0"/>
      <point x="100" y="1400"/>
      <point x="100" y="1400" type="curve"/>
      <point x="100" y="1400"/>
      <point x="350" y="1400"/>
      <point x="350" y="1400" type="curve"/>
      <point x="350" y="1400"/>
      <point x="350" y="813"/>
      <point x="350" y="813" type="curve"/>
      <point x="350" y="813"/>
      <point x="367" y="813"/>
      <point x="367" y="813" type="curve"/>
      <point x="367" y="813"/>
      <point x="620" y="1400"/>
      <point x="620" y="1400" type="curve"/>
      <point x="620" y="1400"/>
      <point x="880" y="1400"/>
      <point x="880" y="1400" type="curve"/>
      <point x="880" y="1400"/>
      <point x="579" y="714"/>
    </contour>
  </outline>
</glyph>
<glyph name="L" format="1">
  <advance width="880"/>
  <unicode hex="004C"/>
  <outline>
    <contour>
      <point x="350" y="255" type="curve"/>
      <point x="350" y="255"/>
      <point x="800" y="255"/>
      <point x="800" y="255" type="curve"/>
      <point x="800" y="255"/>
      <point x="800" y="0"/>
      <point x="800" y="0" type="curve"/>
      <point x="800" y="0"/>
      <point x="100" y="0"/>
      <point x="100" y="0" type="curve"/>
      <point x="100" y="0"/>
      <point x="100" y="1400"/>
      <point x="100" y="1400" type="curve"/>
      <point x="100" y="1400"/>
      <point x="350" y="1400"/>
      <point x="350" y="1400" type="curve"/>
      <point x="350" y="1400"/>
      <point x="350" y="255"/>
    </contour>
  </outline>
</glyph>
<glyph name="N" format="1">
  <advance width="980"/>
  <unicode hex="004E"/>
  <outline>
    <contour>
      <point x="640" y="610" type="curve"/>
      <point x="640" y="610"/>
      <point x="640" y="1400"/>
      <point x="640" y="1400" type="curve"/>
      <point x="640" y="1400"/>
      <point x="880" y="1400"/>
      <point x="880" y="1400" type="curve"/>
      <point x="880" y="1400"/>
      <point x="880" y="0"/>
      <point x="880" y="0" type="curve"/>
      <point x="880" y="0"/>
      <point x="670" y="0"/>
      <point x="670" y="0" type="curve"/>
      <point x="670" y="0"/>
      <point x="330" y="754"/>
      <point x="330" y="754" type="curve"/>
      <point x="330" y="754"/>
      <point x="330" y="0"/>
      <point x="330" y="0" type="curve"/>
      <point x="330" y="0"/>
      <point x="100" y="0"/>
      <point x="100" y="0" type="curve"/>
      <point x="100" y="0"/>
      <point x="100" y="1400"/>
      <point x="100" y="1400" type="curve"/>
      <point x="100" y="1400"/>
      <point x="310" y="1400"/>
      <point x="310" y="1400" type="curve"/>
      <point x="310" y="1400"/>
      <point x="640" y="610"/>
    </contour>
  </outline>
</glyph>
<glyph name="P" format="1">
  <advance width="890"/>
  <unicode hex="0050"/>
  <outline>
    <contour>
      <point x="810" y="1260" type="curve" smooth="yes"/>
      <point x="810" y="1260"/>
      <point x="810" y="665"/>
      <point x="810" y="665" type="curve" smooth="yes"/>
      <point x="810" y="585"/>
      <point x="745" y="520"/>
      <point x="665" y="520" type="curve" smooth="yes"/>
      <point x="665" y="520"/>
      <point x="350" y="520"/>
      <point x="350" y="520" type="curve"/>
      <point x="350" y="520"/>
      <point x="350" y="0"/>
      <point x="350" y="0" type="curve"/>
      <point x="350" y="0"/>
      <point x="100" y="0"/>
      <point x="100" y="0" type="curve"/>
      <point x="100" y="0"/>
      <point x="100" y="1400"/>
      <point x="100" y="1400" type="curve"/>
      <point x="100" y="1400"/>
      <point x="670" y="1400"/>
      <point x="670" y="1400" type="curve" smooth="yes"/>
      <point x="747" y="1400"/>
      <point x="810" y="1337"/>
    </contour>
    <contour>
      <point x="350" y="770" type="curve"/>
      <point x="350" y="770"/>
      <point x="560" y="770"/>
      <point x="560" y="770" type="curve"/>
      <point x="560" y="770"/>
      <point x="560" y="1160"/>
      <point x="560" y="1160" type="curve"/>
      <point x="560" y="1160"/>
      <point x="350" y="1160"/>
      <point x="350" y="1160" type="curve"/>
      <point x="350" y="1160"/>
      <point x="350" y="770"/>
    </contour>
  </outline>
</glyph>
<glyph name="R" format="1">
  <advance width="883"/>
  <unicode hex="0052"/>
  <outline>
    <contour>
      <point x="350" y="0" type="curve"/>
      <point x="350" y="0"/>
      <point x="100" y="0"/>
      <point x="100" y="0" type="curve"/>
      <point x="100" y="0"/>
      <point x="100" y="1400"/>
      <point x="100" y="1400" type="curve"/>
      <point x="100" y="1400"/>
      <point x="635" y="1400"/>
      <point x="635" y="1400" type="curve" smooth="yes"/>
      <point x="715" y="1400"/>
      <point x="780" y="1335"/>
      <point x="780" y="1255" type="curve" smooth="yes"/>
      <point x="780" y="1255"/>
      <point x="780" y="745"/>
      <point x="780" y="745" type="curve" smooth="yes"/>
      <point x="780" y="697"/>
      <point x="756" y="652"/>
      <point x="716" y="625" type="curve"/>
      <point x="756" y="598"/>
      <point x="780" y="553"/>
      <point x="780" y="505" type="curve" smooth="yes"/>
      <point x="780" y="505"/>
      <point x="780" y="144"/>
      <point x="780" y="144" type="curve" smooth="yes"/>
      <point x="780" y="91"/>
      <point x="809" y="43"/>
      <point x="855" y="18" type="curve" smooth="yes"/>
      <point x="858" y="16"/>
      <point x="863" y="14"/>
      <point x="863" y="8" type="curve" smooth="yes"/>
      <point x="863" y="2"/>
      <point x="860" y="0"/>
      <point x="855" y="0" type="curve" smooth="yes"/>
      <point x="855" y="0"/>
      <point x="684" y="0"/>
      <point x="684" y="0" type="curve" smooth="yes"/>
      <point x="604" y="0"/>
      <point x="540" y="64"/>
      <point x="540" y="144" type="curve" smooth="yes"/>
      <point x="540" y="144"/>
      <point x="540" y="520"/>
      <point x="540" y="520" type="curve"/>
      <point x="540" y="520"/>
      <point x="350" y="520"/>
      <point x="350" y="520" type="curve"/>
      <point x="350" y="520"/>
      <point x="350" y="0"/>
    </contour>
    <contour>
      <point x="350" y="740" type="curve"/>
      <point x="350" y="740"/>
      <point x="540" y="740"/>
      <point x="540" y="740" type="curve"/>
      <point x="540" y="740"/>
      <point x="540" y="1150"/>
      <point x="540" y="1150" type="curve"/>
      <point x="540" y="1150"/>
      <point x="350" y="1150"/>
      <point x="350" y="1150" type="curve"/>
      <point x="350" y="1150"/>
      <point x="350" y="740"/>
    </contour>
  </outline>
</glyph>
<glyph name="bracketleft" format="1">
  <advance width="650"/>
  <unicode hex="005B"/>
  <outline>
    <contour>
      <point x="640" y="1400" type="curve"/>
      <point x="640" y="1400"/>
      <point x="330" y="1400"/>
      <point x="330" y="1400" type="curve"/>
      <point x="330" y="1400"/>
      <point x="330" y="0"/>
      <point x="330" y="0" type="curve"/>
      <point x="330" y="0"/>
      <point x="640" y="0"/>
      <point x="640" y="0" type="curve"/>
      <point x="640" y="0"/>
      <point x="640" y="-200"/>
      <point x="640" y="-200" type="curve"/>
      <point x="640" y="-200"/>
      <point x="100" y="-200"/>
      <point x="100" y="-200" type="curve"/>
      <point x="100" y="-200"/>
      <point x="100" y="1600"/>
      <point x="100" y="1600" type="curve"/>
      <point x="100" y="1600"/>
      <point x="640" y="1600"/>
      <point x="640" y="1600" type="curve"/>
      <point x="640" y="1600"/>
      <point x="640" y="1400"/>
    </contour>
  </outline>
</glyph>
<glyph name="backslash" format="1">
  <advance width="800"/>
  <unicode hex="005C"/>
  <outline>
    <contour>
      <point x="700" y="0" type="curve"/>
      <point x="700" y="0"/>
      <point x="460" y="0"/>
      <point x="460" y="0" type="curve"/>
      <point x="460" y="0"/>
      <point x="100" y="1400"/>
      <point x="100" y="1400" type="curve"/>
      <point x="100" y="1400"/>
      <point x="347" y="1400"/>
      <point x="347" y="1400" type="curve"/>
      <point x="347" y="1400"/>
      <point x="700" y="0"/>
    </contour>
  </outline>
</glyph>
<glyph name="bracketright" format="1">
  <advance width="650"/>
  <unicode hex="005D"/>
  <outline>
    <contour>
      <point x="10" y="1400" type="curve"/>
      <point x="10" y="1400"/>
      <point x="10" y="1600"/>
      <point x="10" y="1600" type="curve"/>
      <point x="10" y="1600"/>
      <point x="550" y="1600"/>
      <point x="550" y="1600" type="curve"/>
      <point x="550" y="1600"/>
      <point x="550" y="-200"/>
      <point x="550" y="-200" type="curve"/>
      <point x="550" y="-200"/>
      <point x="10" y="-200"/>
      <point x="10" y="-200" type="curve"/>
      <point x="10" y="-200"/>
      <point x="10" y="0"/>
      <point x="10" y="0" type="curve"/>
      <point x="10" y="0"/>
      <point x="320" y="0"/>
      <point x="320" y="0" type="curve"/>
      <point x="320" y="0"/>
      <point x="320" y="1400"/>
      <point x="320" y="1400" type="curve"/>
      <point x="320" y="1400"/>
      <point x="10" y="1400"/>
    </contour>
  </outline>
</glyph>
<glyph name="asciicircum" format="1">
  <advance width="935"/>
  <unicode hex="005E"/>
  <outline>
    <contour>
      <point x="350" y="1450" type="curve"/>
      <point x="350" y="1450"/>
      <point x="585" y="1450"/>
      <point x="585" y="1450" type="curve"/>
      <point x="585" y="1450"/>
      <point x="835" y="950"/>
      <point x="835" y="950" type="curve"/>
      <point x="835" y="950"/>
      <point x="625" y="950"/>
      <point x="625" y="950" type="curve"/>
      <point x="625" y="950"/>
      <point x="468" y="1253"/>
      <point x="468" y="1253" type="curve"/>
      <point x="468" y="1253"/>
      <point x="310" y="950"/>
      <point x="310" y="950" type="curve"/>
      <point x="310" y="950"/>
      <point x="100" y="950"/>
      <point x="100" y="950" type="curve"/>
      <point x="100" y="950"/>
      <point x="350" y="1450"/>
    </contour>
  </outline>
</glyph>
<glyph name="underscore" format="1">
  <advance width="1000"/>
  <unicode hex="005F"/>
  <outline>
    <contour>
      <point x="100" y="0" type="curve"/>
      <point x="100" y="0"/>
      <point x="900" y="0"/>
      <point x="900" y="0" type="curve"/>
      <point x="900" y="0"/>
      <point x="900" y="-200"/>
      <point x="900" y="-200" type="curve"/>
      <point x="900" y="-200"/>
      <point x="100" y="-200"/>
      <point x="100" y="-200" type="curve"/>
      <point x="100" y="-200"/>
      <point x="100" y="0"/>
    </contour>
  </outline>
</glyph>
<glyph name="grave" format="1">
  <advance width="600"/>
  <unicode hex="0060"/>
  <outline>
    <contour>
      <point x="360" y="1450" type="curve"/>
      <point x="360" y="1450"/>
      <point x="500" y="1050"/>
      <point x="500" y="1050" type="curve"/>
      <point x="500" y="1050"/>
      <point x="300" y="1050"/>
      <point x="300" y="1050" type="curve"/>
      <point x="300" y="1050"/>
      <point x="100" y="1450"/>
      <point x="100" y="1450" type="curve"/>
      <point x="100" y="1450"/>
      <point x="360" y="1450"/>
    </contour>
  </outline>
</glyph>
<glyph name="a" format="1">
  <advance width="940"/>
  <unicode hex="0061"/>
  <outline>
    <contour>
      <point x="230" y="0" type="curve"/>
      <point x="230" y="0"/>
      <point x="0" y="0"/>
      <point x="0" y="0" type="curve"/>
      <point x="0" y="0"/>
      <point x="350" y="1400"/>
      <point x="350" y="1400" type="curve"/>
      <point x="350" y="1400"/>
      <point x="590" y="1400"/>
      <point x="590" y="1400" type="curve"/>
      <point x="590" y="1400"/>
      <point x="940" y="0"/>
      <point x="940" y="0" type="curve"/>
      <point x="940" y="0"/>
      <point x="710" y="0"/>
      <point x="710" y="0" type="curve"/>
      <point x="710" y="0"/>
      <point x="644" y="260"/>
      <point x="644" y="260" type="curve"/>
      <point x="644" y="260"/>
      <point x="296" y="260"/>
      <point x="296" y="260" type="curve"/>
      <point x="296" y="260"/>
      <point x="230" y="0"/>
    </contour>
    <contour>
      <point x="349" y="470" type="curve"/>
      <point x="349" y="470"/>
      <point x="591" y="470"/>
      <point x="591" y="470" type="curve"/>
      <point x="591" y="470"/>
      <point x="470" y="945"/>
      <point x="470" y="945" type="curve"/>
      <point x="470" y="945"/>
      <point x="349" y="470"/>
    </contour>
  </outline>
</glyph>
<glyph name="b" format="1">
  <advance width="880"/>
  <unicode hex="0062"/>
  <outline>
    <contour>
      <point x="100" y="0" type="curve"/>
      <point x="100" y="0"/>
      <point x="100" y="1400"/>
      <point x="100" y="1400" type="curve"/>
      <point x="100" y="1400"/>
      <point x="635" y="1400"/>
      <point x="635" y="1400" type="curve" smooth="yes"/>
      <point x="715" y="1400"/>
      <point x="780" y="1335"/>
      <point x="780" y="1255" type="curve" smooth="yes"/>
      <point x="780" y="1255"/>
      <point x="780" y="835"/>
      <point x="780" y="835" type="curve" smooth="yes"/>
      <point x="780" y="775"/>
      <point x="743" y="722"/>
      <point x="688" y="700" type="curve"/>
      <point x="743" y="678"/>
      <point x="780" y="625"/>
      <point x="780" y="565" type="curve" smooth="yes"/>
      <point x="780" y="565"/>
      <point x="780" y="145"/>
      <point x="780" y="145" type="curve" smooth="yes"/>
      <point x="780" y="65"/>
      <point x="715" y="0"/>
      <point x="635" y="0" type="curve" smooth="yes"/>
      <point x="635" y="0"/>
      <point x="100" y="0"/>
    </contour>
    <contour>
      <point x="350" y="820" type="curve"/>
      <point x="350" y="820"/>
      <point x="550" y="820"/>
      <point x="550" y="820" type="curve"/>
      <point x="550" y="820"/>
      <point x="550" y="1160"/>
      <point x="550" y="1160" type="curve"/>
      <point x="550" y="1160"/>
      <point x="350" y="1160"/>
      <point x="350" y="1160" type="curve"/>
      <point x="350" y="1160"/>
      <point x="350" y="820"/>
    </contour>
    <contour>
      <point x="350" y="240" type="curve"/>
      <point x="350" y="240"/>
      <point x="550" y="240"/>
      <point x="550" y="240" type="curve"/>
      <point x="550" y="240"/>
      <point x="550" y="580"/>
      <point x="550" y="580" type="curve"/>
      <point x="550" y="580"/>
      <point x="350" y="580"/>
      <point x="350" y="580" type="curve"/>
      <point x="350" y="580"/>
      <point x="350" y="240"/>
    </contour>
  </outline>
</glyph>
<glyph name="e" format="1">
  <advance width="912"/>
  <unicode hex="0065"/>
  <outline>
    <contour>
      <point x="100" y="0" type="curve"/>
      <point x="100" y="0"/>
      <point x="100" y="1400"/>
      <point x="100" y="1400" type="curve"/>
      <point x="100" y="1400"/>
      <point x="810" y="1400"/>
      <point x="810" y="1400" type="curve"/>
      <point x="810" y="1400"/>
      <point x="810" y="1170"/>
      <point x="810" y="1170" type="curve"/>
      <point x="810" y="1170"/>
      <point x="350" y="1170"/>
      <point x="350" y="1170" type="curve"/>
      <point x="350" y="1170"/>
      <point x="350" y="820"/>
      <point x="350" y="820" type="curve"/>
      <point x="350" y="820"/>
      <point x="730" y="820"/>
      <point x="730" y="820" type="curve"/>
      <point x="730" y="820"/>
      <point x="730" y="580"/>
      <point x="730" y="580" type="curve"/>
      <point x="730" y="580"/>
      <point x="350" y="580"/>
      <point x="350" y="580" type="curve"/>
      <point x="350" y="580"/>
      <point x="350" y="240"/>
      <point x="350" y="240" type="curve"/>
      <point x="350" y="240"/>
      <point x="812" y="240"/>
      <point x="812" y="240" type="curve"/>
      <point x="812" y="240"/>
      <point x="812" y="0"/>
      <point x="812" y="0" type="curve"/>
      <point x="812" y="0"/>
      <point x="100" y="0"/>
    </contour>
  </outline>
</glyph>
<glyph name="f" format="1">
  <advance width="860"/>
  <unicode hex="0066"/>
  <outline>
    <contour>
      <point x="350" y="0" type="curve"/>
      <point x="350" y="0"/>
      <point x="100" y="0"/>
      <point x="100" y="0" type="curve"/>
      <point x="100" y="0"/>
      <point x="100" y="1400"/>
      <point x="100" y="1400" type="curve"/>
      <point x="100" y="1400"/>
      <point x="810" y="1400"/>
      <point x="810" y="1400" type="curve"/>
      <point x="810" y="1400"/>
      <point x="810" y="1170"/>
      <point x="810" y="1170" type="curve"/>
      <point x="810" y="1170"/>
      <point x="350" y="1170"/>
      <point x="350" y="1170" type="curve"/>
      <point x="350" y="1170"/>
      <point x="350" y="820"/>
      <point x="350" y="820" type="curve"/>
      <point x="350" y="820"/>
      <point x="730" y="820"/>
      <point x="730" y="820" type="curve"/>
      <point x="730" y="820"/>
      <point x="730" y="580"/>
      <point x="730" y="580" type="curve"/>
      <point x="730" y="580"/>
      <point x="350" y="580"/>
      <point x="350" y="580" type="curve"/>
      <point x="350" y="580"/>
      <point x="350" y="0"/>
    </contour>
  </outline>
</glyph>
<glyph name="i" format="1">
  <advance width="450"/>
  <unicode hex="0069"/>
  <outline>
    <contour>
      <point x="100" y="1400" type="curve"/>
      <point x="100" y="1400"/>
      <point x="350" y="1400"/>
      <point x="350" y="1400" type="curve"/>
      <point x="350" y="1400"/>
      <point x="350" y="0"/>
      <point x="350" y="0" type="curve"/>
      <point x="350" y="0"/>
      <point x="100" y="0"/>
      <point x="100" y="0" type="curve"/>
      <point x="100" y="0"/>
      <point x="100" y="1400"/>
    </contour>
  </outline>
</glyph>
<glyph name="j" format="1">
  <advance width="910"/>
  <unicode hex="006A"/>
  <outline>
    <contour>
      <point x="100" y="145" type="curve" smooth="yes"/>
      <point x="100" y="145"/>
      <point x="100" y="430"/>
      <point x="100" y="430" type="curve"/>
      <point x="100" y="430"/>
      <point x="350" y="430"/>
      <point x="350" y="430" type="curve"/>
      <point x="350" y="430"/>
      <point x="350" y="260"/>
      <point x="350" y="260" type="curve"/>
      <point x="350" y="260"/>
      <point x="560" y="260"/>
      <point x="560" y="260" type="curve"/>
      <point x="560" y="260"/>
      <point x="560" y="1400"/>
      <point x="560" y="1400" type="curve"/>
      <point x="560" y="1400"/>
      <point x="810" y="1400"/>
      <point x="810" y="1400" type="curve"/>
      <point x="810" y="1400"/>
      <point x="810" y="145"/>
      <point x="810" y="145" type="curve" smooth="yes"/>
      <point x="810" y="65"/>
      <point x="745" y="0"/>
      <point x="665" y="0" type="curve" smooth="yes"/>
      <point x="665" y="0"/>
      <point x="245" y="0"/>
      <point x="245" y="0" type="curve" smooth="yes"/>
      <point x="165" y="0"/>
      <point x="100" y="65"/>
    </contour>
  </outline>
</glyph>
<glyph name="m" format="1">
  <advance width="1320"/>
  <unicode hex="006D"/>
  <outline>
    <contour>
      <point x="860" y="1400" type="curve"/>
      <point x="860" y="1400"/>
      <point x="1220" y="1400"/>
      <point x="1220" y="1400" type="curve"/>
      <point x="1220" y="1400"/>
      <point x="1220" y="0"/>
      <point x="1220" y="0" type="curve"/>
      <point x="1220" y="0"/>
      <point x="1000" y="0"/>
      <point x="1000" y="0" type="curve"/>
      <point x="1000" y="0"/>
      <point x="1000" y="1050"/>
      <point x="1000" y="1050" type="curve"/>
      <point x="1000" y="1050"/>
      <point x="750" y="0"/>
      <point x="750" y="0" type="curve"/>
      <point x="750" y="0"/>
      <point x="570" y="0"/>
      <point x="570" y="0" type="curve"/>
      <point x="570" y="0"/>
      <point x="320" y="1050"/>
      <point x="320" y="1050" type="curve"/>
      <point x="320" y="1050"/>
      <point x="320" y="0"/>
      <point x="320" y="0" type="curve"/>
      <point x="320" y="0"/>
      <point x="100" y="0"/>
      <point x="100" y="0" type="curve"/>
      <point x="100" y="0"/>
      <point x="100" y="1400"/>
      <point x="100" y="1400" type="curve"/>
      <point x="100" y="1400"/>
      <point x="460" y="1400"/>
      <point x="460" y="1400" type="curve"/>
      <point x="460" y="1400"/>
      <point x="660" y="482"/>
      <point x="660" y="482" type="curve"/>
      <point x="660" y="482"/>
      <point x="860" y="1400"/>
    </contour>
  </outline>
</glyph>
<glyph name="q" format="1">
  <advance width="940"/>
  <unicode hex="0071"/>
  <outline>
    <contour>
      <point x="100" y="145" type="curve" smooth="yes"/>
      <point x="100" y="145"/>
      <point x="100" y="1255"/>
      <point x="100" y="1255" type="curve" smooth="yes"/>
      <point x="100" y="1335"/>
      <point x="165" y="1400"/>
      <point x="245" y="1400" type="curve" smooth="yes"/>
      <point x="245" y="1400"/>
      <point x="695" y="1400"/>
      <point x="695" y="1400" type="curve" smooth="yes"/>
      <point x="775" y="1400"/>
      <point x="840" y="1335"/>
      <point x="840" y="1255" type="curve" smooth="yes"/>
      <point x="840" y="1255"/>
      <point x="840" y="145"/>
      <point x="840" y="145" type="curve" smooth="yes"/>
      <point x="840" y="67"/>
      <point x="778" y="0"/>
      <point x="700" y="0" type="curve"/>
      <point x="700" y="0"/>
      <point x="820" y="-150"/>
      <point x="820" y="-150" type="curve"/>
      <point x="820" y="-150"/>
      <point x="640" y="-250"/>
      <point x="640" y="-250" type="curve"/>
      <point x="640" y="-250"/>
      <point x="499" y="-21"/>
      <point x="499" y="-21" type="curve"/>
      <point x="499" y="-21"/>
      <point x="490" y="0"/>
      <point x="465" y="0" type="curve" smooth="yes"/>
      <point x="465" y="0"/>
      <point x="245" y="0"/>
      <point x="245" y="0" type="curve" smooth="yes"/>
      <point x="165" y="0"/>
      <point x="100" y="65"/>
    </contour>
    <contour>
      <point x="590" y="250" type="curve"/>
      <point x="590" y="250"/>
      <point x="590" y="1150"/>
      <point x="590" y="1150" type="curve"/>
      <point x="590" y="1150"/>
      <point x="350" y="1150"/>
      <point x="350" y="1150" type="curve"/>
      <point x="350" y="1150"/>
      <point x="350" y="250"/>
      <point x="350" y="250" type="curve"/>
      <point x="350" y="250"/>
      <point x="590" y="250"/>
    </contour>
  </outline>
</glyph>
<glyph name="y" format="1">
  <advance width="920"/>
  <unicode hex="0079"/>
  <outline>
    <contour>
      <point x="860" y="1400" type="curve"/>
      <point x="860" y="1400"/>
      <point x="585" y="506"/>
      <point x="585" y="506" type="curve"/>
      <point x="585" y="506"/>
      <point x="585" y="0"/>
      <point x="585" y="0" type="curve"/>
      <point x="585" y="0"/>
      <point x="335" y="0"/>
      <point x="335" y="0" type="curve"/>
      <point x="335" y="0"/>
      <point x="335" y="506"/>
      <point x="335" y="506" type="curve"/>
      <point x="335" y="506"/>
      <point x="60" y="1400"/>
      <point x="60" y="1400" type="curve"/>
      <point x="60" y="1400"/>
      <point x="310" y="1400"/>
      <point x="310" y="1400" type="curve"/>
      <point x="310" y="1400"/>
      <point x="460" y="810"/>
      <point x="460" y="810" type="curve"/>
      <point x="460" y="810"/>
      <point x="600" y="1400"/>
      <point x="600" y="1400" type="curve"/>
      <point x="600" y="1400"/>
      <point x="860" y="1400"/>
    </contour>
  </outline>
</glyph>
<glyph name="z" format="1">
  <advance width="890"/>
  <unicode hex="007A"/>
  <outline>
    <contour>
      <point x="90" y="1400" type="curve"/>
      <point x="90" y="1400"/>
      <point x="800" y="1400"/>
      <point x="800" y="1400" type="curve"/>
      <point x="800" y="1400"/>
      <point x="800" y="1240"/>
      <point x="800" y="1240" type="curve"/>
      <point x="800" y="1240"/>
      <point x="384" y="230"/>
      <point x="384" y="230" type="curve"/>
      <point x="384" y="230"/>
      <point x="800" y="230"/>
      <point x="800" y="230" type="curve"/>
      <point x="800" y="230"/>
      <point x="800" y="0"/>
      <point x="800" y="0" type="curve"/>
      <point x="800" y="0"/>
      <point x="90" y="0"/>
      <point x="90" y="0" type="curve"/>
      <point x="90" y="0"/>
      <point x="90" y="160"/>
      <point x="90" y="160" type="curve"/>
      <point x="90" y="160"/>
      <point x="529" y="1170"/>
      <point x="529" y="1170" type="curve"/>
      <point x="529" y="1170"/>
      <point x="90" y="1170"/>
      <point x="90" y="1170" type="curve"/>
      <point x="90" y="1170"/>
      <point x="90" y="1400"/>
    </contour>
  </outline>
</glyph>
<glyph name="braceleft" format="1">
  <advance width="730"/>
  <unicode hex="007B"/>
  <outline>
    <contour>
      <point x="100" y="775" type="curve"/>
      <point x="100" y="775"/>
      <point x="128" y="775"/>
      <point x="128" y="775" type="curve" smooth="yes"/>
      <point x="163" y="775"/>
      <point x="190" y="803"/>
      <point x="190" y="838" type="curve" smooth="yes"/>
      <point x="190" y="838"/>
      <point x="190" y="1130"/>
      <point x="190" y="1130" type="curve" smooth="yes"/>
      <point x="190" y="1377"/>
      <point x="393" y="1580"/>
      <point x="640" y="1580" type="curve" smooth="yes"/>
      <point x="640" y="1580"/>
      <point x="720" y="1580"/>
      <point x="720" y="1580" type="curve"/>
      <point x="720" y="1580"/>
      <point x="720" y="1400"/>
      <point x="720" y="1400" type="curve"/>
      <point x="720" y="1400"/>
      <point x="640" y="1400"/>
      <point x="640" y="1400" type="curve" smooth="yes"/>
      <point x="559" y="1400"/>
      <point x="420" y="1344"/>
      <point x="420" y="1190" type="curve" smooth="yes"/>
      <point x="420" y="1190"/>
      <point x="420" y="850"/>
      <point x="420" y="850" type="curve" smooth="yes"/>
      <point x="420" y="783"/>
      <point x="379" y="723"/>
      <point x="316" y="700" type="curve"/>
      <point x="379" y="676"/>
      <point x="420" y="617"/>
      <point x="420" y="550" type="curve" smooth="yes"/>
      <point x="420" y="550"/>
      <point x="420" y="210"/>
      <point x="420" y="210" type="curve" smooth="yes"/>
      <point x="420" y="56"/>
      <point x="559" y="0"/>
      <point x="640" y="0" type="curve" smooth="yes"/>
      <point x="640" y="0"/>
      <point x="720" y="0"/>
      <point x="720" y="0" type="curve"/>
      <point x="720" y="0"/>
      <point x="720" y="-180"/>
      <point x="720" y="-180" type="curve"/>
      <point x="720" y="-180"/>
      <point x="640" y="-180"/>
      <point x="640" y="-180" type="curve" smooth="yes"/>
      <point x="393" y="-180"/>
      <point x="190" y="23"/>
      <point x="190" y="270" type="curve" smooth="yes"/>
      <point x="190" y="270"/>
      <point x="190" y="562"/>
      <point x="190" y="562" type="curve" smooth="yes"/>
      <point x="190" y="597"/>
      <point x="163" y="625"/>
      <point x="128" y="625" type="curve" smooth="yes"/>
      <point x="128" y="625"/>
      <point x="100" y="625"/>
      <point x="100" y="625" type="curve"/>
      <point x="100" y="625"/>
      <point x="100" y="775"/>
    </contour>
  </outline>
</glyph>
<glyph name="nobreakspace" format="1">
  <advance width="580"/>
  <unicode hex="00A0"/>
  <outline>
    <contour>
      <point x="0" y="0" type="move" smooth="yes"/>
    </contour>
  </outline>
</glyph>
<glyph name="exclamdown" format="1">
  <advance width="450"/>
  <unicode hex="00A1"/>
  <outline>
    <contour>
      <point x="110" y="1170" type="curve"/>
      <point x="110" y="1170"/>
      <point x="110" y="1400"/>
      <point x="110" y="1400" type="curve"/>
      <point x="110" y="1400"/>
      <point x="340" y="1400"/>
      <point x="340" y="1400" type="curve"/>
      <point x="340" y="1400"/>
      <point x="340" y="1170"/>
      <point x="340" y="1170" type="curve"/>
      <point x="340" y="1170"/>
      <point x="110" y="1170"/>
    </contour>
    <contour>
      <point x="330" y="1010" type="curve"/>
      <point x="330" y="1010"/>
      <point x="350" y="520"/>
      <point x="350" y="520" type="curve"/>
      <point x="350" y="520"/>
      <point x="350" y="0"/>
      <point x="350" y="0" type="curve"/>
      <point x="350" y="0"/>
      <point x="100" y="0"/>
      <point x="100" y="0" type="curve"/>
      <point x="100" y="0"/>
      <point x="100" y="520"/>
      <point x="100" y="520" type="curve"/>
      <point x="100" y="520"/>
      <point x="120" y="1010"/>
      <point x="120" y="1010" type="curve"/>
      <point x="120" y="1010"/>
      <point x="330" y="1010"/>
    </contour>
  </outline>
</glyph>
<glyph name="cent" format="1">
  <advance width="690"/>
  <unicode hex="00A2"/>
  <outline>
    <contour>
      <point x="100" y="540" type="curve" smooth="yes"/>
      <point x="100" y="540"/>
      <point x="100" y="860"/>
      <point x="100" y="860" type="curve" smooth="yes"/>
      <point x="100" y="948"/>
      <point x="172" y="1020"/>
      <point x="260" y="1020" type="curve"/>
      <point x="260" y="1020"/>
      <point x="260" y="1200"/>
      <point x="260" y="1200" type="curve"/>
      <point x="260" y="1200"/>
      <point x="430" y="1200"/>
      <point x="430" y="1200" type="curve"/>
      <point x="430" y="1200"/>
      <point x="430" y="1020"/>
      <point x="430" y="1020" type="curve"/>
      <point x="518" y="1020"/>
      <point x="590" y="948"/>
      <point x="590" y="860" type="curve" smooth="yes"/>
      <point x="590" y="860"/>
      <point x="590" y="800"/>
      <point x="590" y="800" type="curve"/>
      <point x="590" y="800"/>
      <point x="430" y="800"/>
      <point x="430" y="800" type="curve"/>
      <point x="430" y="800"/>
      <point x="430" y="860"/>
      <point x="430" y="860" type="curve"/>
      <point x="430" y="860"/>
      <point x="260" y="860"/>
      <point x="260" y="860" type="curve"/>
      <point x="260" y="860"/>
      <point x="260" y="540"/>
      <point x="260" y="540" type="curve"/>
      <point x="260" y="540"/>
      <point x="430" y="540"/>
      <point x="430" y="540" type="curve"/>
      <point x="430" y="540"/>
      <point x="430" y="600"/>
      <point x="430" y="600" type="curve"/>
      <point x="430" y="600"/>
      <point x="590" y="600"/>
      <point x="590" y="600" type="curve"/>
      <point x="590" y="600"/>
      <point x="590" y="540"/>
      <point x="590" y="540" type="curve" smooth="yes"/>
      <point x="590" y="452"/>
      <point x="518" y="380"/>
      <point x="430" y="380" type="curve"/>
      <point x="430" y="380"/>
      <point x="430" y="200"/>
      <point x="430" y="200" type="curve"/>
      <point x="430" y="200"/>
      <point x="260" y="200"/>
      <point x="260" y="200" type="curve"/>
      <point x="260" y="200"/>
      <point x="260" y="380"/>
      <point x="260" y="380" type="curve"/>
      <point x="172" y="380"/>
      <point x="100" y="452"/>
    </contour>
  </outline>
</glyph>
<glyph name="sterling" format="1">
  <advance width="910"/>
  <unicode hex="00A3"/>
  <outline>
    <contour>
      <point x="810" y="1240" type="curve" smooth="yes"/>
      <point x="810" y="1240"/>
      <point x="810" y="1000"/>
      <point x="810" y="1000" type="curve"/>
      <point x="810" y="1000"/>
      <point x="580" y="1000"/>
      <point x="580" y="1000" type="curve"/>
      <point x="580" y="1000"/>
      <point x="580" y="1127"/>
      <point x="580" y="1127" type="curve" smooth="yes"/>
      <point x="580" y="1162"/>
      <point x="552" y="1190"/>
      <point x="517" y="1190" type="curve" smooth="yes"/>
      <point x="517" y="1190"/>
      <point x="383" y="1190"/>
      <point x="383" y="1190" type="curve" smooth="yes"/>
      <point x="348" y="1190"/>
      <point x="321" y="1162"/>
      <point x="321" y="1127" type="curve" smooth="yes"/>
      <point x="321" y="1127"/>
      <point x="321" y="1085"/>
      <point x="321" y="1078" type="curve" smooth="yes"/>
      <point x="321" y="922"/>
      <point x="414" y="875"/>
      <point x="448" y="700" type="curve"/>
      <point x="448" y="700"/>
      <point x="810" y="700"/>
      <point x="810" y="700" type="curve"/>
      <point x="810" y="700"/>
      <point x="810" y="500"/>
      <point x="810" y="500" type="curve"/>
      <point x="810" y="500"/>
      <point x="446" y="500"/>
      <point x="446" y="500" type="curve"/>
      <point x="446" y="500"/>
      <point x="376" y="200"/>
      <point x="376" y="200" type="curve"/>
      <point x="376" y="200"/>
      <point x="810" y="200"/>
      <point x="810" y="200" type="curve"/>
      <point x="810" y="200"/>
      <point x="810" y="0"/>
      <point x="810" y="0" type="curve"/>
      <point x="810" y="0"/>
      <point x="100" y="0"/>
      <point x="100" y="0" type="curve"/>
      <point x="100" y="0"/>
      <point x="214" y="500"/>
      <point x="214" y="500" type="curve"/>
      <point x="214" y="500"/>
      <point x="100" y="500"/>
      <point x="100" y="500" type="curve"/>
      <point x="100" y="500"/>
      <point x="100" y="700"/>
      <point x="100" y="700" type="curve"/>
      <point x="100" y="700"/>
      <point x="216" y="700"/>
      <point x="216" y="700" type="curve"/>
      <point x="182" y="834"/>
      <point x="100" y="865"/>
      <point x="100" y="1078" type="curve" smooth="yes"/>
      <point x="100" y="1078"/>
      <point x="100" y="1240"/>
      <point x="100" y="1240" type="curve" smooth="yes"/>
      <point x="100" y="1328"/>
      <point x="172" y="1400"/>
      <point x="260" y="1400" type="curve" smooth="yes"/>
      <point x="260" y="1400"/>
      <point x="650" y="1400"/>
      <point x="650" y="1400" type="curve" smooth="yes"/>
      <point x="738" y="1400"/>
      <point x="810" y="1328"/>
    </contour>
  </outline>
</glyph>
<glyph name="currency" format="1">
  <advance width="980"/>
  <unicode hex="00A4"/>
  <outline>
    <contour>
      <point x="580" y="380" type="curve" smooth="yes"/>
      <point x="580" y="380"/>
      <point x="400" y="380"/>
      <point x="400" y="380" type="curve" smooth="yes"/>
      <point x="327" y="380"/>
      <point x="263" y="429"/>
      <point x="245" y="500" type="curve"/>
      <point x="245" y="500"/>
      <point x="100" y="500"/>
      <point x="100" y="500" type="curve"/>
      <point x="100" y="500"/>
      <point x="100" y="640"/>
      <point x="100" y="640" type="curve"/>
      <point x="100" y="640"/>
      <point x="240" y="640"/>
      <point x="240" y="640" type="curve"/>
      <point x="240" y="640"/>
      <point x="240" y="760"/>
      <point x="240" y="760" type="curve"/>
      <point x="240" y="760"/>
      <point x="100" y="760"/>
      <point x="100" y="760" type="curve"/>
      <point x="100" y="760"/>
      <point x="100" y="900"/>
      <point x="100" y="900" type="curve"/>
      <point x="100" y="900"/>
      <point x="245" y="900"/>
      <point x="245" y="900" type="curve"/>
      <point x="263" y="971"/>
      <point x="327" y="1020"/>
      <point x="400" y="1020" type="curve" smooth="yes"/>
      <point x="400" y="1020"/>
      <point x="580" y="1020"/>
      <point x="580" y="1020" type="curve" smooth="yes"/>
      <point x="653" y="1020"/>
      <point x="717" y="971"/>
      <point x="735" y="900" type="curve"/>
      <point x="735" y="900"/>
      <point x="880" y="900"/>
      <point x="880" y="900" type="curve"/>
      <point x="880" y="900"/>
      <point x="880" y="760"/>
      <point x="880" y="760" type="curve"/>
      <point x="880" y="760"/>
      <point x="740" y="760"/>
      <point x="740" y="760" type="curve"/>
      <point x="740" y="760"/>
      <point x="740" y="640"/>
      <point x="740" y="640" type="curve"/>
      <point x="740" y="640"/>
      <point x="880" y="640"/>
      <point x="880" y="640" type="curve"/>
      <point x="880" y="640"/>
      <point x="880" y="500"/>
      <point x="880" y="500" type="curve"/>
      <point x="880" y="500"/>
      <point x="735" y="500"/>
      <point x="735" y="500" type="curve"/>
      <point x="717" y="429"/>
      <point x="653" y="380"/>
    </contour>
    <contour>
      <point x="400" y="540" type="curve"/>
      <point x="400" y="540"/>
      <point x="580" y="540"/>
      <point x="580" y="540" type="curve"/>
      <point x="580" y="540"/>
      <point x="580" y="860"/>
      <point x="580" y="860" type="curve"/>
      <point x="580" y="860"/>
      <point x="400" y="860"/>
      <point x="400" y="860" type="curve"/>
      <point x="400" y="860"/>
      <point x="400" y="540"/>
    </contour>
  </outline>
</glyph>
<glyph name="yen" format="1">
  <advance width="1000"/>
  <unicode hex="00A5"/>
  <outline>
    <contour>
      <point x="640" y="1400" type="curve"/>
      <point x="640" y="1400"/>
      <point x="900" y="1400"/>
      <point x="900" y="1400" type="curve"/>
      <point x="900" y="1400"/>
      <point x="684" y="699"/>
      <point x="684" y="699" type="curve"/>
      <point x="684" y="699"/>
      <point x="900" y="699"/>
      <point x="900" y="699" type="curve"/>
      <point x="900" y="699"/>
      <point x="900" y="499"/>
      <point x="900" y="499" type="curve"/>
      <point x="900" y="499"/>
      <point x="625" y="499"/>
      <point x="625" y="499" type="curve"/>
      <point x="625" y="499"/>
      <point x="625" y="399"/>
      <point x="625" y="399" type="curve"/>
      <point x="625" y="399"/>
      <point x="900" y="399"/>
      <point x="900" y="399" type="curve"/>
      <point x="900" y="399"/>
      <point x="900" y="199"/>
      <point x="900" y="199" type="curve"/>
      <point x="900" y="199"/>
      <point x="625" y="199"/>
      <point x="625" y="199" type="curve"/>
      <point x="625" y="199"/>
      <point x="625" y="0"/>
      <point x="625" y="0" type="curve"/>
      <point x="625" y="0"/>
      <point x="375" y="0"/>
      <point x="375" y="0" type="curve"/>
      <point x="375" y="0"/>
      <point x="375" y="199"/>
      <point x="375" y="199" type="curve"/>
      <point x="375" y="199"/>
      <point x="100" y="199"/>
      <point x="100" y="199" type="curve"/>
      <point x="100" y="199"/>
      <point x="100" y="399"/>
      <point x="100" y="399" type="curve"/>
      <point x="100" y="399"/>
      <point x="375" y="399"/>
      <point x="375" y="399" type="curve"/>
      <point x="375" y="399"/>
      <point x="375" y="499"/>
      <point x="375" y="499" type="curve"/>
      <point x="375" y="499"/>
      <point x="100" y="499"/>
      <point x="100" y="499" type="curve"/>
      <point x="100" y="499"/>
      <point x="100" y="699"/>
      <point x="100" y="699" type="curve"/>
      <point x="100" y="699"/>
      <point x="316" y="699"/>
      <point x="316" y="699" type="curve"/>
      <point x="316" y="699"/>
      <point x="100" y="1400"/>
      <point x="100" y="1400" type="curve"/>
      <point x="100" y="1400"/>
      <point x="350" y="1400"/>
      <point x="350" y="1400" type="curve"/>
      <point x="350" y="1400"/>
      <point x="500" y="790"/>
      <point x="500" y="790" type="curve"/>
      <point x="500" y="790"/>
      <point x="640" y="1400"/>
    </contour>
  </outline>
</glyph>
<glyph name="dieresis" format="1">
  <advance width="800"/>
  <unicode hex="00A8"/>
  <outline>
    <contour>
      <point x="100" y="1720" type="curve"/>
      <point x="100" y="1720"/>
      <point x="330" y="1720"/>
      <point x="330" y="1720" type="curve"/>
      <point x="330" y="1720"/>
      <point x="330" y="1490"/>
      <point x="330" y="1490" type="curve"/>
      <point x="330" y="1490"/>
      <point x="100" y="1490"/>
      <point x="100" y="1490" type="curve"/>
      <point x="100" y="1490"/>
      <point x="100" y="1720"/>
    </contour>
    <contour>
      <point x="470" y="1720" type="curve"/>
      <point x="470" y="1720"/>
      <point x="700" y="1720"/>
      <point x="700" y="1720" type="curve"/>
      <point x="700" y="1720"/>
      <point x="700" y="1490"/>
      <point x="700" y="1490" type="curve"/>
      <point x="700" y="1490"/>
      <point x="470" y="1490"/>
      <point x="470" y="1490" type="curve"/>
      <point x="470" y="1490"/>
      <point x="470" y="1720"/>
    </contour>
  </outline>
</glyph>
<glyph name="ordfeminine" format="1">
  <advance width="843"/>
  <unicode hex="00AA"/>
  <outline>
    <contour>
      <point x="680" y="1450" type="curve"/>
      <point x="680" y="1450"/>
      <point x="680" y="1033"/>
      <point x="680" y="1033" type="curve" smooth="yes"/>
      <point x="680" y="998"/>
      <point x="708" y="970"/>
      <point x="743" y="970" type="curve"/>
      <point x="743" y="970"/>
      <point x="743" y="810"/>
      <point x="743" y="810" type="curve"/>
      <point x="743" y="810"/>
      <point x="680" y="810"/>
      <point x="680" y="810" type="curve" smooth="yes"/>
      <point x="622" y="810"/>
      <point x="568" y="842"/>
      <point x="540" y="893" type="curve"/>
      <point x="512" y="842"/>
      <point x="458" y="810"/>
      <point x="400" y="810" type="curve" smooth="yes"/>
      <point x="400" y="810"/>
      <point x="260" y="810"/>
      <point x="260" y="810" type="curve" smooth="yes"/>
      <point x="172" y="810"/>
      <point x="100" y="882"/>
      <point x="100" y="970" type="curve" smooth="yes"/>
      <point x="100" y="970"/>
      <point x="100" y="1290"/>
      <point x="100" y="1290" type="curve" smooth="yes"/>
      <point x="100" y="1378"/>
      <point x="172" y="1450"/>
      <point x="260" y="1450" type="curve" smooth="yes"/>
      <point x="260" y="1450"/>
      <point x="390" y="1450"/>
      <point x="390" y="1450" type="curve" smooth="yes"/>
      <point x="442" y="1450"/>
      <point x="490" y="1425"/>
      <point x="520" y="1383" type="curve"/>
      <point x="520" y="1383"/>
      <point x="520" y="1450"/>
      <point x="520" y="1450" type="curve"/>
      <point x="520" y="1450"/>
      <point x="680" y="1450"/>
    </contour>
    <contour>
      <point x="458" y="970" type="curve" smooth="yes"/>
      <point x="493" y="970"/>
      <point x="520" y="998"/>
      <point x="520" y="1033" type="curve" smooth="yes"/>
      <point x="520" y="1033"/>
      <point x="520" y="1227"/>
      <point x="520" y="1227" type="curve" smooth="yes"/>
      <point x="520" y="1262"/>
      <point x="493" y="1290"/>
      <point x="458" y="1290" type="curve" smooth="yes"/>
      <point x="458" y="1290"/>
      <point x="323" y="1290"/>
      <point x="323" y="1290" type="curve" smooth="yes"/>
      <point x="288" y="1290"/>
      <point x="260" y="1262"/>
      <point x="260" y="1227" type="curve" smooth="yes"/>
      <point x="260" y="1227"/>
      <point x="260" y="1033"/>
      <point x="260" y="1033" type="curve" smooth="yes"/>
      <point x="260" y="998"/>
      <point x="288" y="970"/>
      <point x="323" y="970" type="curve" smooth="yes"/>
      <point x="323" y="970"/>
      <point x="458" y="970"/>
    </contour>
  </outline>
</glyph>
<glyph name="guillemotleft" format="1">
  <advance width="984"/>
  <unicode hex="00AB"/>
  <outline>
    <contour>
      <point x="301" y="700" type="curve"/>
      <point x="301" y="700"/>
      <point x="560" y="360"/>
      <point x="560" y="360" type="curve"/>
      <point x="560" y="360"/>
      <point x="372" y="360"/>
      <point x="372" y="360" type="curve"/>
      <point x="372" y="360"/>
      <point x="100" y="700"/>
      <point x="100" y="700" type="curve"/>
      <point x="100" y="700"/>
      <point x="372" y="1040"/>
      <point x="372" y="1040" type="curve"/>
      <point x="372" y="1040"/>
      <point x="560" y="1040"/>
      <point x="560" y="1040" type="curve"/>
      <point x="560" y="1040"/>
      <point x="301" y="700"/>
    </contour>
    <contour>
      <point x="884" y="1040" type="curve"/>
      <point x="884" y="1040"/>
      <point x="625" y="700"/>
      <point x="625" y="700" type="curve"/>
      <point x="625" y="700"/>
      <point x="884" y="360"/>
      <point x="884" y="360" type="curve"/>
      <point x="884" y="360"/>
      <point x="696" y="360"/>
      <point x="696" y="360" type="curve"/>
      <point x="696" y="360"/>
      <point x="424" y="700"/>
      <point x="424" y="700" type="curve"/>
      <point x="424" y="700"/>
      <point x="696" y="1040"/>
      <point x="696" y="1040" type="curve"/>
      <point x="696" y="1040"/>
      <point x="884" y="1040"/>
    </contour>
  </outline>
</glyph>
<glyph name="plusminus" format="1">
  <advance width="1000"/>
  <unicode hex="00B1"/>
  <outline>
    <contour>
      <point x="100" y="365" type="curve"/>
      <point x="100" y="365"/>
      <point x="900" y="365"/>
      <point x="900" y="365" type="curve"/>
      <point x="900" y="365"/>
      <point x="900" y="145"/>
      <point x="900" y="145" type="curve"/>
      <point x="900" y="145"/>
      <point x="100" y="145"/>
      <point x="100" y="145" type="curve"/>
      <point x="100" y="145"/>
      <point x="100" y="365"/>
    </contour>
    <contour>
      <point x="610" y="455" type="curve"/>
      <point x="610" y="455"/>
      <point x="390" y="455"/>
      <point x="390" y="455" type="curve"/>
      <point x="390" y="455"/>
      <point x="390" y="745"/>
      <point x="390" y="745" type="curve"/>
      <point x="390" y="745"/>
      <point x="100" y="745"/>
      <point x="100" y="745" type="curve"/>
      <point x="100" y="745"/>
      <point x="100" y="965"/>
      <point x="100" y="965" type="curve"/>
      <point x="100" y="965"/>
      <point x="390" y="965"/>
      <point x="390" y="965" type="curve"/>
      <point x="390" y="965"/>
      <point x="390" y="1255"/>
      <point x="390" y="1255" type="curve"/>
      <point x="390" y="1255"/>
      <point x="610" y="1255"/>
      <point x="610" y="1255" type="curve"/>
      <point x="610" y="1255"/>
      <point x="610" y="965"/>
      <point x="610" y="965" type="curve"/>
      <point x="610" y="965"/>
      <point x="900" y="965"/>
      <point x="900" y="965" type="curve"/>
      <point x="900" y="965"/>
      <point x="900" y="745"/>
      <point x="900" y="745" type="curve"/>
      <point x="900" y="745"/>
      <point x="610" y="745"/>
      <point x="610" y="745" type="curve"/>
      <point x="610" y="745"/>
      <point x="610" y="455"/>
    </contour>
  </outline>
</glyph>
<glyph name="acute" format="1">
  <advance width="600"/>
  <unicode hex="00B4"/>
  <outline>
    <contour>
      <point x="100" y="1400" type="curve"/>
      <point x="100" y="1400"/>
      <point x="240" y="1800"/>
      <point x="240" y="1800" type="curve"/>
      <point x="240" y="1800"/>
      <point x="500" y="1800"/>
      <point x="500" y="1800" type="curve"/>
      <point x="500" y="1800"/>
      <point x="300" y="1400"/>
      <point x="300" y="1400" type="curve"/>
      <point x="300" y="1400"/>
      <point x="100" y="1400"/>
    </contour>
  </outline>
</glyph>
<glyph name="mu" format="1">
  <advance width="843"/>
  <unicode hex="00B5"/>
  <outline>
    <contour>
      <point x="260" y="640" type="curve"/>
      <point x="260" y="640"/>
      <point x="260" y="223"/>
      <point x="260" y="223" type="curve" smooth="yes"/>
      <point x="260" y="188"/>
      <point x="288" y="160"/>
      <point x="323" y="160" type="curve" smooth="yes"/>
      <point x="323" y="160"/>
      <point x="458" y="160"/>
      <point x="458" y="160" type="curve" smooth="yes"/>
      <point x="493" y="160"/>
      <point x="520" y="188"/>
      <point x="520" y="223" type="curve" smooth="yes"/>
      <point x="520" y="223"/>
      <point x="520" y="640"/>
      <point x="520" y="640" type="curve"/>
      <point x="520" y="640"/>
      <point x="680" y="640"/>
      <point x="680" y="640" type="curve"/>
      <point x="680" y="640"/>
      <point x="680" y="223"/>
      <point x="680" y="223" type="curve" smooth="yes"/>
      <point x="680" y="188"/>
      <point x="708" y="160"/>
      <point x="743" y="160" type="curve"/>
      <point x="743" y="160"/>
      <point x="743" y="0"/>
      <point x="743" y="0" type="curve"/>
      <point x="743" y="0"/>
      <point x="680" y="0"/>
      <point x="680" y="0" type="curve" smooth="yes"/>
      <point x="622" y="0"/>
      <point x="568" y="32"/>
      <point x="540" y="83" type="curve"/>
      <point x="512" y="32"/>
      <point x="458" y="0"/>
      <point x="400" y="0" type="curve" smooth="yes"/>
      <point x="400" y="0"/>
      <point x="260" y="0"/>
      <point x="260" y="0" type="curve"/>
      <point x="260" y="0"/>
      <point x="260" y="-300"/>
      <point x="260" y="-300" type="curve"/>
      <point x="260" y="-300"/>
      <point x="100" y="-300"/>
      <point x="100" y="-300" type="curve"/>
      <point x="100" y="-300"/>
      <point x="100" y="640"/>
      <point x="100" y="640" type="curve"/>
      <point x="100" y="640"/>
      <point x="260" y="640"/>
    </contour>
  </outline>
</glyph>
<glyph name="paragraph" format="1">
  <advance width="1080"/>
  <unicode hex="00B6"/>
  <outline>
    <contour>
      <point x="450" y="0" type="curve"/>
      <point x="450" y="0"/>
      <point x="450" y="750"/>
      <point x="450" y="750" type="curve"/>
      <point x="450" y="750"/>
      <point x="240" y="750"/>
      <point x="240" y="750" type="curve" smooth="yes"/>
      <point x="162" y="753"/>
      <point x="100" y="817"/>
      <point x="100" y="895" type="curve" smooth="yes"/>
      <point x="100" y="895"/>
      <point x="100" y="1260"/>
      <point x="100" y="1260" type="curve" smooth="yes"/>
      <point x="100" y="1337"/>
      <point x="163" y="1400"/>
      <point x="240" y="1400" type="curve" smooth="yes"/>
      <point x="240" y="1400"/>
      <point x="980" y="1400"/>
      <point x="980" y="1400" type="curve"/>
      <point x="980" y="1400"/>
      <point x="980" y="0"/>
      <point x="980" y="0" type="curve"/>
      <point x="980" y="0"/>
      <point x="780" y="0"/>
      <point x="780" y="0" type="curve"/>
      <point x="780" y="0"/>
      <point x="780" y="1200"/>
      <point x="780" y="1200" type="curve"/>
      <point x="780" y="1200"/>
      <point x="650" y="1200"/>
      <point x="650" y="1200" type="curve"/>
      <point x="650" y="1200"/>
      <point x="650" y="0"/>
      <point x="650" y="0" type="curve"/>
      <point x="650" y="0"/>
      <point x="450" y="0"/>
    </contour>
  </outline>
</glyph>
<glyph name="periodcentered" format="1">
  <advance width="430"/>
  <unicode hex="00B7"/>
  <outline>
    <contour>
      <point x="100" y="815" type="curve"/>
      <point x="100" y="815"/>
      <point x="330" y="815"/>
      <point x="330" y="815" type="curve"/>
      <point x="330" y="815"/>
      <point x="330" y="585"/>
      <point x="330" y="585" type="curve"/>
      <point x="330" y="585"/>
      <point x="100" y="585"/>
      <point x="100" y="585" type="curve"/>
      <point x="100" y="585"/>
      <point x="100" y="815"/>
    </contour>
  </outline>
</glyph>
<glyph name="cedilla" format="1">
  <advance width="780"/>
  <unicode hex="00B8"/>
  <outline>
    <contour>
      <point x="600" y="0" type="curve"/>
      <point x="600" y="0"/>
      <point x="680" y="-80"/>
      <point x="680" y="-80" type="curve"/>
      <point x="680" y="-80"/>
      <point x="680" y="-230"/>
      <point x="680" y="-230" type="curve" smooth="yes"/>
      <point x="680" y="-318"/>
      <point x="608" y="-390"/>
      <point x="520" y="-390" type="curve" smooth="yes"/>
      <point x="520" y="-390"/>
      <point x="260" y="-390"/>
      <point x="260" y="-390" type="curve" smooth="yes"/>
      <point x="172" y="-390"/>
      <point x="100" y="-318"/>
      <point x="100" y="-230" type="curve" smooth="yes"/>
      <point x="100" y="-230"/>
      <point x="100" y="-155"/>
      <point x="100" y="-155" type="curve"/>
      <point x="100" y="-155"/>
      <point x="260" y="-155"/>
      <point x="260" y="-155" type="curve"/>
      <point x="260" y="-155"/>
      <point x="260" y="-167"/>
      <point x="260" y="-167" type="curve" smooth="yes"/>
      <point x="260" y="-202"/>
      <point x="288" y="-230"/>
      <point x="323" y="-230" type="curve" smooth="yes"/>
      <point x="323" y="-230"/>
      <point x="458" y="-230"/>
      <point x="458" y="-230" type="curve" smooth="yes"/>
      <point x="493" y="-230"/>
      <point x="520" y="-202"/>
      <point x="520" y="-167" type="curve" smooth="yes"/>
      <point x="520" y="-167"/>
      <point x="520" y="-150"/>
      <point x="520" y="-150" type="curve"/>
      <point x="520" y="-150"/>
      <point x="374" y="0"/>
      <point x="374" y="0" type="curve"/>
      <point x="374" y="0"/>
      <point x="600" y="0"/>
    </contour>
  </outline>
</glyph>
<glyph name="uni00B9" format="1">
  <advance width="380"/>
  <unicode hex="00B9"/>
  <outline>
    <contour>
      <point x="280" y="850" type="curve"/>
      <point x="280" y="850"/>
      <point x="177" y="850"/>
      <point x="177" y="850" type="curve"/>
      <point x="177" y="850"/>
      <point x="177" y="1305"/>
      <point x="177" y="1305" type="curve"/>
      <point x="177" y="1305"/>
      <point x="150" y="1278"/>
      <point x="100" y="1278" type="curve"/>
      <point x="100" y="1278"/>
      <point x="100" y="1395"/>
      <point x="100" y="1395" type="curve"/>
      <point x="152" y="1397"/>
      <point x="187" y="1450"/>
      <point x="187" y="1450" type="curve"/>
      <point x="187" y="1450"/>
      <point x="280" y="1450"/>
      <point x="280" y="1450" type="curve"/>
      <point x="280" y="1450"/>
      <point x="280" y="850"/>
    </contour>
  </outline>
</glyph>
<glyph name="onehalf" format="1">
  <advance width="970"/>
  <unicode hex="00BD"/>
  <outline>
    <contour>
      <point x="550" y="0" type="curve"/>
      <point x="550" y="0"/>
      <point x="550" y="50"/>
      <point x="550" y="50" type="curve" smooth="yes"/>
      <point x="550" y="192"/>
      <point x="774" y="348"/>
      <point x="774" y="430" type="curve" smooth="yes"/>
      <point x="774" y="436"/>
      <point x="774" y="457"/>
      <point x="774" y="475" type="curve" smooth="yes"/>
      <point x="773" y="489"/>
      <point x="761" y="500"/>
      <point x="747" y="500" type="curve" smooth="yes"/>
      <point x="747" y="500"/>
      <point x="685" y="500"/>
      <point x="685" y="500" type="curve" smooth="yes"/>
      <point x="670" y="500"/>
      <point x="658" y="488"/>
      <point x="658" y="473" type="curve" smooth="yes"/>
      <point x="658" y="473"/>
      <point x="658" y="430"/>
      <point x="658" y="430" type="curve"/>
      <point x="658" y="430"/>
      <point x="558" y="430"/>
      <point x="558" y="430" type="curve"/>
      <point x="558" y="430"/>
      <point x="558" y="530"/>
      <point x="558" y="530" type="curve" smooth="yes"/>
      <point x="558" y="569"/>
      <point x="589" y="600"/>
      <point x="628" y="600" type="curve" smooth="yes"/>
      <point x="628" y="600"/>
      <point x="800" y="600"/>
      <point x="800" y="600" type="curve" smooth="yes"/>
      <point x="839" y="600"/>
      <point x="870" y="569"/>
      <point x="870" y="530" type="curve" smooth="yes"/>
      <point x="870" y="530"/>
      <point x="870" y="410"/>
      <point x="870" y="410" type="curve" smooth="yes"/>
      <point x="870" y="318"/>
      <point x="724" y="209"/>
      <point x="682" y="110" type="curve"/>
      <point x="682" y="110"/>
      <point x="870" y="110"/>
      <point x="870" y="110" type="curve"/>
      <point x="870" y="110"/>
      <point x="870" y="0"/>
      <point x="870" y="0" type="curve"/>
      <point x="870" y="0"/>
      <point x="550" y="0"/>
    </contour>
    <contour>
      <point x="220" y="800" type="curve"/>
      <point x="220" y="800"/>
      <point x="220" y="1255"/>
      <point x="220" y="1255" type="curve"/>
      <point x="220" y="1255"/>
      <point x="193" y="1228"/>
      <point x="143" y="1228" type="curve"/>
      <point x="143" y="1228"/>
      <point x="143" y="1345"/>
      <point x="143" y="1345" type="curve"/>
      <point x="195" y="1347"/>
      <point x="230" y="1400"/>
      <point x="230" y="1400" type="curve"/>
      <point x="230" y="1400"/>
      <point x="323" y="1400"/>
      <point x="323" y="1400" type="curve"/>
      <point x="323" y="1400"/>
      <point x="323" y="800"/>
      <point x="323" y="800" type="curve"/>
      <point x="323" y="800"/>
      <point x="220" y="800"/>
    </contour>
    <contour>
      <point x="720" y="1400" type="curve"/>
      <point x="720" y="1400"/>
      <point x="870" y="1400"/>
      <point x="870" y="1400" type="curve"/>
      <point x="870" y="1400"/>
      <point x="250" y="0"/>
      <point x="250" y="0" type="curve"/>
      <point x="250" y="0"/>
      <point x="100" y="0"/>
      <point x="100" y="0" type="curve"/>
      <point x="100" y="0"/>
      <point x="720" y="1400"/>
    </contour>
  </outline>
</glyph>
<glyph name="threequarters" format="1">
  <advance width="970"/>
  <unicode hex="00BE"/>
  <outline>
    <contour>
      <point x="420" y="1170" type="curve" smooth="yes"/>
      <point x="420" y="1143"/>
      <point x="404" y="1118"/>
      <point x="380" y="1107" type="curve"/>
      <point x="380" y="1107"/>
      <point x="380" y="1093"/>
      <point x="380" y="1093" type="curve"/>
      <point x="404" y="1082"/>
      <point x="420" y="1057"/>
      <point x="420" y="1030" type="curve" smooth="yes"/>
      <point x="420" y="1030"/>
      <point x="420" y="870"/>
      <point x="420" y="870" type="curve" smooth="yes"/>
      <point x="420" y="831"/>
      <point x="389" y="800"/>
      <point x="350" y="800" type="curve" smooth="yes"/>
      <point x="350" y="800"/>
      <point x="170" y="800"/>
      <point x="170" y="800" type="curve" smooth="yes"/>
      <point x="131" y="800"/>
      <point x="100" y="831"/>
      <point x="100" y="870" type="curve" smooth="yes"/>
      <point x="100" y="870"/>
      <point x="100" y="970"/>
      <point x="100" y="970" type="curve"/>
      <point x="100" y="970"/>
      <point x="200" y="970"/>
      <point x="200" y="970" type="curve"/>
      <point x="200" y="970"/>
      <point x="200" y="927"/>
      <point x="200" y="927" type="curve" smooth="yes"/>
      <point x="200" y="912"/>
      <point x="212" y="900"/>
      <point x="227" y="900" type="curve" smooth="yes"/>
      <point x="227" y="900"/>
      <point x="293" y="900"/>
      <point x="293" y="900" type="curve" smooth="yes"/>
      <point x="308" y="900"/>
      <point x="320" y="912"/>
      <point x="320" y="927" type="curve" smooth="yes"/>
      <point x="320" y="927"/>
      <point x="320" y="1023"/>
      <point x="320" y="1023" type="curve" smooth="yes"/>
      <point x="320" y="1038"/>
      <point x="308" y="1050"/>
      <point x="293" y="1050" type="curve" smooth="yes"/>
      <point x="293" y="1050"/>
      <point x="220" y="1050"/>
      <point x="220" y="1050" type="curve"/>
      <point x="220" y="1050"/>
      <point x="220" y="1150"/>
      <point x="220" y="1150" type="curve"/>
      <point x="220" y="1150"/>
      <point x="293" y="1150"/>
      <point x="293" y="1150" type="curve" smooth="yes"/>
      <point x="308" y="1150"/>
      <point x="320" y="1162"/>
      <point x="320" y="1177" type="curve" smooth="yes"/>
      <point x="320" y="1177"/>
      <point x="320" y="1273"/>
      <point x="320" y="1273" type="curve" smooth="yes"/>
      <point x="320" y="1288"/>
      <point x="308" y="1300"/>
      <point x="293" y="1300" type="curve" smooth="yes"/>
      <point x="293" y="1300"/>
      <point x="227" y="1300"/>
      <point x="227" y="1300" type="curve" smooth="yes"/>
      <point x="212" y="1300"/>
      <point x="200" y="1288"/>
      <point x="200" y="1273" type="curve" smooth="yes"/>
      <point x="200" y="1273"/>
      <point x="200" y="1230"/>
      <point x="200" y="1230" type="curve"/>
      <point x="200" y="1230"/>
      <point x="100" y="1230"/>
      <point x="100" y="1230" type="curve"/>
      <point x="100" y="1230"/>
      <point x="100" y="1330"/>
      <point x="100" y="1330" type="curve" smooth="yes"/>
      <point x="100" y="1369"/>
      <point x="131" y="1400"/>
      <point x="170" y="1400" type="curve" smooth="yes"/>
      <point x="170" y="1400"/>
      <point x="350" y="1400"/>
      <point x="350" y="1400" type="curve" smooth="yes"/>
      <point x="389" y="1400"/>
      <point x="420" y="1369"/>
      <point x="420" y="1330" type="curve" smooth="yes"/>
      <point x="420" y="1330"/>
      <point x="420" y="1170"/>
    </contour>
    <contour>
      <point x="785" y="0" type="curve"/>
      <point x="785" y="0"/>
      <point x="685" y="0"/>
      <point x="685" y="0" type="curve"/>
      <point x="685" y="0"/>
      <point x="685" y="120"/>
      <point x="685" y="120" type="curve"/>
      <point x="685" y="120"/>
      <point x="485" y="120"/>
      <point x="485" y="120" type="curve"/>
      <point x="485" y="120"/>
      <point x="485" y="195"/>
      <point x="485" y="195" type="curve"/>
      <point x="485" y="195"/>
      <point x="665" y="600"/>
      <point x="665" y="600" type="curve"/>
      <point x="665" y="600"/>
      <point x="785" y="600"/>
      <point x="785" y="600" type="curve"/>
      <point x="785" y="600"/>
      <point x="785" y="210"/>
      <point x="785" y="210" type="curve"/>
      <point x="785" y="210"/>
      <point x="805" y="210"/>
      <point x="805" y="210" type="curve"/>
      <point x="805" y="210"/>
      <point x="805" y="120"/>
      <point x="805" y="120" type="curve"/>
      <point x="805" y="120"/>
      <point x="785" y="120"/>
      <point x="785" y="120" type="curve"/>
      <point x="785" y="120"/>
      <point x="785" y="0"/>
    </contour>
    <contour>
      <point x="685" y="210" type="curve"/>
      <point x="685" y="210"/>
      <point x="685" y="438"/>
      <point x="685" y="438" type="curve"/>
      <point x="685" y="438"/>
      <point x="587" y="210"/>
      <point x="587" y="210" type="curve"/>
      <point x="587" y="210"/>
      <point x="685" y="210"/>
    </contour>
    <contour>
      <point x="720" y="1400" type="curve"/>
      <point x="720" y="1400"/>
      <point x="870" y="1400"/>
      <point x="870" y="1400" type="curve"/>
      <point x="870" y="1400"/>
      <point x="250" y="0"/>
      <point x="250" y="0" type="curve"/>
      <point x="250" y="0"/>
      <point x="100" y="0"/>
      <point x="100" y="0" type="curve"/>
      <point x="100" y="0"/>
      <point x="720" y="1400"/>
    </contour>
  </outline>
</glyph>
<glyph name="questiondown" format="1">
  <advance width="910"/>
  <unicode hex="00BF"/>
  <outline>
    <contour>
      <point x="810" y="160" type="curve" smooth="yes"/>
      <point x="810" y="72"/>
      <point x="738" y="0"/>
      <point x="650" y="0" type="curve" smooth="yes"/>
      <point x="650" y="0"/>
      <point x="260" y="0"/>
      <point x="260" y="0" type="curve" smooth="yes"/>
      <point x="172" y="0"/>
      <point x="100" y="72"/>
      <point x="100" y="160" type="curve" smooth="yes"/>
      <point x="100" y="160"/>
      <point x="100" y="352"/>
      <point x="100" y="352" type="curve" smooth="yes"/>
      <point x="100" y="620"/>
      <point x="385" y="680"/>
      <point x="385" y="940" type="curve" smooth="yes"/>
      <point x="385" y="940"/>
      <point x="385" y="1040"/>
      <point x="385" y="1040" type="curve"/>
      <point x="385" y="1040"/>
      <point x="610" y="1040"/>
      <point x="610" y="1040" type="curve"/>
      <point x="610" y="1040"/>
      <point x="610" y="950"/>
      <point x="610" y="950" type="curve" smooth="yes"/>
      <point x="610" y="651"/>
      <point x="321" y="544"/>
      <point x="321" y="352" type="curve" smooth="yes"/>
      <point x="321" y="342"/>
      <point x="321" y="273"/>
      <point x="321" y="273" type="curve" smooth="yes"/>
      <point x="321" y="238"/>
      <point x="348" y="210"/>
      <point x="383" y="210" type="curve" smooth="yes"/>
      <point x="383" y="210"/>
      <point x="517" y="210"/>
      <point x="517" y="210" type="curve" smooth="yes"/>
      <point x="552" y="210"/>
      <point x="580" y="238"/>
      <point x="580" y="273" type="curve" smooth="yes"/>
      <point x="580" y="273"/>
      <point x="580" y="400"/>
      <point x="580" y="400" type="curve"/>
      <point x="580" y="400"/>
      <point x="810" y="400"/>
      <point x="810" y="400" type="curve"/>
      <point x="810" y="400"/>
      <point x="810" y="160"/>
    </contour>
    <contour>
      <point x="380" y="1400" type="curve"/>
      <point x="380" y="1400"/>
      <point x="610" y="1400"/>
      <point x="610" y="1400" type="curve"/>
      <point x="610" y="1400"/>
      <point x="610" y="1170"/>
      <point x="610" y="1170" type="curve"/>
      <point x="610" y="1170"/>
      <point x="380" y="1170"/>
      <point x="380" y="1170" type="curve"/>
      <point x="380" y="1170"/>
      <point x="380" y="1400"/>
    </contour>
  </outline>
</glyph>
<glyph name="Aacute" format="1">
  <advance width="940"/>
  <unicode hex="00C1"/>
  <outline>
    <contour>
      <point x="230" y="0" type="curve"/>
      <point x="230" y="0"/>
      <point x="0" y="0"/>
      <point x="0" y="0" type="curve"/>
      <point x="0" y="0"/>
      <point x="350" y="1400"/>
      <point x="350" y="1400" type="curve"/>
      <point x="350" y="1400"/>
      <point x="590" y="1400"/>
      <point x="590" y="1400" type="curve"/>
      <point x="590" y="1400"/>
      <point x="940" y="0"/>
      <point x="940" y="0" type="curve"/>
      <point x="940" y="0"/>
      <point x="710" y="0"/>
      <point x="710" y="0" type="curve"/>
      <point x="710" y="0"/>
      <point x="644" y="260"/>
      <point x="644" y="260" type="curve"/>
      <point x="644" y="260"/>
      <point x="296" y="260"/>
      <point x="296" y="260" type="curve"/>
      <point x="296" y="260"/>
      <point x="230" y="0"/>
    </contour>
    <contour>
      <point x="349" y="470" type="curve"/>
      <point x="349" y="470"/>
      <point x="591" y="470"/>
      <point x="591" y="470" type="curve"/>
      <point x="591" y="470"/>
      <point x="470" y="945"/>
      <point x="470" y="945" type="curve"/>
      <point x="470" y="945"/>
      <point x="349" y="470"/>
    </contour>
    <contour>
      <point x="860" y="1750" type="curve"/>
      <point x="860" y="1750"/>
      <point x="660" y="1490"/>
      <point x="660" y="1490" type="curve"/>
      <point x="660" y="1490"/>
      <point x="500" y="1490"/>
      <point x="500" y="1490" type="curve"/>
      <point x="500" y="1490"/>
      <point x="640" y="1750"/>
      <point x="640" y="1750" type="curve"/>
      <point x="640" y="1750"/>
      <point x="860" y="1750"/>
    </contour>
  </outline>
</glyph>
<glyph name="Acircumflex" format="1">
  <advance width="940"/>
  <unicode hex="00C2"/>
  <outline>
    <contour>
      <point x="230" y="0" type="curve"/>
      <point x="230" y="0"/>
      <point x="0" y="0"/>
      <point x="0" y="0" type="curve"/>
      <point x="0" y="0"/>
      <point x="350" y="1400"/>
      <point x="350" y="1400" type="curve"/>
      <point x="350" y="1400"/>
      <point x="590" y="1400"/>
      <point x="590" y="1400" type="curve"/>
      <point x="590" y="1400"/>
      <point x="940" y="0"/>
      <point x="940" y="0" type="curve"/>
      <point x="940" y="0"/>
      <point x="710" y="0"/>
      <point x="710" y="0" type="curve"/>
      <point x="710" y="0"/>
      <point x="644" y="260"/>
      <point x="644" y="260" type="curve"/>
      <point x="644" y="260"/>
      <point x="296" y="260"/>
      <point x="296" y="260" type="curve"/>
      <point x="296" y="260"/>
      <point x="230" y="0"/>
    </contour>
    <contour>
      <point x="349" y="470" type="curve"/>
      <point x="349" y="470"/>
      <point x="591" y="470"/>
      <point x="591" y="470" type="curve"/>
      <point x="591" y="470"/>
      <point x="470" y="945"/>
      <point x="470" y="945" type="curve"/>
      <point x="470" y="945"/>
      <point x="349" y="470"/>
    </contour>
    <contour>
      <point x="484" y="1800" type="curve"/>
      <point x="484" y="1800"/>
      <point x="657" y="1800"/>
      <point x="657" y="1800" type="curve"/>
      <point x="657" y="1800"/>
      <point x="841" y="1500"/>
      <point x="841" y="1500" type="curve"/>
      <point x="841" y="1500"/>
      <point x="686" y="1500"/>
      <point x="686" y="1500" type="curve"/>
      <point x="686" y="1500"/>
      <point x="571" y="1682"/>
      <point x="571" y="1682" type="curve"/>
      <point x="571" y="1682"/>
      <point x="455" y="1500"/>
      <point x="455" y="1500" type="curve"/>
      <point x="455" y="1500"/>
      <point x="300" y="1500"/>
      <point x="300" y="1500" type="curve"/>
      <point x="300" y="1500"/>
      <point x="484" y="1800"/>
    </contour>
  </outline>
</glyph>
<glyph name="Aring" format="1">
  <advance width="940"/>
  <unicode hex="00C5"/>
  <outline>
    <contour>
      <point x="230" y="0" type="curve"/>
      <point x="230" y="0"/>
      <point x="0" y="0"/>
      <point x="0" y="0" type="curve"/>
      <point x="0" y="0"/>
      <point x="350" y="1400"/>
      <point x="350" y="1400" type="curve"/>
      <point x="350" y="1400"/>
      <point x="590" y="1400"/>
      <point x="590" y="1400" type="curve"/>
      <point x="590" y="1400"/>
      <point x="940" y="0"/>
      <point x="940" y="0" type="curve"/>
      <point x="940" y="0"/>
      <point x="710" y="0"/>
      <point x="710" y="0" type="curve"/>
      <point x="710" y="0"/>
      <point x="644" y="260"/>
      <point x="644" y="260" type="curve"/>
      <point x="644" y="260"/>
      <point x="296" y="260"/>
      <point x="296" y="260" type="curve"/>
      <point x="296" y="260"/>
      <point x="230" y="0"/>
    </contour>
    <contour>
      <point x="349" y="470" type="curve"/>
      <point x="349" y="470"/>
      <point x="591" y="470"/>
      <point x="591" y="470" type="curve"/>
      <point x="591" y="470"/>
      <point x="470" y="945"/>
      <point x="470" y="945" type="curve"/>
      <point x="470" y="945"/>
      <point x="349" y="470"/>
    </contour>
    <contour>
      <point x="710" y="1661" type="curve" smooth="yes"/>
      <point x="710" y="1661"/>
      <point x="710" y="1626"/>
      <point x="710" y="1626" type="curve" smooth="yes"/>
      <point x="710" y="1549"/>
      <point x="649" y="1490"/>
      <point x="570" y="1490" type="curve" smooth="yes"/>
      <point x="491" y="1490"/>
      <point x="430" y="1549"/>
      <point x="430" y="1626" type="curve" smooth="yes"/>
      <point x="430" y="1626"/>
      <point x="430" y="1661"/>
      <point x="430" y="1661" type="curve" smooth="yes"/>
      <point x="430" y="1738"/>
      <point x="491" y="1800"/>
      <point x="570" y="1800" type="curve" smooth="yes"/>
      <point x="649" y="1800"/>
      <point x="710" y="1738"/>
    </contour>
    <contour>
      <point x="625" y="1659" type="curve" smooth="yes"/>
      <point x="625" y="1700"/>
      <point x="600" y="1730"/>
      <point x="570" y="1730" type="curve" smooth="yes"/>
      <point x="540" y="1730"/>
      <point x="515" y="1700"/>
      <point x="515" y="1659" type="curve" smooth="yes"/>
      <point x="515" y="1659"/>
      <point x="515" y="1631"/>
      <point x="515" y="1631" type="curve" smooth="yes"/>
      <point x="515" y="1589"/>
      <point x="540" y="1560"/>
      <point x="570" y="1560" type="curve" smooth="yes"/>
      <point x="600" y="1560"/>
      <point x="625" y="1589"/>
      <point x="625" y="1631" type="curve" smooth="yes"/>
      <point x="625" y="1631"/>
      <point x="625" y="1659"/>
    </contour>
  </outline>
</glyph>
<glyph name="Edieresis" format="1">
  <advance width="912"/>
  <unicode hex="00CB"/>
  <outline>
    <contour>
      <point x="100" y="0" type="curve"/>
      <point x="100" y="0"/>
      <point x="100" y="1400"/>
      <point x="100" y="1400" type="curve"/>
      <point x="100" y="1400"/>
      <point x="810" y="1400"/>
      <point x="810" y="1400" type="curve"/>
      <point x="810" y="1400"/>
      <point x="810" y="1170"/>
      <point x="810" y="1170" type="curve"/>
      <point x="810" y="1170"/>
      <point x="350" y="1170"/>
      <point x="350" y="1170" type="curve"/>
      <point x="350" y="1170"/>
      <point x="350" y="820"/>
      <point x="350" y="820" type="curve"/>
      <point x="350" y="820"/>
      <point x="730" y="820"/>
      <point x="730" y="820" type="curve"/>
      <point x="730" y="820"/>
      <point x="730" y="580"/>
      <point x="730" y="580" type="curve"/>
      <point x="730" y="580"/>
      <point x="350" y="580"/>
      <point x="350" y="580" type="curve"/>
      <point x="350" y="580"/>
      <point x="350" y="240"/>
      <point x="350" y="240" type="curve"/>
      <point x="350" y="240"/>
      <point x="812" y="240"/>
      <point x="812" y="240" type="curve"/>
      <point x="812" y="240"/>
      <point x="812" y="0"/>
      <point x="812" y="0" type="curve"/>
      <point x="812" y="0"/>
      <point x="100" y="0"/>
    </contour>
    <contour>
      <point x="261" y="1700" type="curve"/>
      <point x="261" y="1700"/>
      <point x="411" y="1700"/>
      <point x="411" y="1700" type="curve"/>
      <point x="411" y="1700"/>
      <point x="411" y="1550"/>
      <point x="411" y="1550" type="curve"/>
      <point x="411" y="1550"/>
      <point x="261" y="1550"/>
      <point x="261" y="1550" type="curve"/>
      <point x="261" y="1550"/>
      <point x="261" y="1700"/>
    </contour>
    <contour>
      <point x="501" y="1700" type="curve"/>
      <point x="501" y="1700"/>
      <point x="651" y="1700"/>
      <point x="651" y="1700" type="curve"/>
      <point x="651" y="1700"/>
      <point x="651" y="1550"/>
      <point x="651" y="1550" type="curve"/>
      <point x="651" y="1550"/>
      <point x="501" y="1550"/>
      <point x="501" y="1550" type="curve"/>
      <point x="501" y="1550"/>
      <point x="501" y="1700"/>
    </contour>
  </outline>
</glyph>
<glyph name="Igrave" format="1">
  <advance width="450"/>
  <unicode hex="00CC"/>
  <outline>
    <contour>
      <point x="100" y="1400" type="curve"/>
      <point x="100" y="1400"/>
      <point x="350" y="1400"/>
      <point x="350" y="1400" type="curve"/>
      <point x="350" y="1400"/>
      <point x="350" y="0"/>
      <point x="350" y="0" type="curve"/>
      <point x="350" y="0"/>
      <point x="100" y="0"/>
      <point x="100" y="0" type="curve"/>
      <point x="100" y="0"/>
      <point x="100" y="1400"/>
    </contour>
    <contour>
      <point x="190" y="1490" type="curve"/>
      <point x="190" y="1490"/>
      <point x="-10" y="1750"/>
      <point x="-10" y="1750" type="curve"/>
      <point x="-10" y="1750"/>
      <point x="210" y="1750"/>
      <point x="210" y="1750" type="curve"/>
      <point x="210" y="1750"/>
      <point x="350" y="1490"/>
      <point x="350" y="1490" type="curve"/>
      <point x="350" y="1490"/>
      <point x="190" y="1490"/>
    </contour>
  </outline>
</glyph>
<glyph name="Iacute" format="1">
  <advance width="560"/>
  <unicode hex="00CD"/>
  <outline>
    <contour>
      <point x="100" y="1400" type="curve"/>
      <point x="100" y="1400"/>
      <point x="350" y="1400"/>
      <point x="350" y="1400" type="curve"/>
      <point x="350" y="1400"/>
      <point x="350" y="0"/>
      <point x="350" y="0" type="curve"/>
      <point x="350" y="0"/>
      <point x="100" y="0"/>
      <point x="100" y="0" type="curve"/>
      <point x="100" y="0"/>
      <point x="100" y="1400"/>
    </contour>
    <contour>
      <point x="460" y="1750" type="curve"/>
      <point x="460" y="1750"/>
      <point x="260" y="1490"/>
      <point x="260" y="1490" type="curve"/>
      <point x="260" y="1490"/>
      <point x="100" y="1490"/>
      <point x="100" y="1490" type="curve"/>
      <point x="100" y="1490"/>
      <point x="240" y="1750"/>
      <point x="240" y="1750" type="curve"/>
      <point x="240" y="1750"/>
      <point x="460" y="1750"/>
    </contour>
  </outline>
</glyph>
<glyph name="Idieresis" format="1">
  <advance width="590"/>
  <unicode hex="00CF"/>
  <outline>
    <contour>
      <point x="100" y="1400" type="curve"/>
      <point x="100" y="1400"/>
      <point x="350" y="1400"/>
      <point x="350" y="1400" type="curve"/>
      <point x="350" y="1400"/>
      <point x="350" y="0"/>
      <point x="350" y="0" type="curve"/>
      <point x="350" y="0"/>
      <point x="100" y="0"/>
      <point x="100" y="0" type="curve"/>
      <point x="100" y="0"/>
      <point x="100" y="1400"/>
    </contour>
    <contour>
      <point x="30" y="1700" type="curve"/>
      <point x="30" y="1700"/>
      <point x="180" y="1700"/>
      <point x="180" y="1700" type="curve"/>
      <point x="180" y="1700"/>
      <point x="180" y="1550"/>
      <point x="180" y="1550" type="curve"/>
      <point x="180" y="1550"/>
      <point x="30" y="1550"/>
      <point x="30" y="1550" type="curve"/>
      <point x="30" y="1550"/>
      <point x="30" y="1700"/>
    </contour>
    <contour>
      <point x="270" y="1700" type="curve"/>
      <point x="270" y="1700"/>
      <point x="420" y="1700"/>
      <point x="420" y="1700" type="curve"/>
      <point x="420" y="1700"/>
      <point x="420" y="1550"/>
      <point x="420" y="1550" type="curve"/>
      <point x="420" y="1550"/>
      <point x="270" y="1550"/>
      <point x="270" y="1550" type="curve"/>
      <point x="270" y="1550"/>
      <point x="270" y="1700"/>
    </contour>
  </outline>
</glyph>
<glyph name="Oacute" format="1">
  <advance width="940"/>
  <unicode hex="00D3"/>
  <outline>
    <contour>
      <point x="840" y="1255" type="curve" smooth="yes"/>
      <point x="840" y="1255"/>
      <point x="840" y="145"/>
      <point x="840" y="145" type="curve" smooth="yes"/>
      <point x="840" y="65"/>
      <point x="775" y="0"/>
      <point x="695" y="0" type="curve" smooth="yes"/>
      <point x="695" y="0"/>
      <point x="245" y="0"/>
      <point x="245" y="0" type="curve" smooth="yes"/>
      <point x="165" y="0"/>
      <point x="100" y="65"/>
      <point x="100" y="145" type="curve" smooth="yes"/>
      <point x="100" y="145"/>
      <point x="100" y="1255"/>
      <point x="100" y="1255" type="curve" smooth="yes"/>
      <point x="100" y="1335"/>
      <point x="165" y="1400"/>
      <point x="245" y="1400" type="curve" smooth="yes"/>
      <point x="245" y="1400"/>
      <point x="695" y="1400"/>
      <point x="695" y="1400" type="curve" smooth="yes"/>
      <point x="775" y="1400"/>
      <point x="840" y="1335"/>
    </contour>
    <contour>
      <point x="350" y="250" type="curve"/>
      <point x="350" y="250"/>
      <point x="590" y="250"/>
      <point x="590" y="250" type="curve"/>
      <point x="590" y="250"/>
      <point x="590" y="1150"/>
      <point x="590" y="1150" type="curve"/>
      <point x="590" y="1150"/>
      <point x="350" y="1150"/>
      <point x="350" y="1150" type="curve"/>
      <point x="350" y="1150"/>
      <point x="350" y="250"/>
    </contour>
    <contour>
      <point x="680" y="1750" type="curve"/>
      <point x="680" y="1750"/>
      <point x="480" y="1490"/>
      <point x="480" y="1490" type="curve"/>
      <point x="480" y="1490"/>
      <point x="320" y="1490"/>
      <point x="320" y="1490" type="curve"/>
      <point x="320" y="1490"/>
      <point x="460" y="1750"/>
      <point x="460" y="1750" type="curve"/>
      <point x="460" y="1750"/>
      <point x="680" y="1750"/>
    </contour>
  </outline>
</glyph>
<glyph name="Ocircumflex" format="1">
  <advance width="940"/>
  <unicode hex="00D4"/>
  <outline>
    <contour>
      <point x="840" y="1255" type="curve" smooth="yes"/>
      <point x="840" y="1255"/>
      <point x="840" y="145"/>
      <point x="840" y="145" type="curve" smooth="yes"/>
      <point x="840" y="65"/>
      <point x="775" y="0"/>
      <point x="695" y="0" type="curve" smooth="yes"/>
      <point x="695" y="0"/>
      <point x="245" y="0"/>
      <point x="245" y="0" type="curve" smooth="yes"/>
      <point x="165" y="0"/>
      <point x="100" y="65"/>
      <point x="100" y="145" type="curve" smooth="yes"/>
      <point x="100" y="145"/>
      <point x="100" y="1255"/>
      <point x="100" y="1255" type="curve" smooth="yes"/>
      <point x="100" y="1335"/>
      <point x="165" y="1400"/>
      <point x="245" y="1400" type="curve" smooth="yes"/>
      <point x="245" y="1400"/>
      <point x="695" y="1400"/>
      <point x="695" y="1400" type="curve" smooth="yes"/>
      <point x="775" y="1400"/>
      <point x="840" y="1335"/>
    </contour>
    <contour>
      <point x="350" y="250" type="curve"/>
      <point x="350" y="250"/>
      <point x="590" y="250"/>
      <point x="590" y="250" type="curve"/>
      <point x="590" y="250"/>
      <point x="590" y="1150"/>
      <point x="590" y="1150" type="curve"/>
      <point x="590" y="1150"/>
      <point x="350" y="1150"/>
      <point x="350" y="1150" type="curve"/>
      <point x="350" y="1150"/>
      <point x="350" y="250"/>
    </contour>
    <contour>
      <point x="384" y="1800" type="curve"/>
      <point x="384" y="1800"/>
      <point x="557" y="1800"/>
      <point x="557" y="1800" type="curve"/>
      <point x="557" y="1800"/>
      <point x="741" y="1500"/>
      <point x="741" y="1500" type="curve"/>
      <point x="741" y="1500"/>
      <point x="586" y="1500"/>
      <point x="586" y="1500" type="curve"/>
      <point x="586" y="1500"/>
      <point x="471" y="1682"/>
      <point x="471" y="1682" type="curve"/>
      <point x="471" y="1682"/>
      <point x="355" y="1500"/>
      <point x="355" y="1500" type="curve"/>
      <point x="355" y="1500"/>
      <point x="200" y="1500"/>
      <point x="200" y="1500" type="curve"/>
      <point x="200" y="1500"/>
      <point x="384" y="1800"/>
    </contour>
  </outline>
</glyph>
<glyph name="Otilde" format="1">
  <advance width="940"/>
  <unicode hex="00D5"/>
  <outline>
    <contour>
      <point x="840" y="1255" type="curve" smooth="yes"/>
      <point x="840" y="1255"/>
      <point x="840" y="145"/>
      <point x="840" y="145" type="curve" smooth="yes"/>
      <point x="840" y="65"/>
      <point x="775" y="0"/>
      <point x="695" y="0" type="curve" smooth="yes"/>
      <point x="695" y="0"/>
      <point x="245" y="0"/>
      <point x="245" y="0" type="curve" smooth="yes"/>
      <point x="165" y="0"/>
      <point x="100" y="65"/>
      <point x="100" y="145" type="curve" smooth="yes"/>
      <point x="100" y="145"/>
      <point x="100" y="1255"/>
      <point x="100" y="1255" type="curve" smooth="yes"/>
      <point x="100" y="1335"/>
      <point x="165" y="1400"/>
      <point x="245" y="1400" type="curve" smooth="yes"/>
      <point x="245" y="1400"/>
      <point x="695" y="1400"/>
      <point x="695" y="1400" type="curve" smooth="yes"/>
      <point x="775" y="1400"/>
      <point x="840" y="1335"/>
    </contour>
    <contour>
      <point x="350" y="250" type="curve"/>
      <point x="350" y="250"/>
      <point x="590" y="250"/>
      <point x="590" y="250" type="curve"/>
      <point x="590" y="250"/>
      <point x="590" y="1150"/>
      <point x="590" y="1150" type="curve"/>
      <point x="590" y="1150"/>
      <point x="350" y="1150"/>
      <point x="350" y="1150" type="curve"/>
      <point x="350" y="1150"/>
      <point x="350" y="250"/>
    </contour>
    <contour>
      <point x="633" y="1653" type="curve"/>
      <point x="633" y="1653"/>
      <point x="722" y="1626"/>
      <point x="722" y="1626" type="curve"/>
      <point x="709" y="1553"/>
      <point x="641" y="1496"/>
      <point x="565" y="1496" type="curve" smooth="yes"/>
      <point x="499" y="1496"/>
      <point x="445" y="1535"/>
      <point x="423" y="1593" type="curve"/>
      <point x="412" y="1608"/>
      <point x="397" y="1619"/>
      <point x="377" y="1619" type="curve" smooth="yes"/>
      <point x="342" y="1619"/>
      <point x="309" y="1589"/>
      <point x="309" y="1553" type="curve"/>
      <point x="309" y="1553"/>
      <point x="220" y="1580"/>
      <point x="220" y="1580" type="curve"/>
      <point x="232" y="1653"/>
      <point x="300" y="1710"/>
      <point x="377" y="1710" type="curve" smooth="yes"/>
      <point x="442" y="1710"/>
      <point x="497" y="1671"/>
      <point x="518" y="1613" type="curve"/>
      <point x="530" y="1598"/>
      <point x="544" y="1587"/>
      <point x="565" y="1587" type="curve" smooth="yes"/>
      <point x="600" y="1587"/>
      <point x="633" y="1617"/>
    </contour>
  </outline>
</glyph>
<glyph name="Odieresis" format="1">
  <advance width="940"/>
  <unicode hex="00D6"/>
  <outline>
    <contour>
      <point x="840" y="1255" type="curve" smooth="yes"/>
      <point x="840" y="1255"/>
      <point x="840" y="145"/>
      <point x="840" y="145" type="curve" smooth="yes"/>
      <point x="840" y="65"/>
      <point x="775" y="0"/>
      <point x="695" y="0" type="curve" smooth="yes"/>
      <point x="695" y="0"/>
      <point x="245" y="0"/>
      <point x="245" y="0" type="curve" smooth="yes"/>
      <point x="165" y="0"/>
      <point x="100" y="65"/>
      <point x="100" y="145" type="curve" smooth="yes"/>
      <point x="100" y="145"/>
      <point x="100" y="1255"/>
      <point x="100" y="1255" type="curve" smooth="yes"/>
      <point x="100" y="1335"/>
      <point x="165" y="1400"/>
      <point x="245" y="1400" type="curve" smooth="yes"/>
      <point x="245" y="1400"/>
      <point x="695" y="1400"/>
      <point x="695" y="1400" type="curve" smooth="yes"/>
      <point x="775" y="1400"/>
      <point x="840" y="1335"/>
    </contour>
    <contour>
      <point x="350" y="250" type="curve"/>
      <point x="350" y="250"/>
      <point x="590" y="250"/>
      <point x="590" y="250" type="curve"/>
      <point x="590" y="250"/>
      <point x="590" y="1150"/>
      <point x="590" y="1150" type="curve"/>
      <point x="590" y="1150"/>
      <point x="350" y="1150"/>
      <point x="350" y="1150" type="curve"/>
      <point x="350" y="1150"/>
      <point x="350" y="250"/>
    </contour>
    <contour>
      <point x="275" y="1700" type="curve"/>
      <point x="275" y="1700"/>
      <point x="425" y="1700"/>
      <point x="425" y="1700" type="curve"/>
      <point x="425" y="1700"/>
      <point x="425" y="1550"/>
      <point x="425" y="1550" type="curve"/>
      <point x="425" y="1550"/>
      <point x="275" y="1550"/>
      <point x="275" y="1550" type="curve"/>
      <point x="275" y="1550"/>
      <point x="275" y="1700"/>
    </contour>
    <contour>
      <point x="515" y="1700" type="curve"/>
      <point x="515" y="1700"/>
      <point x="665" y="1700"/>
      <point x="665" y="1700" type="curve"/>
      <point x="665" y="1700"/>
      <point x="665" y="1550"/>
      <point x="665" y="1550" type="curve"/>
      <point x="665" y="1550"/>
      <point x="515" y="1550"/>
      <point x="515" y="1550" type="curve"/>
      <point x="515" y="1550"/>
      <point x="515" y="1700"/>
    </contour>
  </outline>
</glyph>
<glyph name="Ucircumflex" format="1">
  <advance width="970"/>
  <unicode hex="00DB"/>
  <outline>
    <contour>
      <point x="350" y="1400" type="curve"/>
      <point x="350" y="1400"/>
      <point x="350" y="250"/>
      <point x="350" y="250" type="curve"/>
      <point x="350" y="250"/>
      <point x="620" y="250"/>
      <point x="620" y="250" type="curve"/>
      <point x="620" y="250"/>
      <point x="620" y="1400"/>
      <point x="620" y="1400" type="curve"/>
      <point x="620" y="1400"/>
      <point x="870" y="1400"/>
      <point x="870" y="1400" type="curve"/>
      <point x="870" y="1400"/>
      <point x="870" y="145"/>
      <point x="870" y="145" type="curve" smooth="yes"/>
      <point x="870" y="65"/>
      <point x="805" y="0"/>
      <point x="725" y="0" type="curve" smooth="yes"/>
      <point x="725" y="0"/>
      <point x="245" y="0"/>
      <point x="245" y="0" type="curve" smooth="yes"/>
      <point x="165" y="0"/>
      <point x="100" y="65"/>
      <point x="100" y="145" type="curve" smooth="yes"/>
      <point x="100" y="145"/>
      <point x="100" y="1400"/>
      <point x="100" y="1400" type="curve"/>
      <point x="100" y="1400"/>
      <point x="350" y="1400"/>
    </contour>
    <contour>
      <point x="399" y="1800" type="curve"/>
      <point x="399" y="1800"/>
      <point x="572" y="1800"/>
      <point x="572" y="1800" type="curve"/>
      <point x="572" y="1800"/>
      <point x="756" y="1500"/>
      <point x="756" y="1500" type="curve"/>
      <point x="756" y="1500"/>
      <point x="601" y="1500"/>
      <point x="601" y="1500" type="curve"/>
      <point x="601" y="1500"/>
      <point x="486" y="1682"/>
      <point x="486" y="1682" type="curve"/>
      <point x="486" y="1682"/>
      <point x="370" y="1500"/>
      <point x="370" y="1500" type="curve"/>
      <point x="370" y="1500"/>
      <point x="215" y="1500"/>
      <point x="215" y="1500" type="curve"/>
      <point x="215" y="1500"/>
      <point x="399" y="1800"/>
    </contour>
  </outline>
</glyph>
<glyph name="Udieresis" format="1">
  <advance width="970"/>
  <unicode hex="00DC"/>
  <outline>
    <contour>
      <point x="350" y="1400" type="curve"/>
      <point x="350" y="1400"/>
      <point x="350" y="250"/>
      <point x="350" y="250" type="curve"/>
      <point x="350" y="250"/>
      <point x="620" y="250"/>
      <point x="620" y="250" type="curve"/>
      <point x="620" y="250"/>
      <point x="620" y="1400"/>
      <point x="620" y="1400" type="curve"/>
      <point x="620" y="1400"/>
      <point x="870" y="1400"/>
      <point x="870" y="1400" type="curve"/>
      <point x="870" y="1400"/>
      <point x="870" y="145"/>
      <point x="870" y="145" type="curve" smooth="yes"/>
      <point x="870" y="65"/>
      <point x="805" y="0"/>
      <point x="725" y="0" type="curve" smooth="yes"/>
      <point x="725" y="0"/>
      <point x="245" y="0"/>
      <point x="245" y="0" type="curve" smooth="yes"/>
      <point x="165" y="0"/>
      <point x="100" y="65"/>
      <point x="100" y="145" type="curve" smooth="yes"/>
      <point x="100" y="145"/>
      <point x="100" y="1400"/>
      <point x="100" y="1400" type="curve"/>
      <point x="100" y="1400"/>
      <point x="350" y="1400"/>
    </contour>
    <contour>
      <point x="290" y="1700" type="curve"/>
      <point x="290" y="1700"/>
      <point x="440" y="1700"/>
      <point x="440" y="1700" type="curve"/>
      <point x="440" y="1700"/>
      <point x="440" y="1550"/>
      <point x="440" y="1550" type="curve"/>
      <point x="440" y="1550"/>
      <point x="290" y="1550"/>
      <point x="290" y="1550" type="curve"/>
      <point x="290" y="1550"/>
      <point x="290" y="1700"/>
    </contour>
    <contour>
      <point x="530" y="1700" type="curve"/>
      <point x="530" y="1700"/>
      <point x="680" y="1700"/>
      <point x="680" y="1700" type="curve"/>
      <point x="680" y="1700"/>
      <point x="680" y="1550"/>
      <point x="680" y="1550" type="curve"/>
      <point x="680" y="1550"/>
      <point x="530" y="1550"/>
      <point x="530" y="1550" type="curve"/>
      <point x="530" y="1550"/>
      <point x="530" y="1700"/>
    </contour>
  </outline>
</glyph>
<glyph name="Yacute" format="1">
  <advance width="920"/>
  <unicode hex="00DD"/>
  <outline>
    <contour>
      <point x="860" y="1400" type="curve"/>
      <point x="860" y="1400"/>
      <point x="585" y="506"/>
      <point x="585" y="506" type="curve"/>
      <point x="585" y="506"/>
      <point x="585" y="0"/>
      <point x="585" y="0" type="curve"/>
      <point x="585" y="0"/>
      <point x="335" y="0"/>
      <point x="335" y="0" type="curve"/>
      <point x="335" y="0"/>
      <point x="335" y="506"/>
      <point x="335" y="506" type="curve"/>
      <point x="335" y="506"/>
      <point x="60" y="1400"/>
      <point x="60" y="1400" type="curve"/>
      <point x="60" y="1400"/>
      <point x="310" y="1400"/>
      <point x="310" y="1400" type="curve"/>
      <point x="310" y="1400"/>
      <point x="460" y="810"/>
      <point x="460" y="810" type="curve"/>
      <point x="460" y="810"/>
      <point x="600" y="1400"/>
      <point x="600" y="1400" type="curve"/>
      <point x="600" y="1400"/>
      <point x="860" y="1400"/>
    </contour>
    <contour>
      <point x="730" y="1750" type="curve"/>
      <point x="730" y="1750"/>
      <point x="530" y="1490"/>
      <point x="530" y="1490" type="curve"/>
      <point x="530" y="1490"/>
      <point x="370" y="1490"/>
      <point x="370" y="1490" type="curve"/>
      <point x="370" y="1490"/>
      <point x="510" y="1750"/>
      <point x="510" y="1750" type="curve"/>
      <point x="510" y="1750"/>
      <point x="730" y="1750"/>
    </contour>
  </outline>
</glyph>
<glyph name="germandbls" format="1">
  <advance width="930"/>
  <unicode hex="00DF"/>
  <outline>
    <contour>
      <point x="830" y="1240" type="curve" smooth="yes"/>
      <point x="830" y="1240"/>
      <point x="830" y="860"/>
      <point x="830" y="860" type="curve" smooth="yes"/>
      <point x="830" y="791"/>
      <point x="786" y="733"/>
      <point x="726" y="710" type="curve"/>
      <point x="788" y="687"/>
      <point x="830" y="627"/>
      <point x="830" y="560" type="curve" smooth="yes"/>
      <point x="830" y="560"/>
      <point x="830" y="144"/>
      <point x="830" y="144" type="curve" smooth="yes"/>
      <point x="830" y="64"/>
      <point x="766" y="0"/>
      <point x="686" y="0" type="curve" smooth="yes"/>
      <point x="686" y="0"/>
      <point x="530" y="0"/>
      <point x="525" y="0" type="curve" smooth="yes"/>
      <point x="520" y="0"/>
      <point x="517" y="2"/>
      <point x="517" y="8" type="curve" smooth="yes"/>
      <point x="517" y="14"/>
      <point x="522" y="16"/>
      <point x="525" y="18" type="curve" smooth="yes"/>
      <point x="571" y="43"/>
      <point x="600" y="91"/>
      <point x="600" y="144" type="curve" smooth="yes"/>
      <point x="600" y="144"/>
      <point x="600" y="537"/>
      <point x="600" y="537" type="curve" smooth="yes"/>
      <point x="600" y="572"/>
      <point x="573" y="600"/>
      <point x="538" y="600" type="curve" smooth="yes"/>
      <point x="538" y="600"/>
      <point x="430" y="600"/>
      <point x="430" y="600" type="curve"/>
      <point x="430" y="600"/>
      <point x="430" y="820"/>
      <point x="430" y="820" type="curve"/>
      <point x="430" y="820"/>
      <point x="538" y="820"/>
      <point x="538" y="820" type="curve" smooth="yes"/>
      <point x="573" y="820"/>
      <point x="600" y="848"/>
      <point x="600" y="883" type="curve" smooth="yes"/>
      <point x="600" y="883"/>
      <point x="600" y="1107"/>
      <point x="600" y="1107" type="curve" smooth="yes"/>
      <point x="600" y="1142"/>
      <point x="573" y="1170"/>
      <point x="538" y="1170" type="curve" smooth="yes"/>
      <point x="538" y="1170"/>
      <point x="383" y="1170"/>
      <point x="383" y="1170" type="curve" smooth="yes"/>
      <point x="348" y="1170"/>
      <point x="320" y="1142"/>
      <point x="320" y="1107" type="curve" smooth="yes"/>
      <point x="320" y="1107"/>
      <point x="320" y="0"/>
      <point x="320" y="0" type="curve"/>
      <point x="320" y="0"/>
      <point x="100" y="0"/>
      <point x="100" y="0" type="curve"/>
      <point x="100" y="0"/>
      <point x="100" y="1240"/>
      <point x="100" y="1240" type="curve" smooth="yes"/>
      <point x="100" y="1328"/>
      <point x="172" y="1400"/>
      <point x="260" y="1400" type="curve" smooth="yes"/>
      <point x="260" y="1400"/>
      <point x="670" y="1400"/>
      <point x="670" y="1400" type="curve" smooth="yes"/>
      <point x="758" y="1400"/>
      <point x="830" y="1328"/>
    </contour>
  </outline>
</glyph>
<glyph name="adieresis" format="1">
  <advance width="940"/>
  <unicode hex="00E4"/>
  <outline>
    <contour>
      <point x="230" y="0" type="curve"/>
      <point x="230" y="0"/>
      <point x="0" y="0"/>
      <point x="0" y="0" type="curve"/>
      <point x="0" y="0"/>
      <point x="350" y="1400"/>
      <point x="350" y="1400" type="curve"/>
      <point x="350" y="1400"/>
      <point x="590" y="1400"/>
      <point x="590" y="1400" type="curve"/>
      <point x="590" y="1400"/>
      <point x="940" y="0"/>
      <point x="940" y="0" type="curve"/>
      <point x="940" y="0"/>
      <point x="710" y="0"/>
      <point x="710" y="0" type="curve"/>
      <point x="710" y="0"/>
      <point x="644" y="260"/>
      <point x="644" y="260" type="curve"/>
      <point x="644" y="260"/>
      <point x="296" y="260"/>
      <point x="296" y="260" type="curve"/>
      <point x="296" y="260"/>
      <point x="230" y="0"/>
    </contour>
    <contour>
      <point x="349" y="470" type="curve"/>
      <point x="349" y="470"/>
      <point x="591" y="470"/>
      <point x="591" y="470" type="curve"/>
      <point x="591" y="470"/>
      <point x="470" y="945"/>
      <point x="470" y="945" type="curve"/>
      <point x="470" y="945"/>
      <point x="349" y="470"/>
    </contour>
    <contour>
      <point x="275" y="1700" type="curve"/>
      <point x="275" y="1700"/>
      <point x="425" y="1700"/>
      <point x="425" y="1700" type="curve"/>
      <point x="425" y="1700"/>
      <point x="425" y="1550"/>
      <point x="425" y="1550" type="curve"/>
      <point x="425" y="1550"/>
      <point x="275" y="1550"/>
      <point x="275" y="1550" type="curve"/>
      <point x="275" y="1550"/>
      <point x="275" y="1700"/>
    </contour>
    <contour>
      <point x="515" y="1700" type="curve"/>
      <point x="515" y="1700"/>
      <point x="665" y="1700"/>
      <point x="665" y="1700" type="curve"/>
      <point x="665" y="1700"/>
      <point x="665" y="1550"/>
      <point x="665" y="1550" type="curve"/>
      <point x="665" y="1550"/>
      <point x="515" y="1550"/>
      <point x="515" y="1550" type="curve"/>
      <point x="515" y="1550"/>
      <point x="515" y="1700"/>
    </contour>
  </outline>
</glyph>
<glyph name="aring" format="1">
  <advance width="940"/>
  <unicode hex="00E5"/>
  <outline>
    <contour>
      <point x="230" y="0" type="curve"/>
      <point x="230" y="0"/>
      <point x="0" y="0"/>
      <point x="0" y="0" type="curve"/>
      <point x="0" y="0"/>
      <point x="350" y="1400"/>
      <point x="350" y="1400" type="curve"/>
      <point x="350" y="1400"/>
      <point x="590" y="1400"/>
      <point x="590" y="1400" type="curve"/>
      <point x="590" y="1400"/>
      <point x="940" y="0"/>
      <point x="940" y="0" type="curve"/>
      <point x="940" y="0"/>
      <point x="710" y="0"/>
      <point x="710" y="0" type="curve"/>
      <point x="710" y="0"/>
      <point x="644" y="260"/>
      <point x="644" y="260" type="curve"/>
      <point x="644" y="260"/>
      <point x="296" y="260"/>
      <point x="296" y="260" type="curve"/>
      <point x="296" y="260"/>
      <point x="230" y="0"/>
    </contour>
    <contour>
      <point x="349" y="470" type="curve"/>
      <point x="349" y="470"/>
      <point x="591" y="470"/>
      <point x="591" y="470" type="curve"/>
      <point x="591" y="470"/>
      <point x="470" y="945"/>
      <point x="470" y="945" type="curve"/>
      <point x="470" y="945"/>
      <point x="349" y="470"/>
    </contour>
    <contour>
      <point x="610" y="1661" type="curve" smooth="yes"/>
      <point x="610" y="1661"/>
      <point x="610" y="1626"/>
      <point x="610" y="1626" type="curve" smooth="yes"/>
      <point x="610" y="1549"/>
      <point x="549" y="1490"/>
      <point x="470" y="1490" type="curve" smooth="yes"/>
      <point x="391" y="1490"/>
      <point x="330" y="1549"/>
      <point x="330" y="1626" type="curve" smooth="yes"/>
      <point x="330" y="1626"/>
      <point x="330" y="1661"/>
      <point x="330" y="1661" type="curve" smooth="yes"/>
      <point x="330" y="1738"/>
      <point x="391" y="1800"/>
      <point x="470" y="1800" type="curve" smooth="yes"/>
      <point x="549" y="1800"/>
      <point x="610" y="1738"/>
    </contour>
    <contour>
      <point x="525" y="1659" type="curve" smooth="yes"/>
      <point x="525" y="1700"/>
      <point x="500" y="1730"/>
      <point x="470" y="1730" type="curve" smooth="yes"/>
      <point x="440" y="1730"/>
      <point x="415" y="1700"/>
      <point x="415" y="1659" type="curve" smooth="yes"/>
      <point x="415" y="1659"/>
      <point x="415" y="1631"/>
      <point x="415" y="1631" type="curve" smooth="yes"/>
      <point x="415" y="1589"/>
      <point x="440" y="1560"/>
      <point x="470" y="1560" type="curve" smooth="yes"/>
      <point x="500" y="1560"/>
      <point x="525" y="1589"/>
      <point x="525" y="1631" type="curve" smooth="yes"/>
      <point x="525" y="1631"/>
      <point x="525" y="1659"/>
    </contour>
  </outline>
</glyph>
<glyph name="egrave" format="1">
  <advance width="912"/>
  <unicode hex="00E8"/>
  <outline>
    <contour>
      <point x="100" y="0" type="curve"/>
      <point x="100" y="0"/>
      <point x="100" y="1400"/>
      <point x="100" y="1400" type="curve"/>
      <point x="100" y="1400"/>
      <point x="810" y="1400"/>
      <point x="810" y="1400" type="curve"/>
      <point x="810" y="1400"/>
      <point x="810" y="1170"/>
      <point x="810" y="1170" type="curve"/>
      <point x="810" y="1170"/>
      <point x="350" y="1170"/>
      <point x="350" y="1170" type="curve"/>
      <point x="350" y="1170"/>
      <point x="350" y="820"/>
      <point x="350" y="820" type="curve"/>
      <point x="350" y="820"/>
      <point x="730" y="820"/>
      <point x="730" y="820" type="curve"/>
      <point x="730" y="820"/>
      <point x="730" y="580"/>
      <point x="730" y="580" type="curve"/>
      <point x="730" y="580"/>
      <point x="350" y="580"/>
      <point x="350" y="580" type="curve"/>
      <point x="350" y="580"/>
      <point x="350" y="240"/>
      <point x="350" y="240" type="curve"/>
      <point x="350" y="240"/>
      <point x="812" y="240"/>
      <point x="812" y="240" type="curve"/>
      <point x="812" y="240"/>
      <point x="812" y="0"/>
      <point x="812" y="0" type="curve"/>
      <point x="812" y="0"/>
      <point x="100" y="0"/>
    </contour>
    <contour>
      <point x="430" y="1490" type="curve"/>
      <point x="430" y="1490"/>
      <point x="230" y="1750"/>
      <point x="230" y="1750" type="curve"/>
      <point x="230" y="1750"/>
      <point x="450" y="1750"/>
      <point x="450" y="1750" type="curve"/>
      <point x="450" y="1750"/>
      <point x="590" y="1490"/>
      <point x="590" y="1490" type="curve"/>
      <point x="590" y="1490"/>
      <point x="430" y="1490"/>
    </contour>
  </outline>
</glyph>
<glyph name="eacute" format="1">
  <advance width="912"/>
  <unicode hex="00E9"/>
  <outline>
    <contour>
      <point x="100" y="0" type="curve"/>
      <point x="100" y="0"/>
      <point x="100" y="1400"/>
      <point x="100" y="1400" type="curve"/>
      <point x="100" y="1400"/>
      <point x="810" y="1400"/>
      <point x="810" y="1400" type="curve"/>
      <point x="810" y="1400"/>
      <point x="810" y="1170"/>
      <point x="810" y="1170" type="curve"/>
      <point x="810" y="1170"/>
      <point x="350" y="1170"/>
      <point x="350" y="1170" type="curve"/>
      <point x="350" y="1170"/>
      <point x="350" y="820"/>
      <point x="350" y="820" type="curve"/>
      <point x="350" y="820"/>
      <point x="730" y="820"/>
      <point x="730" y="820" type="curve"/>
      <point x="730" y="820"/>
      <point x="730" y="580"/>
      <point x="730" y="580" type="curve"/>
      <point x="730" y="580"/>
      <point x="350" y="580"/>
      <point x="350" y="580" type="curve"/>
      <point x="350" y="580"/>
      <point x="350" y="240"/>
      <point x="350" y="240" type="curve"/>
      <point x="350" y="240"/>
      <point x="812" y="240"/>
      <point x="812" y="240" type="curve"/>
      <point x="812" y="240"/>
      <point x="812" y="0"/>
      <point x="812" y="0" type="curve"/>
      <point x="812" y="0"/>
      <point x="100" y="0"/>
    </contour>
    <contour>
      <point x="660" y="1750" type="curve"/>
      <point x="660" y="1750"/>
      <point x="460" y="1490"/>
      <point x="460" y="1490" type="curve"/>
      <point x="460" y="1490"/>
      <point x="300" y="1490"/>
      <point x="300" y="1490" type="curve"/>
      <point x="300" y="1490"/>
      <point x="440" y="1750"/>
      <point x="440" y="1750" type="curve"/>
      <point x="440" y="1750"/>
      <point x="660" y="1750"/>
    </contour>
  </outline>
</glyph>
<glyph name="icircumflex" format="1">
  <advance width="596"/>
  <unicode hex="00EE"/>
  <outline>
    <contour>
      <point x="100" y="1400" type="curve"/>
      <point x="100" y="1400"/>
      <point x="350" y="1400"/>
      <point x="350" y="1400" type="curve"/>
      <point x="350" y="1400"/>
      <point x="350" y="0"/>
      <point x="350" y="0" type="curve"/>
      <point x="350" y="0"/>
      <point x="100" y="0"/>
      <point x="100" y="0" type="curve"/>
      <point x="100" y="0"/>
      <point x="100" y="1400"/>
    </contour>
    <contour>
      <point x="139" y="1800" type="curve"/>
      <point x="139" y="1800"/>
      <point x="312" y="1800"/>
      <point x="312" y="1800" type="curve"/>
      <point x="312" y="1800"/>
      <point x="496" y="1500"/>
      <point x="496" y="1500" type="curve"/>
      <point x="496" y="1500"/>
      <point x="341" y="1500"/>
      <point x="341" y="1500" type="curve"/>
      <point x="341" y="1500"/>
      <point x="226" y="1682"/>
      <point x="226" y="1682" type="curve"/>
      <point x="226" y="1682"/>
      <point x="110" y="1500"/>
      <point x="110" y="1500" type="curve"/>
      <point x="110" y="1500"/>
      <point x="-45" y="1500"/>
      <point x="-45" y="1500" type="curve"/>
      <point x="-45" y="1500"/>
      <point x="139" y="1800"/>
    </contour>
  </outline>
</glyph>
<glyph name="idieresis" format="1">
  <advance width="590"/>
  <unicode hex="00EF"/>
  <outline>
    <contour>
      <point x="170" y="1400" type="curve"/>
      <point x="170" y="1400"/>
      <point x="420" y="1400"/>
      <point x="420" y="1400" type="curve"/>
      <point x="420" y="1400"/>
      <point x="420" y="0"/>
      <point x="420" y="0" type="curve"/>
      <point x="420" y="0"/>
      <point x="170" y="0"/>
      <point x="170" y="0" type="curve"/>
      <point x="170" y="0"/>
      <point x="170" y="1400"/>
    </contour>
    <contour>
      <point x="100" y="1700" type="curve"/>
      <point x="100" y="1700"/>
      <point x="250" y="1700"/>
      <point x="250" y="1700" type="curve"/>
      <point x="250" y="1700"/>
      <point x="250" y="1550"/>
      <point x="250" y="1550" type="curve"/>
      <point x="250" y="1550"/>
      <point x="100" y="1550"/>
      <point x="100" y="1550" type="curve"/>
      <point x="100" y="1550"/>
      <point x="100" y="1700"/>
    </contour>
    <contour>
      <point x="340" y="1700" type="curve"/>
      <point x="340" y="1700"/>
      <point x="490" y="1700"/>
      <point x="490" y="1700" type="curve"/>
      <point x="490" y="1700"/>
      <point x="490" y="1550"/>
      <point x="490" y="1550" type="curve"/>
      <point x="490" y="1550"/>
      <point x="340" y="1550"/>
      <point x="340" y="1550" type="curve"/>
      <point x="340" y="1550"/>
      <point x="340" y="1700"/>
    </contour>
  </outline>
</glyph>
<glyph name="divide" format="1">
  <advance width="1000"/>
  <unicode hex="00F7"/>
  <outline>
    <contour>
      <point x="100" y="810" type="curve"/>
      <point x="100" y="810"/>
      <point x="900" y="810"/>
      <point x="900" y="810" type="curve"/>
      <point x="900" y="810"/>
      <point x="900" y="590"/>
      <point x="900" y="590" type="curve"/>
      <point x="900" y="590"/>
      <point x="100" y="590"/>
      <point x="100" y="590" type="curve"/>
      <point x="100" y="590"/>
      <point x="100" y="810"/>
    </contour>
    <contour>
      <point x="385" y="500" type="curve"/>
      <point x="385" y="500"/>
      <point x="615" y="500"/>
      <point x="615" y="500" type="curve"/>
      <point x="615" y="500"/>
      <point x="615" y="270"/>
      <point x="615" y="270" type="curve"/>
      <point x="615" y="270"/>
      <point x="385" y="270"/>
      <point x="385" y="270" type="curve"/>
      <point x="385" y="270"/>
      <point x="385" y="500"/>
    </contour>
    <contour>
      <point x="385" y="1130" type="curve"/>
      <point x="385" y="1130"/>
      <point x="615" y="1130"/>
      <point x="615" y="1130" type="curve"/>
      <point x="615" y="1130"/>
      <point x="615" y="900"/>
      <point x="615" y="900" type="curve"/>
      <point x="615" y="900"/>
      <point x="385" y="900"/>
      <point x="385" y="900" type="curve"/>
      <point x="385" y="900"/>
      <point x="385" y="1130"/>
    </contour>
  </outline>
</glyph>
<glyph name="uacute" format="1">
  <advance width="970"/>
  <unicode hex="00FA"/>
  <outline>
    <contour>
      <point x="350" y="1400" type="curve"/>
      <point x="350" y="1400"/>
      <point x="350" y="250"/>
      <point x="350" y="250" type="curve"/>
      <point x="350" y="250"/>
      <point x="620" y="250"/>
      <point x="620" y="250" type="curve"/>
      <point x="620" y="250"/>
      <point x="620" y="1400"/>
      <point x="620" y="1400" type="curve"/>
      <point x="620" y="1400"/>
      <point x="870" y="1400"/>
      <point x="870" y="1400" type="curve"/>
      <point x="870" y="1400"/>
      <point x="870" y="145"/>
      <point x="870" y="145" type="curve" smooth="yes"/>
      <point x="870" y="65"/>
      <point x="805" y="0"/>
      <point x="725" y="0" type="curve" smooth="yes"/>
      <point x="725" y="0"/>
      <point x="245" y="0"/>
      <point x="245" y="0" type="curve" smooth="yes"/>
      <point x="165" y="0"/>
      <point x="100" y="65"/>
      <point x="100" y="145" type="curve" smooth="yes"/>
      <point x="100" y="145"/>
      <point x="100" y="1400"/>
      <point x="100" y="1400" type="curve"/>
      <point x="100" y="1400"/>
      <point x="350" y="1400"/>
    </contour>
    <contour>
      <point x="725" y="1750" type="curve"/>
      <point x="725" y="1750"/>
      <point x="525" y="1490"/>
      <point x="525" y="1490" type="curve"/>
      <point x="525" y="1490"/>
      <point x="365" y="1490"/>
      <point x="365" y="1490" type="curve"/>
      <point x="365" y="1490"/>
      <point x="505" y="1750"/>
      <point x="505" y="1750" type="curve"/>
      <point x="505" y="1750"/>
      <point x="725" y="1750"/>
    </contour>
  </outline>
</glyph>
<glyph name="yacute" format="1">
  <advance width="920"/>
  <unicode hex="00FD"/>
  <outline>
    <contour>
      <point x="860" y="1400" type="curve"/>
      <point x="860" y="1400"/>
      <point x="585" y="506"/>
      <point x="585" y="506" type="curve"/>
      <point x="585" y="506"/>
      <point x="585" y="0"/>
      <point x="585" y="0" type="curve"/>
      <point x="585" y="0"/>
      <point x="335" y="0"/>
      <point x="335" y="0" type="curve"/>
      <point x="335" y="0"/>
      <point x="335" y="506"/>
      <point x="335" y="506" type="curve"/>
      <point x="335" y="506"/>
      <point x="60" y="1400"/>
      <point x="60" y="1400" type="curve"/>
      <point x="60" y="1400"/>
      <point x="310" y="1400"/>
      <point x="310" y="1400" type="curve"/>
      <point x="310" y="1400"/>
      <point x="460" y="810"/>
      <point x="460" y="810" type="curve"/>
      <point x="460" y="810"/>
      <point x="600" y="1400"/>
      <point x="600" y="1400" type="curve"/>
      <point x="600" y="1400"/>
      <point x="860" y="1400"/>
    </contour>
    <contour>
      <point x="690" y="1750" type="curve"/>
      <point x="690" y="1750"/>
      <point x="490" y="1490"/>
      <point x="490" y="1490" type="curve"/>
      <point x="490" y="1490"/>
      <point x="330" y="1490"/>
      <point x="330" y="1490" type="curve"/>
      <point x="330" y="1490"/>
      <point x="470" y="1750"/>
      <point x="470" y="1750" type="curve"/>
      <point x="470" y="1750"/>
      <point x="690" y="1750"/>
    </contour>
  </outline>
</glyph>
<glyph name="thorn" format="1">
  <advance width="940"/>
  <unicode hex="00FE"/>
  <outline>
    <contour>
      <point x="840" y="1060" type="curve" smooth="yes"/>
      <point x="840" y="1060"/>
      <point x="840" y="445"/>
      <point x="840" y="445" type="curve" smooth="yes"/>
      <point x="840" y="365"/>
      <point x="775" y="300"/>
      <point x="695" y="300" type="curve" smooth="yes"/>
      <point x="695" y="300"/>
      <point x="350" y="300"/>
      <point x="350" y="300" type="curve"/>
      <point x="350" y="300"/>
      <point x="350" y="0"/>
      <point x="350" y="0" type="curve"/>
      <point x="350" y="0"/>
      <point x="100" y="0"/>
      <point x="100" y="0" type="curve"/>
      <point x="100" y="0"/>
      <point x="100" y="1400"/>
      <point x="100" y="1400" type="curve"/>
      <point x="100" y="1400"/>
      <point x="350" y="1400"/>
      <point x="350" y="1400" type="curve"/>
      <point x="350" y="1400"/>
      <point x="350" y="1200"/>
      <point x="350" y="1200" type="curve"/>
      <point x="350" y="1200"/>
      <point x="700" y="1200"/>
      <point x="700" y="1200" type="curve" smooth="yes"/>
      <point x="777" y="1200"/>
      <point x="840" y="1137"/>
    </contour>
    <contour>
      <point x="350" y="550" type="curve"/>
      <point x="350" y="550"/>
      <point x="590" y="550"/>
      <point x="590" y="550" type="curve"/>
      <point x="590" y="550"/>
      <point x="590" y="960"/>
      <point x="590" y="960" type="curve"/>
      <point x="590" y="960"/>
      <point x="350" y="960"/>
      <point x="350" y="960" type="curve"/>
      <point x="350" y="960"/>
      <point x="350" y="550"/>
    </contour>
  </outline>
</glyph>
<glyph name="ydieresis" format="1">
  <advance width="920"/>
  <unicode hex="00FF"/>
  <outline>
    <contour>
      <point x="860" y="1400" type="curve"/>
      <point x="860" y="1400"/>
      <point x="585" y="506"/>
      <point x="585" y="506" type="curve"/>
      <point x="585" y="506"/>
      <point x="585" y="0"/>
      <point x="585" y="0" type="curve"/>
      <point x="585" y="0"/>
      <point x="335" y="0"/>
      <point x="335" y="0" type="curve"/>
      <point x="335" y="0"/>
      <point x="335" y="506"/>
      <point x="335" y="506" type="curve"/>
      <point x="335" y="506"/>
      <point x="60" y="1400"/>
      <point x="60" y="1400" type="curve"/>
      <point x="60" y="1400"/>
      <point x="310" y="1400"/>
      <point x="310" y="1400" type="curve"/>
      <point x="310" y="1400"/>
      <point x="460" y="810"/>
      <point x="460" y="810" type="curve"/>
      <point x="460" y="810"/>
      <point x="600" y="1400"/>
      <point x="600" y="1400" type="curve"/>
      <point x="600" y="1400"/>
      <point x="860" y="1400"/>
    </contour>
    <contour>
      <point x="265" y="1700" type="curve"/>
      <point x="265" y="1700"/>
      <point x="415" y="1700"/>
      <point x="415" y="1700" type="curve"/>
      <point x="415" y="1700"/>
      <point x="415" y="1550"/>
      <point x="415" y="1550" type="curve"/>
      <point x="415" y="1550"/>
      <point x="265" y="1550"/>
      <point x="265" y="1550" type="curve"/>
      <point x="265" y="1550"/>
      <point x="265" y="1700"/>
    </contour>
    <contour>
      <point x="505" y="1700" type="curve"/>
      <point x="505" y="1700"/>
      <point x="655" y="1700"/>
      <point x="655" y="1700" type="curve"/>
      <point x="655" y="1700"/>
      <point x="655" y="1550"/>
      <point x="655" y="1550" type="curve"/>
      <point x="655" y="1550"/>
      <point x="505" y="1550"/>
      <point x="505" y="1550" type="curve"/>
      <point x="505" y="1550"/>
      <point x="505" y="1700"/>
    </contour>
  </outline>
</glyph>
<glyph name="Abreve" format="1">
  <advance width="940"/>
  <unicode hex="0102"/>
  <outline>
    <contour>
      <point x="230" y="0" type="curve"/>
      <point x="230" y="0"/>
      <point x="0" y="0"/>
      <point x="0" y="0" type="curve"/>
      <point x="0" y="0"/>
      <point x="350" y="1400"/>
      <point x="350" y="1400" type="curve"/>
      <point x="350" y="1400"/>
      <point x="590" y="1400"/>
      <point x="590" y="1400" type="curve"/>
      <point x="590" y="1400"/>
      <point x="940" y="0"/>
      <point x="940" y="0" type="curve"/>
      <point x="940" y="0"/>
      <point x="710" y="0"/>
      <point x="710" y="0" type="curve"/>
      <point x="710" y="0"/>
      <point x="644" y="260"/>
      <point x="644" y="260" type="curve"/>
      <point x="644" y="260"/>
      <point x="296" y="260"/>
      <point x="296" y="260" type="curve"/>
      <point x="296" y="260"/>
      <point x="230" y="0"/>
    </contour>
    <contour>
      <point x="349" y="470" type="curve"/>
      <point x="349" y="470"/>
      <point x="591" y="470"/>
      <point x="591" y="470" type="curve"/>
      <point x="591" y="470"/>
      <point x="470" y="945"/>
      <point x="470" y="945" type="curve"/>
      <point x="470" y="945"/>
      <point x="349" y="470"/>
    </contour>
    <contour>
      <point x="570" y="1504" type="curve" smooth="yes"/>
      <point x="474" y="1504"/>
      <point x="389" y="1575"/>
      <point x="374" y="1667" type="curve"/>
      <point x="374" y="1667"/>
      <point x="485" y="1700"/>
      <point x="485" y="1700" type="curve"/>
      <point x="485" y="1656"/>
      <point x="526" y="1619"/>
      <point x="570" y="1619" type="curve" smooth="yes"/>
      <point x="614" y="1619"/>
      <point x="655" y="1656"/>
      <point x="655" y="1700" type="curve"/>
      <point x="655" y="1700"/>
      <point x="766" y="1667"/>
      <point x="766" y="1667" type="curve"/>
      <point x="751" y="1575"/>
      <point x="666" y="1504"/>
    </contour>
  </outline>
</glyph>
<glyph name="abreve" format="1">
  <advance width="940"/>
  <unicode hex="0103"/>
  <outline>
    <contour>
      <point x="230" y="0" type="curve"/>
      <point x="230" y="0"/>
      <point x="0" y="0"/>
      <point x="0" y="0" type="curve"/>
      <point x="0" y="0"/>
      <point x="350" y="1400"/>
      <point x="350" y="1400" type="curve"/>
      <point x="350" y="1400"/>
      <point x="590" y="1400"/>
      <point x="590" y="1400" type="curve"/>
      <point x="590" y="1400"/>
      <point x="940" y="0"/>
      <point x="940" y="0" type="curve"/>
      <point x="940" y="0"/>
      <point x="710" y="0"/>
      <point x="710" y="0" type="curve"/>
      <point x="710" y="0"/>
      <point x="644" y="260"/>
      <point x="644" y="260" type="curve"/>
      <point x="644" y="260"/>
      <point x="296" y="260"/>
      <point x="296" y="260" type="curve"/>
      <point x="296" y="260"/>
      <point x="230" y="0"/>
    </contour>
    <contour>
      <point x="349" y="470" type="curve"/>
      <point x="349" y="470"/>
      <point x="591" y="470"/>
      <point x="591" y="470" type="curve"/>
      <point x="591" y="470"/>
      <point x="470" y="945"/>
      <point x="470" y="945" type="curve"/>
      <point x="470" y="945"/>
      <point x="349" y="470"/>
    </contour>
    <contour>
      <point x="470" y="1504" type="curve" smooth="yes"/>
      <point x="374" y="1504"/>
      <point x="289" y="1575"/>
      <point x="274" y="1667" type="curve"/>
      <point x="274" y="1667"/>
      <point x="385" y="1700"/>
      <point x="385" y="1700" type="curve"/>
      <point x="385" y="1656"/>
      <point x="426" y="1619"/>
      <point x="470" y="1619" type="curve" smooth="yes"/>
      <point x="514" y="1619"/>
      <point x="555" y="1656"/>
      <point x="555" y="1700" type="curve"/>
      <point x="555" y="1700"/>
      <point x="666" y="1667"/>
      <point x="666" y="1667" type="curve"/>
      <point x="651" y="1575"/>
      <point x="566" y="1504"/>
    </contour>
  </outline>
</glyph>
<glyph name="aogonek" format="1">
  <advance width="940"/>
  <unicode hex="0105"/>
  <outline>
    <contour>
      <point x="230" y="0" type="curve"/>
      <point x="230" y="0"/>
      <point x="80" y="-153"/>
      <point x="80" y="-153" type="curve"/>
      <point x="80" y="-153"/>
      <point x="80" y="-167"/>
      <point x="80" y="-167" type="curve" smooth="yes"/>
      <point x="80" y="-202"/>
      <point x="107" y="-230"/>
      <point x="142" y="-230" type="curve" smooth="yes"/>
      <point x="142" y="-230"/>
      <point x="277" y="-230"/>
      <point x="277" y="-230" type="curve" smooth="yes"/>
      <point x="312" y="-230"/>
      <point x="340" y="-202"/>
      <point x="340" y="-167" type="curve" smooth="yes"/>
      <point x="340" y="-167"/>
      <point x="340" y="-155"/>
      <point x="340" y="-155" type="curve"/>
      <point x="340" y="-155"/>
      <point x="500" y="-155"/>
      <point x="500" y="-155" type="curve"/>
      <point x="500" y="-155"/>
      <point x="500" y="-230"/>
      <point x="500" y="-230" type="curve" smooth="yes"/>
      <point x="500" y="-318"/>
      <point x="428" y="-390"/>
      <point x="340" y="-390" type="curve" smooth="yes"/>
      <point x="340" y="-390"/>
      <point x="80" y="-390"/>
      <point x="80" y="-390" type="curve" smooth="yes"/>
      <point x="-8" y="-390"/>
      <point x="-80" y="-318"/>
      <point x="-80" y="-230" type="curve" smooth="yes"/>
      <point x="-80" y="-230"/>
      <point x="-80" y="-80"/>
      <point x="-80" y="-80" type="curve"/>
      <point x="-80" y="-80"/>
      <point x="0" y="0"/>
      <point x="0" y="0" type="curve"/>
      <point x="0" y="0"/>
      <point x="350" y="1400"/>
      <point x="350" y="1400" type="curve"/>
      <point x="350" y="1400"/>
      <point x="590" y="1400"/>
      <point x="590" y="1400" type="curve"/>
      <point x="590" y="1400"/>
      <point x="940" y="0"/>
      <point x="940" y="0" type="curve"/>
      <point x="940" y="0"/>
      <point x="710" y="0"/>
      <point x="710" y="0" type="curve"/>
      <point x="710" y="0"/>
      <point x="644" y="260"/>
      <point x="644" y="260" type="curve"/>
      <point x="644" y="260"/>
      <point x="296" y="260"/>
      <point x="296" y="260" type="curve"/>
      <point x="296" y="260"/>
      <point x="230" y="0"/>
    </contour>
    <contour>
      <point x="349" y="470" type="curve"/>
      <point x="349" y="470"/>
      <point x="591" y="470"/>
      <point x="591" y="470" type="curve"/>
      <point x="591" y="470"/>
      <point x="470" y="945"/>
      <point x="470" y="945" type="curve"/>
      <point x="470" y="945"/>
      <point x="349" y="470"/>
    </contour>
  </outline>
</glyph>
<glyph name="cacute" format="1">
  <advance width="910"/>
  <unicode hex="0107"/>
  <outline>
    <contour>
      <point x="100" y="145" type="curve" smooth="yes"/>
      <point x="100" y="145"/>
      <point x="100" y="1255"/>
      <point x="100" y="1255" type="curve" smooth="yes"/>
      <point x="100" y="1335"/>
      <point x="165" y="1400"/>
      <point x="245" y="1400" type="curve" smooth="yes"/>
      <point x="245" y="1400"/>
      <point x="665" y="1400"/>
      <point x="665" y="1400" type="curve" smooth="yes"/>
      <point x="745" y="1400"/>
      <point x="810" y="1335"/>
      <point x="810" y="1255" type="curve" smooth="yes"/>
      <point x="810" y="1255"/>
      <point x="810" y="955"/>
      <point x="810" y="955" type="curve"/>
      <point x="810" y="955"/>
      <point x="560" y="955"/>
      <point x="560" y="955" type="curve"/>
      <point x="560" y="955"/>
      <point x="560" y="1143"/>
      <point x="560" y="1143" type="curve"/>
      <point x="560" y="1143"/>
      <point x="360" y="1143"/>
      <point x="360" y="1143" type="curve"/>
      <point x="360" y="1143"/>
      <point x="360" y="260"/>
      <point x="360" y="260" type="curve"/>
      <point x="360" y="260"/>
      <point x="560" y="260"/>
      <point x="560" y="260" type="curve"/>
      <point x="560" y="260"/>
      <point x="560" y="445"/>
      <point x="560" y="445" type="curve"/>
      <point x="560" y="445"/>
      <point x="810" y="445"/>
      <point x="810" y="445" type="curve"/>
      <point x="810" y="445"/>
      <point x="810" y="145"/>
      <point x="810" y="145" type="curve" smooth="yes"/>
      <point x="810" y="66"/>
      <point x="746" y="0"/>
      <point x="667" y="0" type="curve" smooth="yes"/>
      <point x="667" y="0"/>
      <point x="245" y="0"/>
      <point x="245" y="0" type="curve" smooth="yes"/>
      <point x="165" y="0"/>
      <point x="100" y="65"/>
    </contour>
    <contour>
      <point x="700" y="1750" type="curve"/>
      <point x="700" y="1750"/>
      <point x="500" y="1490"/>
      <point x="500" y="1490" type="curve"/>
      <point x="500" y="1490"/>
      <point x="340" y="1490"/>
      <point x="340" y="1490" type="curve"/>
      <point x="340" y="1490"/>
      <point x="480" y="1750"/>
      <point x="480" y="1750" type="curve"/>
      <point x="480" y="1750"/>
      <point x="700" y="1750"/>
    </contour>
  </outline>
</glyph>
<glyph name="Cdotaccent" format="1">
  <advance width="910"/>
  <unicode hex="010A"/>
  <outline>
    <contour>
      <point x="100" y="145" type="curve" smooth="yes"/>
      <point x="100" y="145"/>
      <point x="100" y="1255"/>
      <point x="100" y="1255" type="curve" smooth="yes"/>
      <point x="100" y="1335"/>
      <point x="165" y="1400"/>
      <point x="245" y="1400" type="curve" smooth="yes"/>
      <point x="245" y="1400"/>
      <point x="665" y="1400"/>
      <point x="665" y="1400" type="curve" smooth="yes"/>
      <point x="745" y="1400"/>
      <point x="810" y="1335"/>
      <point x="810" y="1255" type="curve" smooth="yes"/>
      <point x="810" y="1255"/>
      <point x="810" y="955"/>
      <point x="810" y="955" type="curve"/>
      <point x="810" y="955"/>
      <point x="560" y="955"/>
      <point x="560" y="955" type="curve"/>
      <point x="560" y="955"/>
      <point x="560" y="1143"/>
      <point x="560" y="1143" type="curve"/>
      <point x="560" y="1143"/>
      <point x="360" y="1143"/>
      <point x="360" y="1143" type="curve"/>
      <point x="360" y="1143"/>
      <point x="360" y="260"/>
      <point x="360" y="260" type="curve"/>
      <point x="360" y="260"/>
      <point x="560" y="260"/>
      <point x="560" y="260" type="curve"/>
      <point x="560" y="260"/>
      <point x="560" y="445"/>
      <point x="560" y="445" type="curve"/>
      <point x="560" y="445"/>
      <point x="810" y="445"/>
      <point x="810" y="445" type="curve"/>
      <point x="810" y="445"/>
      <point x="810" y="145"/>
      <point x="810" y="145" type="curve" smooth="yes"/>
      <point x="810" y="66"/>
      <point x="746" y="0"/>
      <point x="667" y="0" type="curve" smooth="yes"/>
      <point x="667" y="0"/>
      <point x="245" y="0"/>
      <point x="245" y="0" type="curve" smooth="yes"/>
      <point x="165" y="0"/>
      <point x="100" y="65"/>
    </contour>
    <contour>
      <point x="380" y="1700" type="curve"/>
      <point x="380" y="1700"/>
      <point x="530" y="1700"/>
      <point x="530" y="1700" type="curve"/>
      <point x="530" y="1700"/>
      <point x="530" y="1550"/>
      <point x="530" y="1550" type="curve"/>
      <point x="530" y="1550"/>
      <point x="380" y="1550"/>
      <point x="380" y="1550" type="curve"/>
      <point x="380" y="1550"/>
      <point x="380" y="1700"/>
    </contour>
  </outline>
</glyph>
<glyph name="dcaron" format="1">
  <advance width="890"/>
  <unicode hex="010F"/>
  <outline>
    <contour>
      <point x="100" y="0" type="curve"/>
      <point x="100" y="0"/>
      <point x="100" y="1400"/>
      <point x="100" y="1400" type="curve"/>
      <point x="100" y="1400"/>
      <point x="630" y="1400"/>
      <point x="630" y="1400" type="curve" smooth="yes"/>
      <point x="718" y="1400"/>
      <point x="790" y="1328"/>
      <point x="790" y="1240" type="curve" smooth="yes"/>
      <point x="790" y="1240"/>
      <point x="790" y="160"/>
      <point x="790" y="160" type="curve" smooth="yes"/>
      <point x="790" y="72"/>
      <point x="718" y="0"/>
      <point x="630" y="0" type="curve" smooth="yes"/>
      <point x="630" y="0"/>
      <point x="100" y="0"/>
    </contour>
    <contour>
      <point x="350" y="230" type="curve"/>
      <point x="350" y="230"/>
      <point x="529" y="230"/>
      <point x="529" y="230" type="curve" smooth="yes"/>
      <point x="541" y="230"/>
      <point x="550" y="239"/>
      <point x="550" y="251" type="curve" smooth="yes"/>
      <point x="550" y="251"/>
      <point x="550" y="1149"/>
      <point x="550" y="1149" type="curve" smooth="yes"/>
      <point x="550" y="1161"/>
      <point x="541" y="1170"/>
      <point x="529" y="1170" type="curve" smooth="yes"/>
      <point x="529" y="1170"/>
      <point x="350" y="1170"/>
      <point x="350" y="1170" type="curve"/>
      <point x="350" y="1170"/>
      <point x="350" y="230"/>
    </contour>
    <contour>
      <point x="359" y="1500" type="curve"/>
      <point x="359" y="1500"/>
      <point x="175" y="1800"/>
      <point x="175" y="1800" type="curve"/>
      <point x="175" y="1800"/>
      <point x="330" y="1800"/>
      <point x="330" y="1800" type="curve"/>
      <point x="330" y="1800"/>
      <point x="446" y="1618"/>
      <point x="446" y="1618" type="curve"/>
      <point x="446" y="1618"/>
      <point x="561" y="1800"/>
      <point x="561" y="1800" type="curve"/>
      <point x="561" y="1800"/>
      <point x="716" y="1800"/>
      <point x="716" y="1800" type="curve"/>
      <point x="716" y="1800"/>
      <point x="532" y="1500"/>
      <point x="532" y="1500" type="curve"/>
      <point x="532" y="1500"/>
      <point x="359" y="1500"/>
    </contour>
  </outline>
</glyph>
<glyph name="dcroat" format="1">
  <advance width="890"/>
  <unicode hex="0111"/>
  <outline>
    <contour>
      <point x="100" y="0" type="curve"/>
      <point x="100" y="0"/>
      <point x="100" y="645"/>
      <point x="100" y="645" type="curve"/>
      <point x="100" y="645"/>
      <point x="60" y="645"/>
      <point x="60" y="645" type="curve"/>
      <point x="60" y="645"/>
      <point x="60" y="755"/>
      <point x="60" y="755" type="curve"/>
      <point x="60" y="755"/>
      <point x="100" y="755"/>
      <point x="100" y="755" type="curve"/>
      <point x="100" y="755"/>
      <point x="100" y="1400"/>
      <point x="100" y="1400" type="curve"/>
      <point x="100" y="1400"/>
      <point x="630" y="1400"/>
      <point x="630" y="1400" type="curve" smooth="yes"/>
      <point x="718" y="1400"/>
      <point x="790" y="1328"/>
      <point x="790" y="1240" type="curve" smooth="yes"/>
      <point x="790" y="1240"/>
      <point x="790" y="160"/>
      <point x="790" y="160" type="curve" smooth="yes"/>
      <point x="790" y="72"/>
      <point x="718" y="0"/>
      <point x="630" y="0" type="curve" smooth="yes"/>
      <point x="630" y="0"/>
      <point x="100" y="0"/>
    </contour>
    <contour>
      <point x="350" y="645" type="curve"/>
      <point x="350" y="645"/>
      <point x="350" y="230"/>
      <point x="350" y="230" type="curve"/>
      <point x="350" y="230"/>
      <point x="529" y="230"/>
      <point x="529" y="230" type="curve" smooth="yes"/>
      <point x="541" y="230"/>
      <point x="550" y="239"/>
      <point x="550" y="251" type="curve" smooth="yes"/>
      <point x="550" y="251"/>
      <point x="550" y="1149"/>
      <point x="550" y="1149" type="curve" smooth="yes"/>
      <point x="550" y="1161"/>
      <point x="541" y="1170"/>
      <point x="529" y="1170" type="curve" smooth="yes"/>
      <point x="529" y="1170"/>
      <point x="350" y="1170"/>
      <point x="350" y="1170" type="curve"/>
      <point x="350" y="1170"/>
      <point x="350" y="755"/>
      <point x="350" y="755" type="curve"/>
      <point x="350" y="755"/>
      <point x="500" y="755"/>
      <point x="500" y="755" type="curve"/>
      <point x="500" y="755"/>
      <point x="500" y="645"/>
      <point x="500" y="645" type="curve"/>
      <point x="500" y="645"/>
      <point x="350" y="645"/>
    </contour>
  </outline>
</glyph>
<glyph name="emacron" format="1">
  <advance width="912"/>
  <unicode hex="0113"/>
  <outline>
    <contour>
      <point x="100" y="0" type="curve"/>
      <point x="100" y="0"/>
      <point x="100" y="1400"/>
      <point x="100" y="1400" type="curve"/>
      <point x="100" y="1400"/>
      <point x="810" y="1400"/>
      <point x="810" y="1400" type="curve"/>
      <point x="810" y="1400"/>
      <point x="810" y="1170"/>
      <point x="810" y="1170" type="curve"/>
      <point x="810" y="1170"/>
      <point x="350" y="1170"/>
      <point x="350" y="1170" type="curve"/>
      <point x="350" y="1170"/>
      <point x="350" y="820"/>
      <point x="350" y="820" type="curve"/>
      <point x="350" y="820"/>
      <point x="730" y="820"/>
      <point x="730" y="820" type="curve"/>
      <point x="730" y="820"/>
      <point x="730" y="580"/>
      <point x="730" y="580" type="curve"/>
      <point x="730" y="580"/>
      <point x="350" y="580"/>
      <point x="350" y="580" type="curve"/>
      <point x="350" y="580"/>
      <point x="350" y="240"/>
      <point x="350" y="240" type="curve"/>
      <point x="350" y="240"/>
      <point x="812" y="240"/>
      <point x="812" y="240" type="curve"/>
      <point x="812" y="240"/>
      <point x="812" y="0"/>
      <point x="812" y="0" type="curve"/>
      <point x="812" y="0"/>
      <point x="100" y="0"/>
    </contour>
    <contour>
      <point x="236" y="1640" type="curve"/>
      <point x="236" y="1640"/>
      <point x="676" y="1640"/>
      <point x="676" y="1640" type="curve"/>
      <point x="676" y="1640"/>
      <point x="676" y="1530"/>
      <point x="676" y="1530" type="curve"/>
      <point x="676" y="1530"/>
      <point x="236" y="1530"/>
      <point x="236" y="1530" type="curve"/>
      <point x="236" y="1530"/>
      <point x="236" y="1640"/>
    </contour>
  </outline>
</glyph>
<glyph name="ebreve" format="1">
  <advance width="912"/>
  <unicode hex="0115"/>
  <outline>
    <contour>
      <point x="100" y="0" type="curve"/>
      <point x="100" y="0"/>
      <point x="100" y="1400"/>
      <point x="100" y="1400" type="curve"/>
      <point x="100" y="1400"/>
      <point x="810" y="1400"/>
      <point x="810" y="1400" type="curve"/>
      <point x="810" y="1400"/>
      <point x="810" y="1170"/>
      <point x="810" y="1170" type="curve"/>
      <point x="810" y="1170"/>
      <point x="350" y="1170"/>
      <point x="350" y="1170" type="curve"/>
      <point x="350" y="1170"/>
      <point x="350" y="820"/>
      <point x="350" y="820" type="curve"/>
      <point x="350" y="820"/>
      <point x="730" y="820"/>
      <point x="730" y="820" type="curve"/>
      <point x="730" y="820"/>
      <point x="730" y="580"/>
      <point x="730" y="580" type="curve"/>
      <point x="730" y="580"/>
      <point x="350" y="580"/>
      <point x="350" y="580" type="curve"/>
      <point x="350" y="580"/>
      <point x="350" y="240"/>
      <point x="350" y="240" type="curve"/>
      <point x="350" y="240"/>
      <point x="812" y="240"/>
      <point x="812" y="240" type="curve"/>
      <point x="812" y="240"/>
      <point x="812" y="0"/>
      <point x="812" y="0" type="curve"/>
      <point x="812" y="0"/>
      <point x="100" y="0"/>
    </contour>
    <contour>
      <point x="456" y="1504" type="curve" smooth="yes"/>
      <point x="360" y="1504"/>
      <point x="275" y="1575"/>
      <point x="260" y="1667" type="curve"/>
      <point x="260" y="1667"/>
      <point x="371" y="1700"/>
      <point x="371" y="1700" type="curve"/>
      <point x="371" y="1656"/>
      <point x="412" y="1619"/>
      <point x="456" y="1619" type="curve" smooth="yes"/>
      <point x="500" y="1619"/>
      <point x="541" y="1656"/>
      <point x="541" y="1700" type="curve"/>
      <point x="541" y="1700"/>
      <point x="652" y="1667"/>
      <point x="652" y="1667" type="curve"/>
      <point x="637" y="1575"/>
      <point x="552" y="1504"/>
    </contour>
  </outline>
</glyph>
<glyph name="Eogonek" format="1">
  <advance width="912"/>
  <unicode hex="0118"/>
  <outline>
    <contour>
      <point x="542" y="0" type="curve"/>
      <point x="542" y="0"/>
      <point x="392" y="-153"/>
      <point x="392" y="-153" type="curve"/>
      <point x="392" y="-153"/>
      <point x="392" y="-167"/>
      <point x="392" y="-167" type="curve" smooth="yes"/>
      <point x="392" y="-202"/>
      <point x="419" y="-230"/>
      <point x="454" y="-230" type="curve" smooth="yes"/>
      <point x="454" y="-230"/>
      <point x="589" y="-230"/>
      <point x="589" y="-230" type="curve" smooth="yes"/>
      <point x="624" y="-230"/>
      <point x="652" y="-202"/>
      <point x="652" y="-167" type="curve" smooth="yes"/>
      <point x="652" y="-167"/>
      <point x="652" y="-155"/>
      <point x="652" y="-155" type="curve"/>
      <point x="652" y="-155"/>
      <point x="812" y="-155"/>
      <point x="812" y="-155" type="curve"/>
      <point x="812" y="-155"/>
      <point x="812" y="-230"/>
      <point x="812" y="-230" type="curve" smooth="yes"/>
      <point x="812" y="-318"/>
      <point x="740" y="-390"/>
      <point x="652" y="-390" type="curve" smooth="yes"/>
      <point x="652" y="-390"/>
      <point x="392" y="-390"/>
      <point x="392" y="-390" type="curve" smooth="yes"/>
      <point x="304" y="-390"/>
      <point x="232" y="-318"/>
      <point x="232" y="-230" type="curve" smooth="yes"/>
      <point x="232" y="-230"/>
      <point x="232" y="-80"/>
      <point x="232" y="-80" type="curve"/>
      <point x="232" y="-80"/>
      <point x="312" y="0"/>
      <point x="312" y="0" type="curve"/>
      <point x="312" y="0"/>
      <point x="100" y="0"/>
      <point x="100" y="0" type="curve"/>
      <point x="100" y="0"/>
      <point x="100" y="1400"/>
      <point x="100" y="1400" type="curve"/>
      <point x="100" y="1400"/>
      <point x="810" y="1400"/>
      <point x="810" y="1400" type="curve"/>
      <point x="810" y="1400"/>
      <point x="810" y="1170"/>
      <point x="810" y="1170" type="curve"/>
      <point x="810" y="1170"/>
      <point x="350" y="1170"/>
      <point x="350" y="1170" type="curve"/>
      <point x="350" y="1170"/>
      <point x="350" y="820"/>
      <point x="350" y="820" type="curve"/>
      <point x="350" y="820"/>
      <point x="730" y="820"/>
      <point x="730" y="820" type="curve"/>
      <point x="730" y="820"/>
      <point x="730" y="580"/>
      <point x="730" y="580" type="curve"/>
      <point x="730" y="580"/>
      <point x="350" y="580"/>
      <point x="350" y="580" type="curve"/>
      <point x="350" y="580"/>
      <point x="350" y="240"/>
      <point x="350" y="240" type="curve"/>
      <point x="350" y="240"/>
      <point x="812" y="240"/>
      <point x="812" y="240" type="curve"/>
      <point x="812" y="240"/>
      <point x="812" y="0"/>
      <point x="812" y="0" type="curve"/>
      <point x="812" y="0"/>
      <point x="542" y="0"/>
    </contour>
  </outline>
</glyph>
<glyph name="Ecaron" format="1">
  <advance width="912"/>
  <unicode hex="011A"/>
  <outline>
    <contour>
      <point x="100" y="0" type="curve"/>
      <point x="100" y="0"/>
      <point x="100" y="1400"/>
      <point x="100" y="1400" type="curve"/>
      <point x="100" y="1400"/>
      <point x="810" y="1400"/>
      <point x="810" y="1400" type="curve"/>
      <point x="810" y="1400"/>
      <point x="810" y="1170"/>
      <point x="810" y="1170" type="curve"/>
      <point x="810" y="1170"/>
      <point x="350" y="1170"/>
      <point x="350" y="1170" type="curve"/>
      <point x="350" y="1170"/>
      <point x="350" y="820"/>
      <point x="350" y="820" type="curve"/>
      <point x="350" y="820"/>
      <point x="730" y="820"/>
      <point x="730" y="820" type="curve"/>
      <point x="730" y="820"/>
      <point x="730" y="580"/>
      <point x="730" y="580" type="curve"/>
      <point x="730" y="580"/>
      <point x="350" y="580"/>
      <point x="350" y="580" type="curve"/>
      <point x="350" y="580"/>
      <point x="350" y="240"/>
      <point x="350" y="240" type="curve"/>
      <point x="350" y="240"/>
      <point x="812" y="240"/>
      <point x="812" y="240" type="curve"/>
      <point x="812" y="240"/>
      <point x="812" y="0"/>
      <point x="812" y="0" type="curve"/>
      <point x="812" y="0"/>
      <point x="100" y="0"/>
    </contour>
    <contour>
      <point x="369" y="1500" type="curve"/>
      <point x="369" y="1500"/>
      <point x="185" y="1800"/>
      <point x="185" y="1800" type="curve"/>
      <point x="185" y="1800"/>
      <point x="340" y="1800"/>
      <point x="340" y="1800" type="curve"/>
      <point x="340" y="1800"/>
      <point x="456" y="1618"/>
      <point x="456" y="1618" type="curve"/>
      <point x="456" y="1618"/>
      <point x="571" y="1800"/>
      <point x="571" y="1800" type="curve"/>
      <point x="571" y="1800"/>
      <point x="726" y="1800"/>
      <point x="726" y="1800" type="curve"/>
      <point x="726" y="1800"/>
      <point x="542" y="1500"/>
      <point x="542" y="1500" type="curve"/>
      <point x="542" y="1500"/>
      <point x="369" y="1500"/>
    </contour>
  </outline>
</glyph>
<glyph name="uni0122" format="1">
  <advance width="932"/>
  <unicode hex="0122"/>
  <outline>
    <contour>
      <point x="470" y="-150" type="curve"/>
      <point x="470" y="-150"/>
      <point x="324" y="0"/>
      <point x="324" y="0" type="curve"/>
      <point x="324" y="0"/>
      <point x="245" y="0"/>
      <point x="245" y="0" type="curve" smooth="yes"/>
      <point x="165" y="0"/>
      <point x="100" y="65"/>
      <point x="100" y="145" type="curve" smooth="yes"/>
      <point x="100" y="145"/>
      <point x="100" y="1255"/>
      <point x="100" y="1255" type="curve" smooth="yes"/>
      <point x="100" y="1335"/>
      <point x="165" y="1400"/>
      <point x="245" y="1400" type="curve" smooth="yes"/>
      <point x="245" y="1400"/>
      <point x="685" y="1400"/>
      <point x="685" y="1400" type="curve" smooth="yes"/>
      <point x="765" y="1400"/>
      <point x="830" y="1335"/>
      <point x="830" y="1255" type="curve" smooth="yes"/>
      <point x="830" y="1255"/>
      <point x="830" y="955"/>
      <point x="830" y="955" type="curve"/>
      <point x="830" y="955"/>
      <point x="600" y="955"/>
      <point x="600" y="955" type="curve"/>
      <point x="600" y="955"/>
      <point x="600" y="1152"/>
      <point x="600" y="1152" type="curve"/>
      <point x="600" y="1152"/>
      <point x="350" y="1152"/>
      <point x="350" y="1152" type="curve"/>
      <point x="350" y="1152"/>
      <point x="350" y="248"/>
      <point x="350" y="248" type="curve"/>
      <point x="350" y="248"/>
      <point x="537" y="248"/>
      <point x="537" y="248" type="curve" smooth="yes"/>
      <point x="572" y="248"/>
      <point x="600" y="276"/>
      <point x="600" y="311" type="curve" smooth="yes"/>
      <point x="600" y="311"/>
      <point x="600" y="470"/>
      <point x="600" y="470" type="curve"/>
      <point x="600" y="470"/>
      <point x="480" y="470"/>
      <point x="480" y="470" type="curve"/>
      <point x="480" y="470"/>
      <point x="480" y="700"/>
      <point x="480" y="700" type="curve"/>
      <point x="480" y="700"/>
      <point x="830" y="700"/>
      <point x="830" y="700" type="curve"/>
      <point x="830" y="700"/>
      <point x="830" y="144"/>
      <point x="830" y="144" type="curve" smooth="yes"/>
      <point x="830" y="89"/>
      <point x="859" y="42"/>
      <point x="904" y="18" type="curve" smooth="yes"/>
      <point x="907" y="16"/>
      <point x="912" y="14"/>
      <point x="912" y="8" type="curve" smooth="yes"/>
      <point x="912" y="2"/>
      <point x="909" y="0"/>
      <point x="904" y="0" type="curve" smooth="yes"/>
      <point x="904" y="0"/>
      <point x="826" y="0"/>
      <point x="826" y="0" type="curve" smooth="yes"/>
      <point x="746" y="0"/>
      <point x="681" y="66"/>
      <point x="680" y="148" type="curve"/>
      <point x="680" y="148"/>
      <point x="678" y="148"/>
      <point x="678" y="148" type="curve"/>
      <point x="678" y="148"/>
      <point x="678" y="140"/>
      <point x="678" y="140" type="curve" smooth="yes"/>
      <point x="678" y="67"/>
      <point x="621" y="7"/>
      <point x="549" y="0" type="curve"/>
      <point x="549" y="0"/>
      <point x="630" y="-80"/>
      <point x="630" y="-80" type="curve"/>
      <point x="630" y="-80"/>
      <point x="630" y="-230"/>
      <point x="630" y="-230" type="curve" smooth="yes"/>
      <point x="630" y="-318"/>
      <point x="558" y="-390"/>
      <point x="470" y="-390" type="curve" smooth="yes"/>
      <point x="470" y="-390"/>
      <point x="210" y="-390"/>
      <point x="210" y="-390" type="curve" smooth="yes"/>
      <point x="122" y="-390"/>
      <point x="50" y="-318"/>
      <point x="50" y="-230" type="curve" smooth="yes"/>
      <point x="50" y="-230"/>
      <point x="50" y="-155"/>
      <point x="50" y="-155" type="curve"/>
      <point x="50" y="-155"/>
      <point x="210" y="-155"/>
      <point x="210" y="-155" type="curve"/>
      <point x="210" y="-155"/>
      <point x="210" y="-167"/>
      <point x="210" y="-167" type="curve" smooth="yes"/>
      <point x="210" y="-202"/>
      <point x="238" y="-230"/>
      <point x="273" y="-230" type="curve" smooth="yes"/>
      <point x="273" y="-230"/>
      <point x="408" y="-230"/>
      <point x="408" y="-230" type="curve" smooth="yes"/>
      <point x="443" y="-230"/>
      <point x="470" y="-202"/>
      <point x="470" y="-167" type="curve" smooth="yes"/>
      <point x="470" y="-167"/>
      <point x="470" y="-150"/>
    </contour>
  </outline>
</glyph>
<glyph name="hcircumflex" format="1">
  <advance width="970"/>
  <unicode hex="0125"/>
  <outline>
    <contour>
      <point x="350" y="0" type="curve"/>
      <point x="350" y="0"/>
      <point x="100" y="0"/>
      <point x="100" y="0" type="curve"/>
      <point x="100" y="0"/>
      <point x="100" y="1400"/>
      <point x="100" y="1400" type="curve"/>
      <point x="100" y="1400"/>
      <point x="350" y="1400"/>
      <point x="350" y="1400" type="curve"/>
      <point x="350" y="1400"/>
      <point x="350" y="810"/>
      <point x="350" y="810" type="curve"/>
      <point x="350" y="810"/>
      <point x="620" y="810"/>
      <point x="620" y="810" type="curve"/>
      <point x="620" y="810"/>
      <point x="620" y="1400"/>
      <point x="620" y="1400" type="curve"/>
      <point x="620" y="1400"/>
      <point x="870" y="1400"/>
      <point x="870" y="1400" type="curve"/>
      <point x="870" y="1400"/>
      <point x="870" y="0"/>
      <point x="870" y="0" type="curve"/>
      <point x="870" y="0"/>
      <point x="620" y="0"/>
      <point x="620" y="0" type="curve"/>
      <point x="620" y="0"/>
      <point x="620" y="570"/>
      <point x="620" y="570" type="curve"/>
      <point x="620" y="570"/>
      <point x="350" y="570"/>
      <point x="350" y="570" type="curve"/>
      <point x="350" y="570"/>
      <point x="350" y="0"/>
    </contour>
    <contour>
      <point x="399" y="1800" type="curve"/>
      <point x="399" y="1800"/>
      <point x="572" y="1800"/>
      <point x="572" y="1800" type="curve"/>
      <point x="572" y="1800"/>
      <point x="756" y="1500"/>
      <point x="756" y="1500" type="curve"/>
      <point x="756" y="1500"/>
      <point x="601" y="1500"/>
      <point x="601" y="1500" type="curve"/>
      <point x="601" y="1500"/>
      <point x="486" y="1682"/>
      <point x="486" y="1682" type="curve"/>
      <point x="486" y="1682"/>
      <point x="370" y="1500"/>
      <point x="370" y="1500" type="curve"/>
      <point x="370" y="1500"/>
      <point x="215" y="1500"/>
      <point x="215" y="1500" type="curve"/>
      <point x="215" y="1500"/>
      <point x="399" y="1800"/>
    </contour>
  </outline>
</glyph>
<glyph name="hbar" format="1">
  <advance width="990"/>
  <unicode hex="0127"/>
  <outline>
    <contour>
      <point x="350" y="0" type="curve"/>
      <point x="350" y="0"/>
      <point x="100" y="0"/>
      <point x="100" y="0" type="curve"/>
      <point x="100" y="0"/>
      <point x="100" y="940"/>
      <point x="100" y="940" type="curve"/>
      <point x="100" y="940"/>
      <point x="20" y="940"/>
      <point x="20" y="940" type="curve"/>
      <point x="20" y="940"/>
      <point x="20" y="1050"/>
      <point x="20" y="1050" type="curve"/>
      <point x="20" y="1050"/>
      <point x="100" y="1050"/>
      <point x="100" y="1050" type="curve"/>
      <point x="100" y="1050"/>
      <point x="100" y="1400"/>
      <point x="100" y="1400" type="curve"/>
      <point x="100" y="1400"/>
      <point x="350" y="1400"/>
      <point x="350" y="1400" type="curve"/>
      <point x="350" y="1400"/>
      <point x="350" y="1050"/>
      <point x="350" y="1050" type="curve"/>
      <point x="350" y="1050"/>
      <point x="620" y="1050"/>
      <point x="620" y="1050" type="curve"/>
      <point x="620" y="1050"/>
      <point x="620" y="1400"/>
      <point x="620" y="1400" type="curve"/>
      <point x="620" y="1400"/>
      <point x="870" y="1400"/>
      <point x="870" y="1400" type="curve"/>
      <point x="870" y="1400"/>
      <point x="870" y="1050"/>
      <point x="870" y="1050" type="curve"/>
      <point x="870" y="1050"/>
      <point x="970" y="1050"/>
      <point x="970" y="1050" type="curve"/>
      <point x="970" y="1050"/>
      <point x="970" y="940"/>
      <point x="970" y="940" type="curve"/>
      <point x="970" y="940"/>
      <point x="870" y="940"/>
      <point x="870" y="940" type="curve"/>
      <point x="870" y="940"/>
      <point x="870" y="0"/>
      <point x="870" y="0" type="curve"/>
      <point x="870" y="0"/>
      <point x="620" y="0"/>
      <point x="620" y="0" type="curve"/>
      <point x="620" y="0"/>
      <point x="620" y="570"/>
      <point x="620" y="570" type="curve"/>
      <point x="620" y="570"/>
      <point x="350" y="570"/>
      <point x="350" y="570" type="curve"/>
      <point x="350" y="570"/>
      <point x="350" y="0"/>
    </contour>
    <contour>
      <point x="620" y="940" type="curve"/>
      <point x="620" y="940"/>
      <point x="350" y="940"/>
      <point x="350" y="940" type="curve"/>
      <point x="350" y="940"/>
      <point x="350" y="810"/>
      <point x="350" y="810" type="curve"/>
      <point x="350" y="810"/>
      <point x="620" y="810"/>
      <point x="620" y="810" type="curve"/>
      <point x="620" y="810"/>
      <point x="620" y="940"/>
    </contour>
  </outline>
</glyph>
<glyph name="Itilde" format="1">
  <advance width="702"/>
  <unicode hex="0128"/>
  <outline>
    <contour>
      <point x="100" y="1400" type="curve"/>
      <point x="100" y="1400"/>
      <point x="350" y="1400"/>
      <point x="350" y="1400" type="curve"/>
      <point x="350" y="1400"/>
      <point x="350" y="0"/>
      <point x="350" y="0" type="curve"/>
      <point x="350" y="0"/>
      <point x="100" y="0"/>
      <point x="100" y="0" type="curve"/>
      <point x="100" y="0"/>
      <point x="100" y="1400"/>
    </contour>
    <contour>
      <point x="388" y="1653" type="curve"/>
      <point x="388" y="1653"/>
      <point x="477" y="1626"/>
      <point x="477" y="1626" type="curve"/>
      <point x="464" y="1553"/>
      <point x="396" y="1496"/>
      <point x="320" y="1496" type="curve" smooth="yes"/>
      <point x="254" y="1496"/>
      <point x="200" y="1535"/>
      <point x="178" y="1593" type="curve"/>
      <point x="167" y="1608"/>
      <point x="152" y="1619"/>
      <point x="132" y="1619" type="curve" smooth="yes"/>
      <point x="97" y="1619"/>
      <point x="64" y="1589"/>
      <point x="64" y="1553" type="curve"/>
      <point x="64" y="1553"/>
      <point x="-25" y="1580"/>
      <point x="-25" y="1580" type="curve"/>
      <point x="-13" y="1653"/>
      <point x="55" y="1710"/>
      <point x="132" y="1710" type="curve" smooth="yes"/>
      <point x="197" y="1710"/>
      <point x="252" y="1671"/>
      <point x="273" y="1613" type="curve"/>
      <point x="285" y="1598"/>
      <point x="299" y="1587"/>
      <point x="320" y="1587" type="curve" smooth="yes"/>
      <point x="355" y="1587"/>
      <point x="388" y="1617"/>
    </contour>
  </outline>
</glyph>
<glyph name="Imacron" format="1">
  <advance width="645"/>
  <unicode hex="012A"/>
  <outline>
    <contour>
      <point x="100" y="1400" type="curve"/>
      <point x="100" y="1400"/>
      <point x="350" y="1400"/>
      <point x="350" y="1400" type="curve"/>
      <point x="350" y="1400"/>
      <point x="350" y="0"/>
      <point x="350" y="0" type="curve"/>
      <point x="350" y="0"/>
      <point x="100" y="0"/>
      <point x="100" y="0" type="curve"/>
      <point x="100" y="0"/>
      <point x="100" y="1400"/>
    </contour>
    <contour>
      <point x="5" y="1640" type="curve"/>
      <point x="5" y="1640"/>
      <point x="445" y="1640"/>
      <point x="445" y="1640" type="curve"/>
      <point x="445" y="1640"/>
      <point x="445" y="1530"/>
      <point x="445" y="1530" type="curve"/>
      <point x="445" y="1530"/>
      <point x="5" y="1530"/>
      <point x="5" y="1530" type="curve"/>
      <point x="5" y="1530"/>
      <point x="5" y="1640"/>
    </contour>
  </outline>
</glyph>
<glyph name="imacron" format="1">
  <advance width="645"/>
  <unicode hex="012B"/>
  <outline>
    <contour>
      <point x="200" y="1400" type="curve"/>
      <point x="200" y="1400"/>
      <point x="450" y="1400"/>
      <point x="450" y="1400" type="curve"/>
      <point x="450" y="1400"/>
      <point x="450" y="0"/>
      <point x="450" y="0" type="curve"/>
      <point x="450" y="0"/>
      <point x="200" y="0"/>
      <point x="200" y="0" type="curve"/>
      <point x="200" y="0"/>
      <point x="200" y="1400"/>
    </contour>
    <contour>
      <point x="105" y="1640" type="curve"/>
      <point x="105" y="1640"/>
      <point x="545" y="1640"/>
      <point x="545" y="1640" type="curve"/>
      <point x="545" y="1640"/>
      <point x="545" y="1530"/>
      <point x="545" y="1530" type="curve"/>
      <point x="545" y="1530"/>
      <point x="105" y="1530"/>
      <point x="105" y="1530" type="curve"/>
      <point x="105" y="1530"/>
      <point x="105" y="1640"/>
    </contour>
  </outline>
</glyph>
<glyph name="Ibreve" format="1">
  <advance width="592"/>
  <unicode hex="012C"/>
  <outline>
    <contour>
      <point x="100" y="1400" type="curve"/>
      <point x="100" y="1400"/>
      <point x="350" y="1400"/>
      <point x="350" y="1400" type="curve"/>
      <point x="350" y="1400"/>
      <point x="350" y="0"/>
      <point x="350" y="0" type="curve"/>
      <point x="350" y="0"/>
      <point x="100" y="0"/>
      <point x="100" y="0" type="curve"/>
      <point x="100" y="0"/>
      <point x="100" y="1400"/>
    </contour>
    <contour>
      <point x="226" y="1504" type="curve" smooth="yes"/>
      <point x="130" y="1504"/>
      <point x="45" y="1575"/>
      <point x="30" y="1667" type="curve"/>
      <point x="30" y="1667"/>
      <point x="141" y="1700"/>
      <point x="141" y="1700" type="curve"/>
      <point x="141" y="1656"/>
      <point x="182" y="1619"/>
      <point x="226" y="1619" type="curve" smooth="yes"/>
      <point x="270" y="1619"/>
      <point x="311" y="1656"/>
      <point x="311" y="1700" type="curve"/>
      <point x="311" y="1700"/>
      <point x="422" y="1667"/>
      <point x="422" y="1667" type="curve"/>
      <point x="407" y="1575"/>
      <point x="322" y="1504"/>
    </contour>
  </outline>
</glyph>
<glyph name="iogonek" format="1">
  <advance width="720"/>
  <unicode hex="012F"/>
  <outline>
    <contour>
      <point x="100" y="-20" type="curve"/>
      <point x="100" y="-20"/>
      <point x="100" y="1400"/>
      <point x="100" y="1400" type="curve"/>
      <point x="100" y="1400"/>
      <point x="350" y="1400"/>
      <point x="350" y="1400" type="curve"/>
      <point x="350" y="1400"/>
      <point x="350" y="0"/>
      <point x="350" y="0" type="curve"/>
      <point x="350" y="0"/>
      <point x="200" y="-153"/>
      <point x="200" y="-153" type="curve"/>
      <point x="200" y="-153"/>
      <point x="200" y="-167"/>
      <point x="200" y="-167" type="curve" smooth="yes"/>
      <point x="200" y="-202"/>
      <point x="227" y="-230"/>
      <point x="262" y="-230" type="curve" smooth="yes"/>
      <point x="262" y="-230"/>
      <point x="397" y="-230"/>
      <point x="397" y="-230" type="curve" smooth="yes"/>
      <point x="432" y="-230"/>
      <point x="460" y="-202"/>
      <point x="460" y="-167" type="curve" smooth="yes"/>
      <point x="460" y="-167"/>
      <point x="460" y="-155"/>
      <point x="460" y="-155" type="curve"/>
      <point x="460" y="-155"/>
      <point x="620" y="-155"/>
      <point x="620" y="-155" type="curve"/>
      <point x="620" y="-155"/>
      <point x="620" y="-230"/>
      <point x="620" y="-230" type="curve" smooth="yes"/>
      <point x="620" y="-318"/>
      <point x="548" y="-390"/>
      <point x="460" y="-390" type="curve" smooth="yes"/>
      <point x="460" y="-390"/>
      <point x="200" y="-390"/>
      <point x="200" y="-390" type="curve" smooth="yes"/>
      <point x="112" y="-390"/>
      <point x="40" y="-318"/>
      <point x="40" y="-230" type="curve" smooth="yes"/>
      <point x="40" y="-230"/>
      <point x="40" y="-80"/>
      <point x="40" y="-80" type="curve"/>
      <point x="40" y="-80"/>
      <point x="100" y="-20"/>
    </contour>
  </outline>
</glyph>
